<svg width="500" height="320" viewBox="0 0 500 320" fill="none" xmlns="http://www.w3.org/2000/svg">
<path fill-rule="evenodd" clip-rule="evenodd" d="M347.5 34.5C332.8 37.7 326 42.8 303.3 67.7C281 92.1 233.5 139.3 222 148.4C211.3 156.9 203 162.4 190 169.5C173.2 178.9 166.2 181.7 130.1 193.6C111.2 199.8 95.0999 205.5 94.3999 206.1C92.1999 207.9 92.7999 210.8 95.7999 212.7C97.2999 213.6 99.7999 215.7 101.3 217.3C103.9 220 104.5 220.2 109.3 219.7C120.1 218.6 144.2 212.6 162.9 206.4C173.5 202.8 182.4 200.1 182.7 200.4C183 200.6 179.8 204.9 175.6 209.9C166.1 221.3 164.5 224.3 166.6 226.1C167.9 227.2 167.8 227.7 165.4 230.1C162.6 233 162.5 236.3 165.2 236.8C166.7 237.1 186.4 227.6 205.7 217.3C209.6 215.2 213.2 213.9 213.6 214.3C214 214.7 211.4 218 207.7 221.6C204 225.1 200.3 229.1 199.4 230.5C197.4 233.5 198.4 236.8 201.5 237.6C204.4 238.3 220.1 232.6 231 226.9C235.1 224.8 238.8 223.4 239.1 223.8C239.9 224.6 252 256.1 252 257.3C252 257.8 248.1 257.9 243.3 257.5C236.8 257 233.4 257.2 230.5 258.3C226.4 259.7 224.9 262.7 228.5 262.2C237.2 261 243.8 261 252.8 262.4C262.9 263.9 263.1 264 273.3 271C283.2 277.9 284.5 279.3 286.9 285.3C288.7 290 290.4 288.6 289.7 282.9C289.2 279.1 289.4 277.9 290.3 278.2C290.702 278.372 291.829 278.775 293.284 279.295L293.286 279.296L293.287 279.297C294.366 279.682 295.624 280.132 296.9 280.6C300.9 282 302.9 283.4 304.3 285.7C307.6 291.4 310.2 289.2 307.2 283.3C305.6 280.3 304.2 279.2 299.4 277.4C292 274.7 290.9 272.6 297.4 273.5C301.1 274.1 302 273.9 302 272.7C302 270.5 296.6 268.7 291.1 269.2C286.9 269.6 285.1 269.1 276.9 265.1L267.5 260.5L259 241C256.3 234.854 253.766 229.071 252.021 225.091L252.017 225.081L251.996 225.033C250.717 222.116 249.869 220.181 249.7 219.8C249.2 218.4 251.1 217 259.4 212.5C265.1 209.5 270 207 270.4 207C270.7 207 271 207.7 271 208.6C271 209.5 275 215.7 279.8 222.4C296.5 245.3 301.8 253.5 300.7 254.6C300.5 254.8 297 254.6 293 254.1C285.4 253.1 279.6 254.3 276.1 257.6C273.7 259.8 277.5 260.5 282.2 258.7C285.9 257.2 287.3 257.2 297.6 258.5C315.2 260.8 315.8 261.1 320.5 270.2C323.2 275.4 325.1 278 326.3 278C328.4 278 328.5 276.6 326.4 273.5C323.8 269.5 325.2 268.7 329.5 271.8C334.8 275.6 346.8 279.6 348.3 278.1C349.9 276.5 348.5 275.6 341 273.1C334.5 270.9 329.1 267.5 330.4 266.3C330.7 265.9 333.4 266.4 336.4 267.3C342.2 269.2 355.5 269.6 356.5 268C357.4 266.5 352.6 265 346.8 265C341.2 265 324.1 260.1 319.8 257.2C318.3 256.3 311.4 247.9 304.3 238.7L302.79 236.722C288.768 218.359 287.022 216.074 287.168 213.915C287.188 213.608 287.247 213.304 287.314 212.956C287.342 212.813 287.371 212.662 287.4 212.5C287.415 212.429 287.429 212.36 287.443 212.293L287.446 212.282C288.091 209.207 288.091 209.206 305 196.5C334.6 174.4 342.6 166.2 350.9 149.5C357.2 136.9 359.5 124.5 359.5 102.6V84.7L362.1 81.9C363.6 80.3 367.6 74.8 371.1 69.5C376 62.3 378 60 379.7 60C380.9 60 384.3 59.1 387.1 57.9C390.8 56.5 393.5 56.1 396 56.5C400 57.2 402.7 55.3 401.6 52.5C400.6 49.8 387.6 44.3 380.3 43.5C374.6 42.9 372.9 42.3 369.6 39.4C367.4 37.5 363.3 35.3 360.6 34.5C360.394 34.4396 360.196 34.3814 360.005 34.3253C357.836 33.6876 356.61 33.3271 355.366 33.2438C353.747 33.1354 352.097 33.4959 348.3 34.3253L347.5 34.5ZM324.6 88.8C324.3 89.3 324.7 92.8 325.5 96.6C327.4 105.5 327.4 121.8 325.5 129.8C322.6 142 315.3 152.4 304.9 159.1C299.7 162.4 285 168 281.3 168C280.1 168 277.9 168.5 276.4 169C274 169.9 273.8 170.3 275.1 171.5C276.3 172.7 277.4 172.7 283 171.5C306.2 166.5 321.4 154.3 328.2 135C330.2 129.3 330.5 126.7 330.4 113.5C330.3 103.9 329.8 96.7 328.9 93.6C327.6 88.8 325.8 86.9 324.6 88.8ZM356 50C357.657 50 359 48.6569 359 47C359 45.3432 357.657 44 356 44C354.343 44 353 45.3432 353 47C353 48.6569 354.343 50 356 50Z" fill="black"/>
</svg>
