<svg width="500" height="320" viewBox="0 0 500 320" fill="none" xmlns="http://www.w3.org/2000/svg">
<path d="M287.3 49.8C281.5 55.1 277 62.4 277 66.5C277 67.5 275.5 67 272.3 65C269.6 63.4 265.3 61.5 262.5 60.8C259.8 60.2 256.8 59 255.9 58.3C252.8 55.7 247.2 55.5 244.1 57.8C242.5 58.9 239.3 60.4 236.9 61C231.2 62.5 224.7 66.3 222.1 69.6L221.596 70.2477C221.075 70.9182 220 70.5494 220 69.7V69.7C220 68.2 218.9 64.7 217.6 61.8C213.7 53 200 42.5 200 48.3C200 49 202.5 51.8 205.6 54.5C209.3 57.6 212 61.1 213.4 64.3L214.257 66.208C215.129 68.1518 215.358 70.3234 214.91 72.4064L213.6 78.5C211.5 89 211.6 89.6 217.6 99.5C222.5 107.7 221.8 109.9 210.8 121.3L209.287 122.864C205.282 127.004 198.615 126.913 194.725 122.664L194.3 122.2C187.3 114.5 186.6 114 183.6 114.5C181.8 114.9 176.1 114.1 169.5 112.5C152 108.4 151.4 108.2 150 105.5C148.5 102.6 145 102.1 145 104.7C145 105.7 145.8 107.9 146.9 109.5C148.6 112.4 149.7 112.8 164.7 116.3C173.4 118.4 181.4 119.8 182.4 119.4C184.2 118.7 190.2 123.8 196 131.1V131.1C197.728 133.245 197.873 136.261 196.359 138.562L191.4 146.1C179.2 164.5 169.4 186.2 162.1 210.9C155.9 231.6 159.2 245.1 170.7 246.7C175.8 247.4 179.7 245.6 189.7 238.2C194.3 234.8 200.7 230.7 204 229.1L206.842 227.795C208.626 226.977 210.733 227.793 211.5 229.6V229.6C212.3 231.5 213.6 235.4 214.6 238.3L215.051 239.794C215.789 242.238 215.564 244.872 214.422 247.156L210.6 254.8C205.8 264.5 204.5 266.2 201.5 267.4C198.2 268.8 196.9 271.2 198.9 272.4C199.4 272.7 201.8 272.3 204.3 271.4C208.7 269.9 208.8 269.8 215 256.7L219.519 247.079C220.599 244.78 220.763 242.155 219.978 239.739L217.4 231.8L214.827 223.879C214.039 221.452 214.209 218.815 215.301 216.509L215.4 216.3C216.7 213.6 218.4 211.9 221.5 210.4V210.4C224.131 209.144 227.27 209.702 229.307 211.788L230.1 212.6C235.8 218.4 241.5 221 248.7 221C256 221 261.4 218.4 267.4 212L269.039 210.254C270.748 208.434 273.522 208.115 275.6 209.5V209.5C277.6 210.9 279.8 212 280.4 212C281.1 212 282.7 214.4 284.1 217.2L284.882 218.794C286.046 221.167 286.223 223.906 285.374 226.41L282.8 234C280.6 240.6 279.1 246.6 279.4 248C279.6 249.4 282.4 255.8 285.5 262.2C290.9 273.4 291.3 273.9 295.5 275.5C297.9 276.5 300.3 276.9 300.9 276.5C303.1 275.2 301.9 272.9 298.2 271.5C294.7 270.1 294 269 289 258.4L285.287 250.424C284.204 248.097 284.057 245.444 284.876 243.012L286.9 237L288.557 231.873C289.384 229.316 292.235 228.028 294.7 229.1V229.1C297.2 230.2 304 234.4 309.7 238.5C323 248 327.9 249 334.5 243.9C341.2 238.6 341.8 227.8 336.5 209.7C329.7 187 319.5 164.2 308 146.7L306.415 144.228C303.892 140.294 304.431 135.137 307.712 131.809L309.2 130.3C315.8 123.7 316.7 123.1 320.4 123.1C322.7 123.1 330.8 121.6 338.5 119.7C351.2 116.6 352.6 116 354.2 113.4C355.2 111.8 356 109.7 356 108.7C356 106.1 352.6 106.6 351 109.4C350 111.5 347.7 112.3 336.6 115.1C329.4 116.9 321.4 118.3 318.8 118.2C314.3 118 314.1 118.1 306.7 126L305.847 126.899C302.305 130.629 296.304 130.443 293 126.5V126.5C289.5 122.5 284.8 117.6 282.5 115.7C279 112.7 278.2 111.4 277.6 107.3C277 102.9 277.3 101.8 281.2 94.4L283.783 89.4191C284.83 87.4002 285.157 85.0848 284.711 82.8548L283.5 76.8C281.7 67.6 281.7 67 283.4 62.6C284.6 59.5 287.1 56.3 291.2 52.6C295.5 48.8 297.1 46.7 296.7 45.6C295.7 42.9 293.8 43.8 287.3 49.8ZM252.5 61.9C252.8 62.4 252.6 63.1 252 63.5C250.5 64.4 250.8 67.6 252.5 71V71C253.225 72.3589 252.24 74 250.7 74H250H249.3C247.76 74 246.775 72.3589 247.5 71V71C249.2 67.7 249.5 64.4 248 63.5C247.5 63.2 247 62.5 247 61.9C247 60.7 251.7 60.7 252.5 61.9ZM243.4 64.6C250.5 67.3 232.4 80.8 224.9 78.5C222.3 77.6 222.5 75.7 225.6 72C230.1 66.8 239.2 63 243.4 64.6ZM266.5 66.4C271.2 68.5 277 73.9 277 76C277 76.5 276.1 77.4 275 78C271.5 79.9 263.8 77 258.3 71.7C251.2 65 256.4 61.6 266.5 66.4ZM254.8 78.6C265 82.8 273 97.7 272.9 112C272.9 117.5 270.6 125.3 264 141.7C260.9 149.3 260.3 150.2 256.3 152.1C247.9 156.2 238.8 153.1 236.5 145.5C235.8 143.3 233.7 137.9 231.8 133.5C226.2 120.5 224.4 112.2 225.8 105C228 92.9 234.7 82.4 242.5 78.9C247.4 76.6 250 76.6 254.8 78.6ZM226.3 82.4V82.4C227.862 82.4446 228.795 84.158 227.985 85.4944L227.8 85.8C226.7 87.6 225 91.2 224 93.7V93.7C223.314 95.5167 220.832 95.7358 219.838 94.0674L219.5 93.5C217.2 89.5 216.9 88 217.4 84.3C218.2 78.3 218.8 77.6 220.9 80.1C222.1 81.6 223.9 82.4 226.3 82.4ZM280 84.2C280 86 278.9 89.2 277.6 91.4V91.4C276.542 93.1194 274.014 93.0309 273.079 91.2417L272.9 90.9C271.7 88.5 270.1 85.5 269.3 84.3C267.9 82.2 268 82.2 272.5 82.2C274.307 82.2 275.969 82.0551 276.949 81.866C277.535 81.7529 277.957 81.2913 278.505 81.0544C279.414 80.6612 280 81.7797 280 84.2ZM222.9 122.9C223.5 125.5 225.7 131.8 227.9 136.8C230.1 141.7 232.2 147.5 232.6 149.6C232.9 151.8 234.3 154.4 235.6 155.5C238.8 158.3 242 164.9 242 168.8C242 173 240.8 175.2 234.8 181.9C232.2 184.9 230 188.1 230 189C230 196.1 222.3 206.4 216 207.6C214.1 208 213 209 212.6 210.6C212.2 212 210.4 215.5 208.5 218.4C206 222.4 204.1 224.1 201.5 225C199.5 225.6 194.3 228.9 189.8 232.2C175.5 242.8 172.1 244 167 240C164.6 238.2 164.5 237.6 164.5 227.8C164.6 218.3 164.9 216.5 169.2 204C177.6 179.2 186.9 160.4 199.7 142.2C206 133.4 219.5 118 221 118C221.5 118 222.3 120.2 222.9 122.9ZM285 124.7C302 143.3 315.3 165.4 325.6 192.3C337.8 224.3 338.2 241.9 326.5 242C323 242 320.4 240.5 309.2 232.2C304.7 228.9 299.4 225.6 297.4 225C294.7 224.1 292.9 222.3 289.9 217.7C287.8 214.4 286 210.9 286 209.8C286 208.8 285.3 208 284.3 208C281.1 208 274.5 203.2 272.3 199.3C271.1 197.1 269.8 193.6 269.4 191.3C269 188.4 267.3 185.7 263.3 181.1C259.2 176.6 257.7 174 257.3 171.1C256.6 165.9 258.5 160.6 262.4 156.6C264.3 154.7 265.9 152 266.2 149.9C266.5 148 268.6 142.2 270.8 137C273.1 131.8 275.4 125.4 276.1 122.7C276.7 120.1 277.6 118 278 118C278.5 118 281.6 121 285 124.7ZM253.4 162.4C250.6 170.1 252.4 176.7 259 183.5C261.9 186.5 263.6 189.6 265.5 195.4L266.817 199.401C267.626 201.86 267.251 204.556 265.8 206.7V206.7C257.4 219.1 241.3 219.5 231.9 207.6C229.9 205 229.8 204.4 230.9 201.6C231.6 199.9 232.9 196.2 233.7 193.5C234.7 190.4 236.9 186.7 239.7 183.7C246.8 176 248.6 169.7 245.5 162.3V162.3C244.634 160.243 245.76 158.529 247.992 158.507C248.44 158.503 248.912 158.5 249.4 158.5H250.589C252.611 158.5 254.04 160.481 253.4 162.4V162.4Z" fill="black"/>
<path d="M254.8 78.6C265 82.8 273 97.7 272.9 112C272.9 117.5 270.6 125.3 264 141.7C260.9 149.3 260.3 150.2 256.3 152.1C247.9 156.2 238.8 153.1 236.5 145.5C235.8 143.3 233.7 137.9 231.8 133.5C226.2 120.5 224.4 112.2 225.8 105C228 92.9 234.7 82.4 242.5 78.9C247.4 76.6 250 76.6 254.8 78.6Z" fill="black"/>
<path d="M222.9 122.9C223.5 125.5 225.7 131.8 227.9 136.8C230.1 141.7 232.2 147.5 232.6 149.6C232.9 151.8 234.3 154.4 235.6 155.5C238.8 158.3 242 164.9 242 168.8C242 173 240.8 175.2 234.8 181.9C232.2 184.9 230 188.1 230 189C230 196.1 222.3 206.4 216 207.6C214.1 208 213 209 212.6 210.6C212.2 212 210.4 215.5 208.5 218.4C206 222.4 204.1 224.1 201.5 225C199.5 225.6 194.3 228.9 189.8 232.2C175.5 242.8 172.1 244 167 240C164.6 238.2 164.5 237.6 164.5 227.8C164.6 218.3 164.9 216.5 169.2 204C177.6 179.2 186.9 160.4 199.7 142.2C206 133.4 219.5 118 221 118C221.5 118 222.3 120.2 222.9 122.9Z" fill="black"/>
<path d="M285 124.7C302 143.3 315.3 165.4 325.6 192.3C337.8 224.3 338.2 241.9 326.5 242C323 242 320.4 240.5 309.2 232.2C304.7 228.9 299.4 225.6 297.4 225C294.7 224.1 292.9 222.3 289.9 217.7C287.8 214.4 286 210.9 286 209.8C286 208.8 285.3 208 284.3 208C281.1 208 274.5 203.2 272.3 199.3C271.1 197.1 269.8 193.6 269.4 191.3C269 188.4 267.3 185.7 263.3 181.1C259.2 176.6 257.7 174 257.3 171.1C256.6 165.9 258.5 160.6 262.4 156.6C264.3 154.7 265.9 152 266.2 149.9C266.5 148 268.6 142.2 270.8 137C273.1 131.8 275.4 125.4 276.1 122.7C276.7 120.1 277.6 118 278 118C278.5 118 281.6 121 285 124.7Z" fill="black"/>
<path d="M253.4 162.4C250.6 170.1 252.4 176.7 259 183.5C261.9 186.5 263.6 189.6 265.5 195.4L266.817 199.401C267.626 201.86 267.251 204.556 265.8 206.7V206.7C257.4 219.1 241.3 219.5 231.9 207.6C229.9 205 229.8 204.4 230.9 201.6C231.6 199.9 232.9 196.2 233.7 193.5C234.7 190.4 236.9 186.7 239.7 183.7C246.8 176 248.6 169.7 245.5 162.3V162.3C244.634 160.243 245.76 158.529 247.992 158.507C248.44 158.503 248.912 158.5 249.4 158.5H250.589C252.611 158.5 254.04 160.481 253.4 162.4V162.4Z" fill="black"/>
<path d="M252.5 61.9C252.8 62.4 252.6 63.1 252 63.5C250.5 64.4 250.8 67.6 252.5 71V71C253.225 72.3589 252.24 74 250.7 74H250H249.3C247.76 74 246.775 72.3589 247.5 71V71C249.2 67.7 249.5 64.4 248 63.5C247.5 63.2 247 62.5 247 61.9C247 60.7 251.7 60.7 252.5 61.9Z" fill="black"/>
</svg>
