<svg width="500" height="320" viewBox="0 0 500 320" fill="none" xmlns="http://www.w3.org/2000/svg">
<path fill-rule="evenodd" clip-rule="evenodd" d="M325 38C323.5 33.3 322.4 29.2 322.7 28.7C324.4 25.9 326.5 29.5 330.1 41.5C333.4 52.7 335.1 53.3 339.3 44.7C340.8 41.6 342.7 39 343.5 39C345.4 39 345.4 41.7 343.5 45C342.818 46.1932 342.282 47.4591 342.076 48.1785C342.015 48.3903 342.034 48.6222 342.236 48.708C343.378 49.1907 348.586 49.5 356.5 49.5C370 49.5 371 49.4 371 47.6C371 43.1 368.4 37.7 364.8 34.6C359.2 29.8 359.9 27.3 366 30.5C369.9 32.5 372.8 37.6 374.3 45C375.5 51.1 375.7 51.4 379.4 52.7L380.826 53.1752C382.329 53.6765 383.987 53.2424 385.053 52.0684L388.2 48.6C393.7 42.4 399.3 38.5 401.5 39.4C403.8 40.2 403.3 41.9 400.5 43C399.1 43.5 395.9 46.1 393.3 48.6L390.952 50.9986C389.764 52.2125 389.928 54.1978 391.3 55.2C394.5 57.5 394.6 58.5 392 64.1C390.9 66.5 390 70.1 390 72C390 74.6 389.1 76.3 386.4 79.1L384.533 81.0184C383.472 82.1094 383.122 83.7083 383.63 85.1432L384.5 87.6C385.5 90.3 386.5 95.8 386.8 99.7C387.2 105.8 387 107 385.8 107C384.7 107 384.1 105.4 383.6 101C383 95.8 381.4 89.3 380.4 88.1C380.2 87.9 379.1 88.9 378 90.3C376.8 91.8 370.5 97.3 363.9 102.6C353.2 111.2 351.6 112.9 348.5 119C346.6 122.8 344.2 126.4 343.2 127.2C341.7 128.2 341.2 130.3 340.7 136.7C340 145.5 338.4 150.5 334.5 155.6C333.1 157.4 332 159.1 332 159.4C332 159.7 334 161.1 336.5 162.6C341.4 165.4 348.5 174.7 350.1 180.3C351.7 185.9 346.7 197.1 343.9 194.3C343.2 193.6 343.5 192 344.9 189.2C347.4 184.4 347.5 182.1 345.6 179.5C344.4 177.8 344.1 178.1 343.1 183.1C340.8 193.6 340 196 338.3 196C337.1 196 336.9 195.3 337.3 192.5C337.9 188.9 337.2 188.2 335.2 190.2C334.3 191.1 333.7 191.1 332.9 190.3C332.2 189.6 332.3 187.8 333.3 184.2L334.1 181.534C334.53 180.101 334.123 178.547 333.047 177.507L331.9 176.4C330.571 175.154 329.241 174.253 328.657 174.213C328.469 174.2 328.329 174.361 328.228 174.522C327.075 176.367 326.85 184.31 327.9 188.7C330.5 199.1 331.9 201.5 336.6 203.8C339.4 205.2 342 205.8 343.5 205.4C346.6 204.6 357.1 206.8 359.3 208.8C361.6 210.8 361.5 213 359 213C356.6 213 356.5 213.8 358.5 216.4C359.3 217.5 360 219 360 219.7C360 221.9 357.3 221.2 355.3 218.4C354.1 216.8 351.9 215.5 349.2 214.9C342 213.3 340.7 215.8 346.9 218.9C352.2 221.6 354.8 229 350.5 229C349.8 229 348.9 227.9 348.6 226.5C347.8 223.4 344.6 221.2 338.3 219.6C328.6 217 322.8 211.9 314.6 198.8C310.9 192.7 308.8 190.5 303.9 187.5C300.6 185.5 295.8 182 293.3 179.8L289.91 176.915C289.074 176.203 287.981 175.867 286.889 175.984L282.1 176.5C278.4 176.9 274.2 177.3 272.7 177.4C270.2 177.5 269.5 178.2 268 182.1C267.1 184.7 264.9 189.2 263.1 192.3C261.4 195.3 260 198 260 198.3C260 198.6 262.3 199.3 265.2 199.9C268 200.6 270.8 201.4 271.4 201.9C273 203.1 294.7 203.9 298.5 202.9C303.2 201.6 313.9 204.2 316.2 207.2C318.7 210.4 318.4 212 315.5 212C312.2 212 312.3 213.1 316 215.8C319.1 218.1 320 221 317.6 221C316.9 221 314.3 219.4 311.9 217.5C307.1 213.7 304.9 213.2 303.1 215.4C302.1 216.5 303 217.4 307.5 220C312.4 222.8 313 223.5 313 226.5C313 229.523 311.215 232.278 309.922 231.478C309.761 231.379 309.617 231.244 309.525 231.078C309.216 230.517 309 229.172 309 227.9C309 225.7 308.1 224.7 304.3 222.4C301.2 220.6 298.3 219.7 296.2 219.8C294.4 220 288.8 219.1 283.8 217.8L275.573 215.811C274.998 215.672 274.4 215.662 273.82 215.783L264.1 217.8C250.2 220.7 241 220.7 238.4 217.9C236.9 216.3 236.8 215.5 237.8 214C238.5 212.9 239 211.6 239 211.1C239 209.1 232.4 208.8 227.2 210.5C219.4 213.1 212 210.8 212 205.8C212 203.6 211.8 203.6 207.2 205.9C205.2 206.9 197.4 209.1 190 210.8C182.6 212.5 175.2 214.3 173.7 214.9C172.1 215.5 167 216 162.3 216C152.4 216 148.7 214.6 143.5 208.9C141.6 206.8 139.5 205 138.9 205C136.6 205 127.3 209.5 124.7 211.9C120.2 216 118.8 219.6 118.7 227.4C118.6 233.4 119.1 235.5 121.6 241C125 248.2 133 256.9 138.8 259.9C140.8 260.9 145.9 263 150 264.5C156.7 266.9 160.4 267.4 185.5 269.1C206.7 270.6 218.5 270.9 234 270.4C268.2 269.4 307.4 272.1 330 277C339.7 279.1 358.8 286.2 362.2 289C364.3 290.7 364.3 291 363 292.4C361.6 293.8 360.4 293.7 350.5 291.4C348.765 291.001 347.121 290.621 345.561 290.261L345.471 290.24L345.47 290.24C330.828 286.861 323.517 285.174 316.109 284.374C308.72 283.576 301.236 283.661 286.286 283.831L286.27 283.831C284.313 283.853 282.229 283.877 280 283.9C206.9 284.8 168.8 284.5 160 283.2C136.5 279.5 124.4 274.4 114.3 263.6C106.2 255.1 102.6 248.8 99.9999 238.4C97.3999 228.4 97.4999 222.2 100.2 213.1C101.9 207.4 103.4 204.6 107.1 200.6C112.7 194.4 124.6 185.7 136.1 179.4C147.1 173.3 152 169.8 152 168C152.1 164 157.2 144.3 160 137.4C167.1 119.5 181.8 97.5 196.5 82.7C205 74.1 222.2 62.2 230.4 59.2C242.3 54.7 261.4 55.7 277.9 61.6C283.2 63.5 287.6 65 287.8 65C287.9 65 288 64.1 288 63C288 59.1 290.8 55.4 295.7 52.8C301.7 49.6 309.2 47.8 312.8 48.6C316.3 49.5 321.3 52 322.2 53.4C322.7 54.1 323.7 54.1 325.7 53.4C329.2 52.2 329.1 50.1 325 38ZM357.5 62C358.881 62 360 60.8807 360 59.5C360 58.1193 358.881 57 357.5 57C356.119 57 355 58.1193 355 59.5C355 60.8807 356.119 62 357.5 62Z" fill="black"/>
</svg>
