<svg width="500" height="320" viewBox="0 0 500 320" fill="none" xmlns="http://www.w3.org/2000/svg">
<path d="M157.5 12C156.5 13.5 157.6 14.6 163.3 17.8C187.1 31.3 213.9 63 233.4 100.9L238.995 111.844C239.749 113.318 239.724 115.069 238.929 116.521L237.9 118.4C236.7 120.6 234.1 124.6 232.1 127.2C228.2 132.5 228.9 132.6 220.2 125C215.9 121.2 214.4 118.9 211.6 112C208.4 103.9 207.9 103.3 202.3 99.8C199.1 97.8 195.7 96.1 194.8 96.1C191.3 95.9 193.1 98.9 198.4 101.9C205.1 105.8 205.2 105.9 208.5 114.5C210.8 120.5 212.3 122.5 218.7 128.5C225.8 135.2 226.1 135.6 225.1 138.3C222.3 145.5 224.7 152.2 231.1 155.5C232.7 156.4 234 157.5 234 158C234 159.6 230.7 159.2 226.5 157C224.3 155.9 221.6 155 220.5 155C216.7 155 208.3 160 203.7 164.9L200.585 168.223C199.697 169.17 198.475 169.735 197.177 169.797L188.8 170.2C178.3 170.7 170 173 170 175.4C170 177.7 171.2 177.9 174.4 176.3C176.6 175.1 181 174.5 189.5 174.2L199.025 173.883C200.585 173.831 202.03 173.053 202.934 171.781L204.2 170C207.2 165.7 214.3 160.5 218.5 159.4C221.1 158.8 221.2 158.9 220.7 161.1C218.5 170.2 217.7 178.4 217.6 191.2C217.5 205.3 217.4 206 215.5 206C212.4 206 203.4 210.6 202.7 212.5C201 216.9 202.7 225.4 210.7 250.9L214.702 264.089C214.962 264.947 214.987 265.86 214.774 266.731L210 286.2C205 306.2 204.3 312.2 207.4 308.9C208.2 308.1 211.1 298 213.9 286.3L218.767 266.459C218.985 265.57 218.954 264.638 218.679 263.765L214.5 250.5C210.6 237.7 207.5 226.4 205.6 217.9C204.9 214.6 207.2 212.3 213.3 210.5V210.5C215.628 209.812 218.027 211.336 218.395 213.735L219.4 220.3C221.5 233.7 224.4 242.9 231.1 257C238.8 273.2 243.5 278 251.5 278C259.6 278 264.2 273.1 272 256.8C278.5 242.9 281.6 233.3 283.4 220.9C284.3 215.3 285.2 210.5 285.5 210.2C285.8 209.9 288.1 210.6 290.5 211.8C296.8 214.9 296.7 215.6 286.8 248.4L282.006 263.98C281.74 264.844 281.714 265.764 281.929 266.642L286.9 286.9C289.9 298.8 292.7 308.9 293.1 309.4C293.7 310 294.4 310 295 309.4C295.8 308.6 294.5 301.7 290.9 286.7L286.019 266.52C285.81 265.656 285.835 264.751 286.092 263.9L290.8 248.3C296.5 229.8 299 219.9 299 215.8C299 212.6 294.4 208.5 289.2 207.1V207.1C287.032 206.514 285.489 204.546 285.473 202.3L285.4 191.8C285.3 182.7 284.7 174.1 283.5 168.2C282.832 164.416 282.329 161.017 282.196 159.392C282.142 158.735 282.543 158.379 283.168 158.591C284.348 158.993 286.455 159.928 288.8 161.1C293 163.2 296.1 165.7 298.7 169L301.017 171.988C301.954 173.196 303.391 173.909 304.919 173.924L312.7 174C319.3 174 324.6 174.6 327.6 175.6C333.2 177.5 335.7 176.2 331.6 173.5C327.9 171 322.6 170.1 313.1 170H307.045C305.617 170 304.257 169.389 303.308 168.322L300.8 165.5C293.9 157.7 282.4 152.5 278.9 155.6C278 156.4 274.8 157.8 271.9 158.6C261.7 161.3 260 159.9 268.3 155.8C275.7 152.2 277.8 147.9 275.9 140.6L275.34 138.601C274.826 136.764 275.401 134.795 276.824 133.524L282 128.9C288.8 123 289.9 121.4 292.4 114.9C296 105.8 296 105.7 302.6 101.9C307.9 98.9 309.7 95.9 306.3 96.1C305.3 96.1 301.9 97.8 298.6 99.8C293.1 103.3 292.6 103.9 289.3 112.2C286.2 120 285.3 121.3 279.2 126.5L276.265 128.953C274.174 130.701 271.069 130.453 269.283 128.395L269.2 128.3C267.4 126.2 264.9 122.5 263.8 120.1L262.702 117.854C262.009 116.436 262.026 114.773 262.749 113.369L268.5 102.2C275.7 88.1 289.2 66.8 297.9 56C310 40.8 329.3 23.4 340.1 17.9C344.5 15.7 345.8 14.1 343.9 13C340.9 11.1 322.5 24.2 309 37.9C293.2 53.9 278.3 75.1 264.5 101.4C258.4 112.9 257.7 113.9 255.9 112.9C254.8 112.3 251.6 112 248.9 112.1L247.103 112.208C245.151 112.325 243.31 111.294 242.391 109.568L237.4 100.2C216.4 60.3 192.1 31 167.6 15.9C159.1 10.7 158.5 10.4 157.5 12ZM258.1 118.6C260.5 120.8 260.5 122 258.1 122C257.1 122 254.8 123.6 253 125.6C251.3 127.6 249.8 129.1 249.7 128.9C247.8 125.4 246.8 124.3 244.4 123C243.405 122.502 242.448 122.005 241.819 121.676C241.343 121.426 241.04 121.016 241.312 120.552C241.558 120.13 241.974 119.579 242.5 119C246.2 114.9 253.9 114.8 258.1 118.6ZM245.9 130.5C246.7 132.1 247.5 138 247.8 144.2L248.143 151.604C248.228 153.453 246.752 155 244.9 155V155C240.2 155 234 153.2 230.8 150.8C225.5 147.1 227.7 137.6 236 128.9C239.7 124.9 240.1 124.8 242.2 126.2C243.5 127 245.1 129 245.9 130.5ZM267 131.8C274.3 141.6 274.6 147.9 267.8 152C264.8 153.8 254.5 155.8 253.4 154.8C252.1 153.5 251.9 143.6 253 137C253.9 131.8 254.9 129 256.6 127.3C259.7 124.2 262 125.2 267 131.8ZM231 162.5C234 163.3 237.7 164 239.3 164C242 164 242.9 165.7 241 167.6C239.3 169.3 234.8 182.4 232.9 191.5C231.3 199.4 229.5 217.4 228.7 235C228.5 240.1 228.4 240.3 227.3 237.8C225.5 233.8 223.3 221.8 221.9 209.5C220.3 194 221.5 171.7 224.5 162.2C225 160.7 224.4 160.7 231 162.5ZM279.8 168.1C281.9 178.1 281.8 207.2 279.6 220.4C276.7 238.4 266.9 262.2 259.2 270.2C256.2 273.4 254.9 274 251.4 274C247.8 274 246.8 273.5 243 269.4C240.7 266.9 237.6 262.3 236.2 259.2C233.5 253.6 233.5 253.2 233.5 232.5C233.5 203.5 236.3 186 243.3 172.1L245.252 168.075C246.025 166.48 247.585 165.413 249.352 165.272L256.5 164.7C262 164.3 268.8 163.4 271.5 162.6C274.3 161.8 277 161.3 277.5 161.4C278.1 161.6 279.1 164.6 279.8 168.1Z" fill="black"/>
<path d="M279.8 168.1C281.9 178.1 281.8 207.2 279.6 220.4C276.7 238.4 266.9 262.2 259.2 270.2C256.2 273.4 254.9 274 251.4 274C247.8 274 246.8 273.5 243 269.4C240.7 266.9 237.6 262.3 236.2 259.2C233.5 253.6 233.5 253.2 233.5 232.5C233.5 203.5 236.3 186 243.3 172.1L245.252 168.075C246.025 166.48 247.585 165.413 249.352 165.272L256.5 164.7C262 164.3 268.8 163.4 271.5 162.6C274.3 161.8 277 161.3 277.5 161.4C278.1 161.6 279.1 164.6 279.8 168.1Z" fill="black"/>
<path d="M231 162.5C234 163.3 237.7 164 239.3 164C242 164 242.9 165.7 241 167.6C239.3 169.3 234.8 182.4 232.9 191.5C231.3 199.4 229.5 217.4 228.7 235C228.5 240.1 228.4 240.3 227.3 237.8C225.5 233.8 223.3 221.8 221.9 209.5C220.3 194 221.5 171.7 224.5 162.2C225 160.7 224.4 160.7 231 162.5Z" fill="black"/>
<path d="M245.9 130.5C246.7 132.1 247.5 138 247.8 144.2L248.143 151.604C248.228 153.453 246.752 155 244.9 155V155C240.2 155 234 153.2 230.8 150.8C225.5 147.1 227.7 137.6 236 128.9C239.7 124.9 240.1 124.8 242.2 126.2C243.5 127 245.1 129 245.9 130.5Z" fill="black"/>
<path d="M267 131.8C274.3 141.6 274.6 147.9 267.8 152C264.8 153.8 254.5 155.8 253.4 154.8C252.1 153.5 251.9 143.6 253 137C253.9 131.8 254.9 129 256.6 127.3C259.7 124.2 262 125.2 267 131.8Z" fill="black"/>
<path d="M258.1 118.6C260.5 120.8 260.5 122 258.1 122C257.1 122 254.8 123.6 253 125.6C251.3 127.6 249.8 129.1 249.7 128.9C247.8 125.4 246.8 124.3 244.4 123C243.405 122.502 242.448 122.005 241.819 121.676C241.343 121.426 241.04 121.016 241.312 120.552C241.558 120.13 241.974 119.579 242.5 119C246.2 114.9 253.9 114.8 258.1 118.6Z" fill="black"/>
</svg>
