<svg width="291" height="214" viewBox="0 0 291 214" fill="none" xmlns="http://www.w3.org/2000/svg">
<path d="M219.568 0.12999C214.412 2.88499 208.455 4.04499 202.938 5.96899C199.108 7.30399 192.907 7.54199 189.884 10.563C188.872 11.573 188.92 12.863 188.722 14.226C188.29 17.155 185.26 20.478 183.746 23.041C181.446 26.915 179.028 30.735 177.638 35.041C174.704 44.124 170.644 53.356 172.238 63.103C173.118 68.471 174.218 73.803 175.128 79.165C175.638 82.183 175.784 85.248 176.003 88.298C167.757 88.2447 159.535 89.1757 151.51 91.071C146.831 80.655 136.968 71.521 128.31 65.24C117.61 57.492 106.103 52.599 93.616 48.875C90.811 48.04 88.028 47.157 85.198 46.41C84.886 44.796 84.529 43.191 84.221 41.574C83.021 35.233 83.5129 28.618 81.8719 22.297C80.3861 16.6284 79.8013 10.7613 80.139 4.91099C80.248 3.28999 78.05 3.27499 77.53 4.55999C74.821 11.237 76.339 22.445 77.138 29.402C77.906 36.088 79.138 42.726 80.096 49.414C80.2191 49.8828 80.4645 50.3104 80.8071 50.6532C81.1497 50.996 81.5773 51.2416 82.046 51.365C91.57 53.906 100.446 58.55 109.312 62.73C117.28 66.486 124.094 71.458 131.495 76.155C137.782 80.146 142.007 86.217 145.614 92.624C145.103 92.773 144.581 92.907 144.077 93.063C140.234 94.249 135.304 95.903 132.04 98.782C127.867 86.396 112.761 78.994 99.325 78.182C90.641 77.654 80.962 79.8 74.055 85.282C71.4497 87.2836 69.3559 89.874 67.945 92.841C65.5012 90.1969 62.8844 87.7181 60.112 85.421C55.105 81.632 46 81.039 40.044 80.162C33.108 79.137 26.1 78.77 19.138 77.972C15.01 77.496 11.113 76.343 7.09696 75.738C4.37096 75.328 3.04195 75.338 0.962953 77.244C-0.966047 79.015 0.272964 81.776 2.37396 82.59C3.89069 83.1481 5.5469 83.2025 7.09696 82.745C11.015 82.045 15.168 83.052 19.138 83.031C26.41 82.985 33.944 84.096 41.116 85.171C48.453 86.271 56.388 87.649 61.832 93.048C63.4 94.601 64.856 96.089 66.421 97.373C65.7937 100.493 65.5482 103.677 65.69 106.856C65.6907 110.001 65.9584 113.141 66.49 116.241C64.8442 117.616 63.2877 119.094 61.83 120.667C56.492 126.212 48.372 127.318 41.114 128.546C33.8364 129.69 26.4976 130.404 19.136 130.684C16.087 130.832 13.107 130.919 10.06 131.251C7.19495 131.565 5.13095 130.058 2.37195 131.125C0.27195 131.936 -0.968046 134.7 0.960954 136.472C4.94895 140.13 10.549 136.831 15.276 136.142C23.27 134.973 31.387 134.693 39.399 133.642C45.76 132.804 52.323 131.67 58.244 129.102C62.227 127.372 65.029 124.131 68.005 121.058C69.2143 123.668 70.9795 125.983 73.177 127.839C79.919 133.707 89.4 135.639 98.102 135.57C112.414 135.448 127.608 127.643 131.746 114.652C134.761 117.445 139.346 119.052 143.057 120.316C143.901 120.608 144.77 120.857 145.628 121.116C142.318 127.075 138.444 132.843 132.867 136.656C125.682 141.571 118.649 146.683 110.699 150.307C101.288 154.591 92.099 159.661 82.044 162.345C81.5752 162.468 81.1476 162.713 80.805 163.056C80.4623 163.399 80.2169 163.826 80.0939 164.295C79.1319 170.987 77.93 177.619 77.136 184.307C76.316 191.242 74.828 202.492 77.528 209.151C78.048 210.432 80.2459 210.419 80.1369 208.798C79.903 203.473 80.3547 198.14 81.481 192.93C82.814 186.055 82.7639 178.904 84.2189 172.135C84.5659 170.535 84.919 168.912 85.207 167.296C88.036 166.57 90.835 165.73 93.614 164.831C106.149 160.778 117.348 156.14 128.308 148.468C136.978 142.393 146.808 133.061 151.488 122.683C159.417 124.421 167.506 125.324 175.623 125.375C174.506 132.991 173.944 140.816 172.609 148.364C171.769 152.68 171.724 157.114 172.476 161.446C173.385 166.779 175.864 171.329 177.063 176.556C178.097 181.041 180.328 184.918 182.663 188.847C183.756 190.69 184.833 192.496 186.073 194.247C188.023 197.003 187.892 199.941 189.38 202.485C191.191 205.578 197.551 206.139 200.571 206.961C206.748 208.636 213.96 210.58 219.571 213.577C219.782 213.685 220.027 213.708 220.254 213.642C220.482 213.575 220.676 213.424 220.795 213.219C220.915 213.015 220.952 212.772 220.898 212.541C220.844 212.309 220.704 212.108 220.506 211.977C212.89 206.116 204.422 201.454 195.396 198.154C191.487 196.718 189.596 189.6 187.512 186.012C184.98 181.644 182.344 177.36 179.812 172.999C177.319 168.699 178.575 161.732 179.89 157.304C181.129 153.136 181.157 148.057 181.831 143.722C182.719 137.998 183.594 131.332 182.464 125.322C191.264 125.022 202.813 123.751 210.43 119.131C210.251 120.719 210.046 122.242 209.903 123.614C209.307 129.141 209.607 134.727 210.792 140.158C212.311 147.496 215.984 149.763 222.371 152.541C226.673 154.533 230.749 156.978 234.531 159.836C238.708 162.807 243.544 168.953 248.668 170.364C260.328 173.571 269.848 181.993 282.695 181.483C283.056 181.471 283.402 181.331 283.67 181.088C283.938 180.846 284.111 180.516 284.159 180.158C284.207 179.799 284.126 179.436 283.932 179.131C283.737 178.826 283.44 178.601 283.095 178.494C277.611 176.194 271.743 174.951 266.25 172.602C263.849 171.53 261.508 170.328 259.238 169.002C256.263 167.329 255.172 165.32 252.913 163.06C249.433 159.578 243.803 157.823 239.475 155.735C234.924 153.535 230.256 151.487 225.623 149.476C217.971 146.156 216.544 139.786 215.772 131.634C215.209 125.685 215.816 120.293 215.224 115.077C215.424 114.828 215.624 114.577 215.813 114.322C216.325 114.255 216.805 114.032 217.185 113.683C217.566 113.333 217.83 112.875 217.94 112.37C221.44 115.906 227.756 118.558 230.788 120.341C238.941 125.129 247.555 129.974 257.127 130.772C265.656 131.484 273.189 128.399 279.433 122.695C281.866 120.41 284.023 117.848 285.861 115.062C286.541 114.045 287.183 112.99 287.777 111.91C288.671 110.305 289.43 108.628 290.045 106.897C289.413 105.186 288.633 103.534 287.715 101.958C287.098 100.878 286.431 99.82 285.735 98.804C284.15 96.5106 282.433 94.3116 280.593 92.218C277.672 88.954 274.031 86.4155 269.958 84.804C265.885 83.1924 261.492 82.5522 257.129 82.934C247.929 83.687 240.419 88.178 232.477 92.461C229.15 94.254 221.794 97.332 217.938 101.32C217.828 100.831 217.573 100.386 217.206 100.044C216.84 99.7012 216.379 99.477 215.883 99.4C215.726 99.177 215.565 98.961 215.394 98.749C216.062 94.092 215.765 89.225 215.713 83.992C215.812 79.0744 216.835 74.2194 218.729 69.68C220.057 66.329 222.509 65.58 225.629 64.233C234.54 60.361 243.894 56.656 252.037 51.333C254.35 49.821 255.13 47.31 257.591 45.685C259.792 44.3097 262.074 43.0668 264.423 41.963C270.403 38.984 276.989 37.788 283.101 35.223C283.446 35.1163 283.743 34.8906 283.938 34.586C284.132 34.2814 284.213 33.9177 284.165 33.5593C284.117 33.201 283.944 32.8712 283.676 32.6286C283.408 32.3859 283.062 32.2461 282.701 32.234C276.961 32.005 271.525 33.634 266.201 35.674C261.324 37.533 255.006 43.168 249.833 43.198C246.108 43.218 241.498 48.143 238.998 50.523C234.42 54.7065 229.201 58.1301 223.541 60.664C217.318 63.503 213.419 64.89 211.209 71.864C209.677 77.1046 209.142 82.5861 209.632 88.024C209.777 90.017 210.113 92.247 210.401 94.548C202.756 90.031 191.201 88.901 182.43 88.494C183.491 82.816 182.709 76.599 181.983 71.087C181.392 66.571 180.367 62.066 180.046 57.518C179.646 51.777 177.221 46.482 179.817 40.71C181.551 36.863 184.332 33.199 186.456 29.535C188.7 25.667 190.44 20.261 193.164 16.81C195.294 14.11 203.891 12.154 206.911 10.897C212.189 8.69699 215.992 5.09199 220.511 1.73299C220.724 1.60794 220.878 1.40357 220.94 1.16484C221.001 0.926101 220.966 0.672561 220.841 0.45999C220.716 0.247419 220.512 0.0932298 220.273 0.0313428C220.034 -0.0305442 219.781 0.00494035 219.568 0.12999V0.12999ZM241.358 98.069C245.902 89.001 258.517 85.626 266.967 91.403C267.399 91.6706 267.732 92.0704 267.919 92.5429C268.105 93.0154 268.134 93.5354 268.001 94.0256C267.869 94.5159 267.581 94.9503 267.182 95.2642C266.783 95.5781 266.293 95.7547 265.785 95.768C257.87 95.973 249.569 95.942 242.085 99.02C241.515 99.258 241.135 98.518 241.358 98.069V98.069ZM74.6779 104.406C72.6669 93.206 83.537 86.313 93.629 85.94C104.581 85.54 114.885 90.207 120.746 99.293C120.872 99.493 120.602 99.655 120.446 99.526C114.017 94.288 102.964 93.009 95.095 93.25C86.195 93.525 79.627 96.71 74.968 104.443C74.901 104.55 74.7029 104.546 74.6779 104.406V104.406ZM207.501 104.963C207.585 105.051 207.639 105.164 207.653 105.286C207.667 105.407 207.642 105.529 207.58 105.635C207.518 105.74 207.424 105.823 207.312 105.87C207.199 105.917 207.074 105.926 206.956 105.896C196.279 102.351 185.906 99.387 174.536 99.28C162.944 99.171 151.978 100.711 140.648 103.016C139.936 103.16 139.448 102.179 140.135 101.8C159.464 91.191 190.412 88.68 207.501 104.963Z" fill="#510D0A"/>
</svg>
