<svg width="332" height="297" viewBox="0 0 332 297" fill="none" xmlns="http://www.w3.org/2000/svg">
<path fill-rule="evenodd" clip-rule="evenodd" d="M275.408 146.821C294.395 144.573 311.828 135.9 328.667 127.334C329.948 126.681 331.906 128.078 330.913 129.5C321.349 143.083 303.823 149.813 288.067 153.264C280.467 154.928 272.539 156.334 264.767 155.049C261.491 154.342 258.253 153.466 255.067 152.426C256.174 159.008 256.809 165.661 256.967 172.334C262.064 172.859 267.056 173.685 270.869 174.316C273.288 174.716 275.232 175.038 276.428 175.154C292.915 176.765 303.391 182.541 306.428 199.836C312.237 232.897 285.315 266.159 265.322 290.86C264.211 292.232 263.121 293.579 262.06 294.897C260.558 296.766 257.778 294.476 258.784 292.49C262.893 284.363 268.187 276.294 273.559 268.106C285.154 250.433 297.11 232.209 298.284 211.667C298.704 204.283 298.633 191.564 290.998 187.355C285.324 184.226 278.799 183.721 272.394 183.225C270.907 183.11 269.427 182.996 267.966 182.849C264.264 182.477 260.58 181.953 256.892 181.407C255.167 224.324 233.715 265.843 192.746 287.007C186.394 290.124 179.754 292.618 172.921 294.455C170.492 295.127 168.051 295.737 165.597 296.285C163.14 295.738 160.699 295.128 158.273 294.455C151.44 292.618 144.8 290.124 138.448 287.007C97.479 265.846 76.027 224.327 74.301 181.407C70.614 181.949 66.928 182.477 63.228 182.849C61.7666 182.996 60.2865 183.11 58.8 183.225C52.3952 183.721 45.8699 184.226 40.195 187.355C32.561 191.567 32.49 204.283 32.91 211.667C34.0821 232.211 46.0401 250.436 57.6366 268.11C63.0078 276.296 68.3015 284.364 72.41 292.49C73.415 294.476 70.633 296.766 69.133 294.897C68.0714 293.579 66.9816 292.232 65.8705 290.859C45.8793 266.159 18.9597 232.898 24.766 199.836C27.806 182.541 38.282 176.765 54.766 175.154C55.9594 175.037 57.8961 174.717 60.3048 174.318C64.1208 173.687 69.1214 172.86 74.228 172.334C74.3886 165.661 75.0235 159.009 76.128 152.426C72.9419 153.467 69.7042 154.342 66.428 155.049C58.66 156.334 50.728 154.928 43.128 153.264C27.372 149.813 9.84197 143.083 0.281969 129.5C-0.714031 128.082 1.243 126.685 2.523 127.338C19.363 135.904 36.795 144.577 55.783 146.825C58.8148 147.183 62.9774 146.517 67.4369 145.803C70.8071 145.264 74.3467 144.697 77.696 144.525C78.598 140.552 79.6773 136.628 80.934 132.751C77.7577 131.827 74.8656 131.094 73.4783 130.742C73.1911 130.669 72.9683 130.612 72.821 130.574C64.9367 128.573 57.3171 125.646 50.121 121.854C33.991 113.328 13.984 95.888 15.846 75.928C15.8645 75.4923 16.0238 75.0744 16.3 74.7369C16.5762 74.3994 16.9544 74.1605 17.3779 74.0562C17.8013 73.9519 18.2472 73.9876 18.6485 74.1582C19.0499 74.3287 19.3852 74.6248 19.604 75.002C20.3302 76.2631 21.0419 77.5136 21.7468 78.7522C27.9251 89.6077 33.5802 99.544 43.872 107.616C52.5807 114.31 62.5569 119.168 73.197 121.895C73.4684 121.967 73.7804 122.049 74.1278 122.139C76.3426 122.716 79.9969 123.669 83.732 125.011C85.6977 119.994 87.9686 115.102 90.532 110.362C71.703 103.409 51.883 91.855 50.443 71.542C49.406 56.938 55.416 43.382 62.916 31.198C70.539 18.825 80.159 6.25705 93.466 0.157047C94.903 -0.501953 96.776 1.02705 95.766 2.53805C91.9826 8.19396 87.5589 13.623 83.114 19.078C71.0333 33.9041 58.7963 48.922 58.835 69.208C58.865 84.437 71.854 91.897 83.901 97.608C84.8976 98.0801 85.993 98.5715 87.149 99.0902C89.6662 100.22 92.4707 101.478 95.168 102.945C104.512 90.8908 114.972 93.3925 128.002 96.5088C133.194 97.7507 138.795 99.0902 144.896 99.645C149.77 100.187 154.642 100.46 159.516 100.733C161.539 100.846 163.562 100.959 165.586 101.092C167.61 100.959 169.635 100.846 171.659 100.733C176.53 100.46 181.401 100.187 186.276 99.645C192.378 99.0912 197.98 97.7519 203.174 96.5102C216.202 93.3956 226.662 90.8951 236.004 102.945C238.692 101.486 241.488 100.23 243.998 99.1029C245.164 98.5794 246.268 98.0837 247.271 97.608C259.318 91.898 272.307 84.438 272.336 69.208C272.375 48.9225 260.138 33.9048 248.058 19.0791C243.613 13.6237 239.189 8.19434 235.406 2.53805C234.399 1.02705 236.273 -0.501953 237.706 0.157047C251.016 6.25305 260.635 18.825 268.269 31.194C275.776 43.378 281.783 56.938 280.749 71.538C279.308 91.851 259.488 103.405 240.66 110.358C243.223 115.098 245.494 119.99 247.46 125.007C251.189 123.666 254.841 122.715 257.056 122.137C257.407 122.046 257.722 121.964 257.995 121.891C268.635 119.164 278.611 114.306 287.319 107.612C297.609 99.5429 303.263 89.6085 309.438 78.7592C310.145 77.517 310.859 76.2628 311.587 74.998C311.806 74.6211 312.141 74.3252 312.543 74.1548C312.944 73.9845 313.39 73.9488 313.813 74.0531C314.237 74.1573 314.615 74.396 314.891 74.7333C315.168 75.0707 315.327 75.4884 315.346 75.924C317.208 95.884 297.201 113.328 281.07 121.85C273.874 125.641 266.254 128.568 258.37 130.57C258.229 130.607 258.019 130.66 257.75 130.728C256.377 131.076 253.463 131.815 250.258 132.747C251.507 136.629 252.586 140.554 253.495 144.521C256.836 144.695 260.366 145.26 263.729 145.798C268.198 146.514 272.371 147.182 275.408 146.821ZM181.336 95.9581C176.025 96.8241 170.716 97.4551 165.591 97.8721C160.466 97.4541 155.153 96.8231 149.845 95.9581C136.882 93.8411 123.924 90.2711 113.675 84.5781C136.083 78.3032 139.838 65.3124 144.815 48.093C145.817 44.6266 146.869 40.9889 148.132 37.2001L148.141 37.2495C150.292 49.077 152.443 60.9046 156.746 72.7321C159.057 72.7321 161.982 73.042 164.701 73.3301C165.001 73.3619 165.298 73.3933 165.591 73.4241C165.884 73.3933 166.181 73.3618 166.481 73.3301C169.2 73.042 172.125 72.7321 174.435 72.7321C178.74 60.8992 180.892 49.0663 183.044 37.2335L183.05 37.2001C184.313 40.9888 185.365 44.6264 186.367 48.0927C191.344 65.3123 195.099 78.3032 217.508 84.5781C207.258 90.2711 194.3 93.8411 181.336 95.9581Z" fill="#6C0F00"/>
</svg>
