<svg width="500" height="320" viewBox="0 0 500 320" fill="none" xmlns="http://www.w3.org/2000/svg">
<path d="M330.3 29C324.6 34.4 323.2 35.2 313.8 38C295.7 43.5 288 47.2 288 50.5C288 51.2 289.7 54 291.7 56.7C294.7 60.5 295.4 62.4 295.4 66V66C295.461 68.7431 293.921 71.2712 291.455 72.4752L282.6 76.8C269.8 83.1 269.8 83.1 263.4 82.5C257.6 81.8 257 81.6 257 79.5C257 76.2 252.3 72.7 249 73.5C246 74.2 243 77.5 243 80C243 81.5 241.9 81.9 237.1 82.5C231.4 83.1 231 83 219.1 77.1C212.4 73.7 206.7 70.3 206.3 69.5C205.3 66.6 207.1 61.2 210.5 56.9C212.4 54.5 214 51.7 214 50.8C214 48 207.5 44.4 196.6 41C179.4 35.6 177.7 34.9 171.9 29.3C166.3 24 164 22.8 164 25.4C164 27.1 173.7 36.3 177.6 38.2C179.2 39.1 184.7 40.9 189.8 42.4C200.7 45.5 210 49.5 210 50.9C210 51.5 208.4 54 206.5 56.6C203.5 60.5 203 61.9 203 66.5C203 72.9 203.5 73.4 219.1 81C231.8 87.2 234.7 90.1 229.5 91.4C225.8 92.3 222.8 97.6 223.4 102C223.9 105.3 223.7 105.7 220.4 107.5C215.5 110.1 209.2 117.5 207.8 122.2C206.9 125.3 206.9 127.5 207.8 131.8C208.4 134.8 208.8 137.5 208.6 137.7C208.4 137.9 204.1 137 199 135.7L197.089 135.227C192.481 134.088 188.765 130.692 187.216 126.205L186.8 125C185.2 120.3 183 113 181.9 108.7C180.7 104.5 178.9 99.8 177.7 98.4C176.6 97 172.5 94.3 168.5 92.5C162.6 89.8 161.1 88.7 160.2 86.1C159.2 83.2 156 81.7 156 84.1C156 86.3 159.3 92.1 161.1 93.1C164.1 94.7 163.3 96 159.4 96C157 96 156 96.4 156.3 97.2C156.7 98.6 166.4 98.9 169.1 97.6C170.2 97.1 171.7 97.7 173.4 99.2C175.5 101 176.9 104.3 179.6 113.5C181.6 120.1 184.1 127.9 185.3 130.9V130.9C186.682 134.355 189.636 136.939 193.244 137.848L199 139.3C210.6 142.2 212.4 143 214 146C214.8 147.6 213.6 147.7 199.2 147.6C184.2 147.5 183.3 147.6 179.1 150C173.6 153.1 171.6 156.3 167 169.9L165.716 173.68C164.339 177.735 160.481 180.419 156.2 180.3V180.3C150.7 180.1 149 180.4 149 181.4C149 183.2 151.2 184 156.3 184H156.976C158.225 184 158.864 185.498 158 186.4V186.4C156.8 187.8 154.5 189.2 152.9 189.5C149.6 190.2 148.9 193 152 193C155.2 193 159.3 190.5 163.3 186.1C166 183.2 167.7 179.6 169.9 172.3C173.7 160.4 176.6 155 180.5 153C183.5 151.5 207 150.1 207 151.4C207 151.8 205 154 202.5 156.3C199.5 159.2 198 161.5 198 163.2C198 164.9 196.5 167.3 193.5 170.2C190.9 172.8 188.7 176.1 188.4 177.8C187.9 180.3 186.6 181.6 182.5 183.9C171.4 190.2 158.6 204.7 157.3 212.5C156.9 214.8 158 219.4 161 228.1C166.2 243.2 166.7 249.8 163.1 254.8C161.2 257.5 160.6 260 160.1 267.4C159.5 274.9 158.8 277.6 156.7 281.3C153.6 286.5 153.4 288 155.5 288C157.5 288 161.7 280.5 163.1 274.3C163.9 271 164.7 269.3 165.5 269.6C167.6 270.4 169.1 275 168.4 278.5C168 280.6 168.3 282 169 282.5C170.7 283.6 172 281.1 172 276.8C172 271.6 170.3 268.3 166.5 266.6C163.4 265.1 163.3 264.8 164 261.4C164.5 259.5 165.6 256.9 166.7 255.8C168.1 254.2 168.5 252.2 168.5 246.1C168.4 239.8 167.7 236.5 164.1 226.1L161.393 218.411C160.314 215.345 160.571 211.968 162.1 209.1V209.1C163.4 206.6 166.9 202 169.7 198.9C175.3 192.9 185.6 185.2 186.6 186.3C187 186.7 186.1 189.6 184.6 192.9C181.9 199 181.4 202.9 182.9 205.8C183.5 207 183.1 209.6 181.8 213.8C180 219.2 179.9 220.6 180.9 224C181.6 226.2 183.4 229.5 185 231.4C186.7 233.2 188 235.5 188 236.4C188 239.1 190.5 244.2 193.4 247.8C195.5 250.2 196.3 252.3 196.5 256C197 265.5 206.4 274.3 221.1 279C227.4 281 229.7 282.4 236 288.2C248.4 299.5 253.1 299.4 265.7 287.9C271 283.1 274.7 280.6 278.4 279.4C295 274 304 265.2 304 254.6C304 251.8 304.5 249.8 305.4 249.3C308.7 247.4 312 240.7 312 236C312 232.9 312.5 230.8 313.6 229.9C317.6 226.6 319.3 219.5 317.6 213C316.7 209.4 316.7 207.8 317.8 204.9C319 201.8 318.9 200.8 317.2 195.9C316.2 192.9 315 189.7 314.5 188.7C313.3 186 315.7 186.6 321 190.5C327.6 195.3 335.3 204 338 209.4V209.4C339.347 212.287 339.525 215.584 338.495 218.599L335.9 226.2C330.6 241.8 329.7 250.7 333 255.2C334.2 256.8 335.4 259.9 335.7 261.9C336.1 265.1 335.9 265.6 333.2 266.8C331.6 267.5 329.8 269.2 329.2 270.6C327.8 273.6 327.7 279.9 329 282C330.5 284.3 331.5 282.2 331.5 276.8C331.5 273 332 271.5 333.5 270.4C335.3 269 335.5 269.3 337 274.8C338.9 281.6 342.5 288 344.6 288C346.5 288 346.4 287.3 343 280.6C340.6 275.8 340 273.5 340 268.1C340 262.7 339.4 260.3 336.9 255C333.8 248.8 333.8 248.5 334.9 242.3C335.5 238.8 337.6 231.6 339.5 226.3C341.4 221.1 343 215.7 343 214.3C343 207.2 329.1 190.5 318.2 184.4C313.8 182 312.8 180.9 311.9 177.5C311.2 174.9 309.3 172 306.4 169.4C303.3 166.4 302 164.5 302 162.5C302 160.6 300.8 158.6 298.4 156.4C296.5 154.5 294.4 153 293.9 153C293.4 153 293 152.5 293 151.9C293 150.2 316.8 151.1 320.5 153C324.4 155 327.3 160.4 331.1 172.3C333.3 179.6 335 183.2 337.7 186.1C341.7 190.5 345.8 193 349 193C352.1 193 351.4 190.2 348.1 189.5C346.5 189.2 344.2 187.8 343 186.4V186.4C342.136 185.498 342.775 184 344.024 184H344.7C349.8 184 352 183.2 352 181.4C352 180.3 350.3 180 344.6 180V180C340.194 180 336.297 177.145 334.968 172.945L334.1 170.2C329.9 157.2 327.4 153 322 150C317.7 147.6 316.8 147.5 301.8 147.6C293.1 147.7 286 147.4 286 147.1C286 146.7 286.7 145.5 287.5 144.3C288.5 142.8 291.9 141.5 300 139.5C306.1 138 311.7 136.1 312.5 135.4C313.8 134.1 317.6 123.2 321.9 108.3C324.4 99.7 327.6 96.5 332.4 97.7C337.1 98.8 342.3 98.6 342.7 97.3C343 96.5 341.6 96 338.8 95.8L338.027 95.7461C336.993 95.6739 336.691 94.2983 337.6 93.8V93.8C340.4 92.2 344 86.8 344 84.1C344 81.7 341 83.2 339.5 86.4C338.2 89.1 336.5 90.4 331.5 92.5C328 94 324.1 96.3 322.9 97.6C321.7 98.9 319.4 104.7 317.4 111.4C315.5 117.7 313.1 125.3 312 128.3V128.3C310.749 131.616 307.939 134.098 304.494 134.931L300.9 135.8C295.8 137 291.5 137.9 291.3 137.7C291.1 137.5 291.4 136.1 292 134.6C293.6 130.4 293.2 121.8 291.3 119C288.7 114.9 284.8 110.9 280.5 107.8C277.1 105.3 276.5 104.3 276.4 101C276.4 96.8 274 93.4 270.2 91.9C266 90.3 269.5 87.3 284 80C291.8 76.1 298.4 72.1 299 71C300.9 67.4 298.9 60.1 294.4 54.7C293.1 53.1 292 51.4 292 50.9C292 49.4 299 46.4 312.7 42.1C325.1 38.2 326.3 37.6 332 32.4C337.6 27.1 339.1 24.8 337.3 23.7C336.8 23.4 333.7 25.8 330.3 29ZM252.8 78.3C253.4 79 253.7 80.5 253.4 81.6C253.1 82.9 253.8 84 255.8 85.1C259.4 87.1 262.9 94.1 263.7 100.8V100.8C264.058 103.844 266.307 106.342 269.3 107V107C275.6 108.3 279.6 110.8 284.8 116.4C291.3 123.5 291.5 128.4 286 139.8C282.5 146.7 280.4 148.5 274.5 149.6C271.4 150.1 268.9 151.8 263.4 157.2C252.2 168 248.2 168 236.6 157C232.6 153.1 228.5 150 227.6 150C221.1 150 214.4 142.7 211.4 132.2C210.2 128 210.1 126.3 211 123.5C213.4 116.1 222 109 231.1 106.8C236.3 105.6 236.5 105.3 236.8 102C237.3 95.5 240 89.2 243.6 86.1C245.7 84.2 247 82.1 247 80.7C247 79.9487 247.1 79.164 247.262 78.5776C247.438 77.9389 247.922 77.4102 248.552 77.2041C249.893 76.765 251.921 77.1813 252.8 78.3ZM265.8 84.6C268.6 85.4 268.7 88.6 265.8 89.6C264.3 90 263.3 89.7 262.3 88.4C259.6 84.7 260.8 83.3 265.8 84.6ZM238 86.5C238 87.4 237.3 88.3 236.4 88.7C234.6 89.4 232.5 87.6 233.4 86.1C234.5 84.4 238 84.8 238 86.5ZM234 95.4C234 99.9 232.6 102.9 230.2 103.5C225.9 104.6 224.7 100.9 228.1 96.6C230.3 93.8 234 93.1 234 95.4ZM271 95.8C272.3 96.9 273.3 98.7 273.3 100.4C273.3 103.9 272.8 104.2 269.6 103.4C267.8 103 267 102.1 267 100.6C267 99.5 266.7 97.5 266.4 96.2C265.6 93.4 267.8 93.2 271 95.8ZM234 159.3C248.1 172.3 252.4 172.4 265.3 160.2C273.8 152.2 277.7 150.9 285.7 153.6C295.3 156.9 299.7 160.3 298.7 164C298.3 165.6 299.5 167.5 303.7 171.6C308.9 176.9 309.2 177.4 308.6 181C308.1 184.2 308.5 185.6 310.5 188.6C314.3 194.3 315.5 199.6 314 205.3C313.1 209 313.1 210.4 314 211.5C316 213.9 314.8 224.4 312.2 228C311 229.6 310 232.2 310 233.8C310 237.3 305.8 245.6 302.4 248.8C299.6 251.5 299.7 251.2 301.1 254.4C303.5 259.6 297.9 266.7 287.4 271.9C264.4 283.3 229.4 282.5 210.3 270.1C202.6 265.1 199.5 260.4 200.4 254.8C201 251.1 200.7 250.4 197.1 246.5C194.5 243.6 192.5 240.2 191.5 236.5C190.6 233.4 189.2 230.6 188.5 230.4C187.8 230.1 186.5 228.1 185.5 226C183.5 221.6 183.8 216.1 186.4 211C187.5 208.7 187.7 207.3 187 206C185.3 202.8 185.9 198.1 188.6 192.7C190.1 189.8 191.7 187.2 192.2 186.9C192.7 186.6 192.8 184.5 192.4 182.2C191.8 178.6 192.2 177.4 194.3 174.2C195.8 172.2 198.3 169.6 200 168.6C202.3 167.3 202.9 166.3 202.5 164.9C201.5 161.7 202.8 159.5 207.2 157C213.3 153.6 219 152.1 223.5 152.7C226.6 153.2 229 154.7 234 159.3ZM264 284C264 284.3 262.2 286.3 260.1 288.4C257.1 291.3 255.2 292.3 251.8 292.7C247.9 293.2 247 292.8 242.3 288.9C239.4 286.6 237 284.4 237 284C237 283.7 243.1 283.4 250.5 283.4C257.9 283.3 264 283.6 264 284Z" fill="black"/>
<path d="M234 159.3C248.1 172.3 252.4 172.4 265.3 160.2C273.8 152.2 277.7 150.9 285.7 153.6C295.3 156.9 299.7 160.3 298.7 164C298.3 165.6 299.5 167.5 303.7 171.6C308.9 176.9 309.2 177.4 308.6 181C308.1 184.2 308.5 185.6 310.5 188.6C314.3 194.3 315.5 199.6 314 205.3C313.1 209 313.1 210.4 314 211.5C316 213.9 314.8 224.4 312.2 228C311 229.6 310 232.2 310 233.8C310 237.3 305.8 245.6 302.4 248.8C299.6 251.5 299.7 251.2 301.1 254.4C303.5 259.6 297.9 266.7 287.4 271.9C264.4 283.3 229.4 282.5 210.3 270.1C202.6 265.1 199.5 260.4 200.4 254.8C201 251.1 200.7 250.4 197.1 246.5C194.5 243.6 192.5 240.2 191.5 236.5C190.6 233.4 189.2 230.6 188.5 230.4C187.8 230.1 186.5 228.1 185.5 226C183.5 221.6 183.8 216.1 186.4 211C187.5 208.7 187.7 207.3 187 206C185.3 202.8 185.9 198.1 188.6 192.7C190.1 189.8 191.7 187.2 192.2 186.9C192.7 186.6 192.8 184.5 192.4 182.2C191.8 178.6 192.2 177.4 194.3 174.2C195.8 172.2 198.3 169.6 200 168.6C202.3 167.3 202.9 166.3 202.5 164.9C201.5 161.7 202.8 159.5 207.2 157C213.3 153.6 219 152.1 223.5 152.7C226.6 153.2 229 154.7 234 159.3Z" fill="black"/>
<path d="M252.8 78.3C253.4 79 253.7 80.5 253.4 81.6C253.1 82.9 253.8 84 255.8 85.1C259.4 87.1 262.9 94.1 263.7 100.8V100.8C264.058 103.844 266.307 106.342 269.3 107V107C275.6 108.3 279.6 110.8 284.8 116.4C291.3 123.5 291.5 128.4 286 139.8C282.5 146.7 280.4 148.5 274.5 149.6C271.4 150.1 268.9 151.8 263.4 157.2C252.2 168 248.2 168 236.6 157C232.6 153.1 228.5 150 227.6 150C221.1 150 214.4 142.7 211.4 132.2C210.2 128 210.1 126.3 211 123.5C213.4 116.1 222 109 231.1 106.8C236.3 105.6 236.5 105.3 236.8 102C237.3 95.5 240 89.2 243.6 86.1C245.7 84.2 247 82.1 247 80.7C247 79.9487 247.1 79.164 247.262 78.5776C247.438 77.9389 247.922 77.4102 248.552 77.2041C249.893 76.765 251.921 77.1813 252.8 78.3Z" fill="black"/>
</svg>
