<svg width="363" height="363" viewBox="0 0 363 363" fill="none" xmlns="http://www.w3.org/2000/svg">
<path fill-rule="evenodd" clip-rule="evenodd" d="M144.978 72.351C121.804 96.582 156.978 109.309 180.755 112.035V112.109L181.071 112.072C181.122 112.077 181.172 112.083 181.221 112.089L181.264 112.094C181.304 112.099 181.344 112.104 181.384 112.109V112.035C205.165 109.309 240.337 96.582 217.162 72.351C214.524 70.0066 210.862 66.2956 206.718 62.0955L206.717 62.0954C203.95 59.2906 200.967 56.2677 197.93 53.2879C201.822 47.485 204.98 41.2215 207.33 34.641C207.609 33.8351 207.905 33.0051 208.206 32.1568L208.207 32.1545L208.213 32.1388L208.213 32.1383L208.213 32.1381C210.056 26.9546 212.141 21.0908 212.405 15.8689C212.504 13.8849 214.68 11.8502 216.888 9.785C218.641 8.14555 220.414 6.48685 221.186 4.81894C221.986 3.08994 221.292 0.602933 219.163 0.240933C207.288 -1.78454 206.813 9.31749 206.39 19.2136C206.198 23.721 206.016 27.9782 204.772 30.6309C202.828 34.7845 199.861 38.4132 196.911 42.0219C195.32 43.9667 193.735 45.9057 192.317 47.9179C188.868 44.6391 185.215 41.581 181.381 38.7619V38.3C181.334 38.3316 181.287 38.3676 181.238 38.4042C181.182 38.4462 181.125 38.489 181.068 38.5269C181.033 38.5019 180.996 38.4748 180.959 38.4471L180.957 38.4459L180.957 38.4454L180.956 38.445C180.888 38.3949 180.819 38.3434 180.752 38.3V38.7619C176.919 41.582 173.267 44.64 169.817 47.9179C168.398 45.903 166.811 43.9615 165.219 42.0141C162.27 38.408 159.306 34.7815 157.361 30.6309C156.118 27.9782 155.937 23.7209 155.745 19.2135V19.2134C155.324 9.31727 154.852 -1.78452 142.978 0.240933C140.843 0.602933 140.148 3.08994 140.949 4.81894C141.72 6.48723 143.494 8.14632 145.247 9.78613C147.454 11.851 149.629 13.8853 149.729 15.8689C149.994 21.0947 152.081 26.9633 153.926 32.1496C154.228 33.0004 154.524 33.8328 154.805 34.641C157.156 41.2217 160.316 47.4853 164.21 53.2879C161.166 56.2737 158.177 59.3028 155.405 62.1124L155.402 62.116L155.401 62.1167C151.265 66.3081 147.612 70.0105 144.978 72.351ZM289.967 92.433C268.712 97.747 234.867 109.36 214.317 121.94C214.974 120.804 215.613 119.652 216.252 118.5L216.252 118.5L216.252 118.5L216.252 118.5L216.252 118.5L216.252 118.499C217.272 116.662 218.29 114.826 219.379 113.061C224.193 105.275 230.843 100.587 237.865 95.6375C239.628 94.3949 241.414 93.1358 243.201 91.807C252.738 84.7149 248.148 76.3007 243.608 67.9771C240.907 63.027 238.224 58.1089 238.541 53.52C238.541 53.483 238.496 53.472 238.472 53.493C233.354 58.7006 235.676 65.8325 237.985 72.925C240.594 80.9393 243.186 88.9033 235.011 93.984C232.373 95.624 229.778 96.6781 227.283 97.6914C222.676 99.5631 218.41 101.296 214.847 106.325C212.867 109.117 210.835 112.051 208.866 115.07C200.023 119.291 189.044 120.744 181.066 121.159C173.092 120.744 162.115 119.291 153.273 115.07C151.305 112.051 149.268 109.117 147.29 106.325C143.721 101.295 139.457 99.5627 134.85 97.6908C132.356 96.6777 129.762 95.6237 127.124 93.984C118.95 88.9039 121.544 80.9407 124.154 72.9271C126.464 65.8337 128.788 58.7007 123.667 53.493C123.643 53.472 123.594 53.483 123.599 53.52C123.914 58.1082 121.231 63.0256 118.531 67.9751C113.989 76.2993 109.398 84.7143 118.934 91.807C120.719 93.1343 122.503 94.392 124.264 95.6333L124.264 95.6334C131.289 100.585 137.941 105.273 142.756 113.061C143.866 114.857 144.902 116.725 145.939 118.595C146.56 119.715 147.182 120.835 147.819 121.94C127.272 109.36 93.419 97.747 72.168 92.433C55.853 88.668 -6.91502 88.668 0.619978 113.774C4.38498 127.581 38.276 140.133 50.828 142.645C69.3413 146.348 87.8526 141.257 106.363 136.166C120.639 132.241 134.914 128.315 149.189 128.423C149.132 131.9 148.997 135.355 148.837 138.778L148.386 138.807L148.385 138.807L148.385 138.807L148.384 138.807L148.383 138.807C147.292 138.877 146.264 138.944 145.428 139.049C140.479 139.672 135.586 140.603 130.69 141.535L130.69 141.535C129.103 141.837 127.517 142.139 125.928 142.43L125.355 142.535C112.788 144.836 99.9785 147.181 87.978 151.667C78.755 155.112 75.432 159.442 71.197 168.136C69.4361 171.749 67.4921 175.048 65.6078 178.245C60.2605 187.319 55.3947 195.575 56.563 207.89C56.5693 208.32 56.7288 208.735 57.0127 209.058C57.2966 209.382 57.6864 209.594 58.1124 209.656C58.5384 209.719 58.9726 209.627 59.3374 209.398C59.7021 209.17 59.9736 208.819 60.103 208.408C61.6784 204.531 63.6442 200.834 65.608 197.141C67.9298 192.774 70.2489 188.412 71.917 183.765C72.6706 181.672 73.2778 179.526 73.8846 177.382C75.1297 172.981 76.3731 168.587 78.8769 164.665C83.6559 157.178 94.8083 155.145 103.667 153.53L103.669 153.529L103.671 153.529C104.76 153.33 105.814 153.138 106.817 152.943C110.464 152.232 114.165 151.617 117.878 150.999C125.976 149.652 134.129 148.296 141.889 145.924C142.407 145.765 142.937 145.608 143.474 145.448L143.48 145.447C145.168 144.946 146.924 144.425 148.599 143.772C148.312 149.408 148.044 154.92 148.022 160.221C146.751 160.18 145.48 160.206 144.212 160.299C130.412 161.399 117.231 167.55 106.094 175.377C95.348 182.93 84.184 191.247 81.0639 204.463C79.6577 210.412 78.7891 216.432 77.9243 222.425C76.1091 235.005 74.311 247.467 67.594 258.905C67.071 259.795 68.368 260.905 69.062 260.062C75.5845 252.131 78.2713 242.492 80.9691 232.812C81.5438 230.75 82.119 228.686 82.7319 226.637C84.8844 219.452 87.7619 212.479 90.6235 205.546C90.8475 205.003 91.0714 204.46 91.2949 203.918C91.5781 203.231 91.8729 202.487 92.1821 201.707C94.2174 196.574 96.8785 189.863 100.976 187.235C114.705 178.435 131.923 170.076 148.429 170.857C150.029 188.589 157.1 202.95 180.752 210.292V210.5C180.774 210.493 180.796 210.487 180.817 210.48L180.849 210.469L180.888 210.456C180.917 210.447 180.945 210.437 180.973 210.428L180.998 210.42C181.021 210.413 181.044 210.406 181.068 210.4C181.11 210.413 181.151 210.427 181.191 210.44L181.191 210.44L181.192 210.441L181.192 210.441L181.193 210.441C181.255 210.462 181.316 210.483 181.381 210.5V210.292C205.034 202.95 212.105 188.592 213.705 170.857C230.211 170.076 247.431 178.436 261.158 187.235C265.253 189.861 267.911 196.563 269.947 201.694C270.258 202.479 270.555 203.227 270.84 203.918C271.066 204.467 271.293 205.017 271.52 205.567C274.378 212.493 277.252 219.459 279.402 226.637C280.018 228.695 280.596 230.766 281.174 232.836C283.871 242.506 286.557 252.134 293.074 260.062C293.769 260.904 295.065 259.795 294.54 258.905C287.825 247.468 286.026 235.007 284.21 222.427L284.21 222.427L284.21 222.427L284.21 222.426L284.21 222.426L284.21 222.425C283.344 216.432 282.475 210.412 281.069 204.463C277.95 191.247 266.787 182.93 256.043 175.377C244.907 167.55 231.721 161.396 217.92 160.299C216.654 160.206 215.384 160.18 214.115 160.221C214.093 154.921 213.822 149.408 213.534 143.772C215.221 144.426 216.977 144.948 218.667 145.45L218.667 145.45L218.67 145.451L218.676 145.453L218.686 145.456L218.688 145.457L218.694 145.458C219.219 145.614 219.737 145.768 220.245 145.924C228.004 148.295 236.156 149.651 244.251 150.998C247.966 151.616 251.669 152.232 255.317 152.943C256.322 153.139 257.377 153.331 258.467 153.53C267.326 155.145 278.478 157.178 283.258 164.665C285.762 168.588 287.007 172.986 288.253 177.39C288.859 179.532 289.465 181.674 290.217 183.765C291.886 188.408 294.203 192.766 296.522 197.129L296.522 197.129C298.487 200.826 300.454 204.527 302.031 208.408C302.161 208.818 302.433 209.169 302.797 209.397C303.162 209.625 303.596 209.716 304.022 209.654C304.447 209.592 304.837 209.38 305.121 209.057C305.405 208.734 305.565 208.32 305.572 207.89C306.739 195.581 301.874 187.324 296.529 178.251L296.529 178.25C294.645 175.051 292.701 171.751 290.94 168.136C286.703 159.442 283.382 155.112 274.156 151.667C262.178 147.19 249.395 144.847 236.854 142.548L236.209 142.43C234.603 142.136 233 141.831 231.398 141.526L231.397 141.526C226.515 140.597 221.64 139.67 216.709 139.049C215.871 138.943 214.841 138.877 213.747 138.807L213.298 138.778C213.142 135.355 213.005 131.9 212.945 128.423C227.223 128.315 241.501 132.241 255.778 136.167C274.288 141.257 292.798 146.347 311.308 142.645C323.858 140.133 357.75 127.581 361.516 113.774C369.05 88.668 306.286 88.668 289.967 92.433ZM244.232 201.867C244.395 202.173 244.482 202.514 244.483 202.861C244.486 202.954 244.479 203.046 244.471 203.139L244.471 203.141L244.469 203.174L244.466 203.216C244.464 203.234 244.463 203.252 244.462 203.27C244.46 203.306 244.459 203.342 244.459 203.378C243.569 202.469 242.6 201.64 241.565 200.901C241.887 200.771 242.235 200.722 242.58 200.758C242.925 200.794 243.256 200.914 243.544 201.107C243.832 201.301 244.068 201.561 244.232 201.867ZM207.057 246.087C198.966 249.709 190.244 251.71 181.384 251.979V252.008C172.31 251.813 163.366 249.8 155.084 246.087C145.1 241.606 132.559 233.217 124.821 222.776C122.226 230.026 120.505 237.561 119.696 245.219C131.612 253.961 144.296 261.491 158.439 266.343C165.867 268.833 173.572 270.403 181.382 271.018V270.95C188.978 270.311 196.47 268.764 203.698 266.343C217.842 261.491 230.526 253.961 242.44 245.219C241.632 237.56 239.912 230.026 237.316 222.776C229.582 233.218 217.037 241.607 207.057 246.087ZM243.104 254.836C226.436 269.472 203.545 279.178 181.384 279.936V279.967C159.028 279.377 135.859 269.611 119.036 254.838C118.817 262.384 119.328 269.934 120.564 277.382C124.222 279.071 127.914 280.854 131.631 282.649L131.632 282.649C147.955 290.531 164.771 298.651 181.384 300.145V300.071C197.806 298.431 214.418 290.415 230.55 282.63C234.256 280.842 237.937 279.066 241.584 277.382C242.816 269.933 243.325 262.383 243.104 254.836ZM181.384 337.638C169.148 336.9 157.162 333.846 146.065 328.638C156.306 340.838 168.357 351.519 180.755 361.963V362.493L181.071 362.229C181.131 362.277 181.189 362.327 181.246 362.376L181.292 362.414L181.305 362.425L181.314 362.433L181.384 362.493V361.963C193.784 351.519 205.835 340.837 216.084 328.638C205.174 333.751 193.406 336.785 181.384 337.584V337.638ZM181.384 307.682V307.652C186.824 307.496 192.24 306.857 197.567 305.741C211.835 302.778 225.585 297.715 238.367 290.718C237.646 292.934 236.863 295.053 235.996 297.045C233.142 303.579 229.708 309.845 225.736 315.767C216.232 321 206.042 324.875 195.462 327.279C190.823 328.237 186.119 328.841 181.389 329.087V329.128C176.448 328.897 171.533 328.278 166.689 327.278C156.109 324.875 145.919 320.999 136.415 315.766C132.443 309.844 129.01 303.578 126.156 297.044C125.29 295.052 124.505 292.933 123.784 290.717C136.566 297.714 150.316 302.777 164.584 305.74C170.112 306.904 175.736 307.554 181.384 307.682ZM257.882 238.074C258.559 237.046 259.212 236.008 259.824 234.957C260.684 233.486 258.724 232.331 257.568 233.3C257.421 233.423 257.274 233.543 257.126 233.667C257.321 234.7 257.511 235.717 257.676 236.68C257.725 236.956 257.763 237.233 257.801 237.51L257.801 237.511L257.801 237.513C257.827 237.7 257.853 237.887 257.882 238.074ZM260.815 269.685C261.9 269.345 262.416 270.647 261.841 271.406C261.77 271.501 261.695 271.594 261.618 271.687C261.564 271.751 261.51 271.815 261.455 271.879C261.348 272.005 261.242 272.131 261.141 272.26C261.091 271.896 261.043 271.532 260.995 271.168C260.969 270.969 260.943 270.769 260.916 270.57L260.88 270.299C260.852 270.096 260.824 269.893 260.796 269.69L260.815 269.685ZM263.533 291.885C264.371 299.58 265.101 307.29 265.723 315.013C265.817 316.189 265.775 317.566 265.731 318.987V318.987V318.988V318.988V318.989C265.656 321.435 265.576 324.009 266.185 325.902C266.205 325.968 266.11 326.001 266.075 325.946C262.752 321.043 262.123 313.731 261.577 307.367V307.367C261.444 305.825 261.316 304.338 261.156 302.955C260.76 299.548 260.4 296.107 260.039 292.65L260.038 292.649L260.038 292.647L260.038 292.645L260.038 292.644C259.451 287.035 258.861 281.386 258.104 275.776C257.881 274.122 257.64 272.472 257.379 270.826C256.579 265.487 255.487 260.197 254.107 254.978C253.477 252.661 252.84 250.242 252.19 247.776C252.047 247.233 251.903 246.688 251.759 246.142C251.181 243.948 250.581 241.736 249.959 239.505C247.678 231.358 244.978 223.158 241.378 216.147C241.245 215.894 241.118 215.635 240.992 215.376C240.825 215.034 240.658 214.693 240.478 214.369C238.192 210.243 236.362 208.326 234.662 207.776C233.219 207.305 231.871 207.823 230.425 208.876C230.981 209.708 231.508 210.566 232.025 211.435C229.845 214.799 227.489 218.046 224.967 221.163C219.45 227.599 212.438 232.365 204.967 236.231C197.526 240.081 189.537 241.799 181.389 242.743V242.823C173.026 241.892 164.815 240.181 157.181 236.231C149.713 232.363 142.7 227.599 137.181 221.163C134.66 218.047 132.306 214.8 130.129 211.435C130.643 210.566 131.168 209.708 131.721 208.876C130.277 207.827 128.927 207.309 127.484 207.776C125.788 208.326 123.954 210.243 121.668 214.369C121.475 214.71 121.299 215.071 121.124 215.431L121.124 215.432L121.124 215.432L121.124 215.432C121.007 215.672 120.89 215.912 120.768 216.147C117.169 223.158 114.471 231.358 112.187 239.505C111.566 241.737 110.966 243.949 110.387 246.142C110.211 246.807 110.037 247.468 109.864 248.126L109.863 248.13C109.244 250.475 108.639 252.771 108.041 254.978C106.661 260.197 105.569 265.487 104.77 270.826C104.507 272.472 104.265 274.122 104.044 275.776C103.283 281.408 102.69 287.078 102.101 292.708L102.101 292.708L102.101 292.709L102.101 292.709L102.101 292.709C101.742 296.146 101.384 299.567 100.991 302.955C100.831 304.339 100.703 305.827 100.57 307.37L100.57 307.371L100.57 307.372L100.57 307.372L100.57 307.373C100.023 313.735 99.3941 321.042 96.074 325.946C96.036 326.002 95.9441 325.968 95.968 325.902C96.5649 324.014 96.4844 321.443 96.4078 318.999C96.3631 317.574 96.3198 316.192 96.413 315.013C97.029 307.299 97.7586 299.59 98.602 291.885C99.3166 285.33 100.117 278.789 101.002 272.26C101.043 271.952 101.084 271.644 101.125 271.336L101.125 271.335C101.198 270.786 101.27 270.237 101.346 269.69C101.402 269.282 101.455 268.872 101.508 268.462L101.508 268.461C101.589 267.838 101.669 267.213 101.761 266.59C102.441 261.946 102.708 257.252 102.974 252.565L102.975 252.565L102.975 252.564C103.251 247.708 103.526 242.858 104.261 238.075C104.272 237.998 104.283 237.921 104.293 237.844C104.282 237.921 104.271 237.997 104.259 238.074C103.581 237.046 102.93 236.008 102.316 234.957C101.456 233.486 103.422 232.331 104.572 233.3C104.662 233.377 104.755 233.453 104.849 233.53C104.903 233.575 104.958 233.619 105.013 233.665C106.923 223.634 110.353 210.778 117.679 203.379L117.682 203.376C117.682 203.297 117.675 203.217 117.669 203.139V203.138C117.662 203.046 117.654 202.953 117.657 202.861C117.659 202.514 117.745 202.173 117.909 201.867C118.073 201.562 118.309 201.301 118.597 201.108C118.884 200.914 119.215 200.794 119.56 200.758C119.905 200.722 120.253 200.771 120.574 200.9C120.63 200.861 120.683 200.818 120.736 200.775C120.794 200.728 120.852 200.682 120.913 200.639C125.842 197.291 132.103 198.661 137.042 202.101C139.406 199.546 142.069 197.285 144.975 195.369C156.785 209.538 166.387 215.929 181.068 220.817C195.747 215.929 205.348 209.538 217.159 195.369C220.066 197.285 222.731 199.546 225.096 202.101C230.031 198.661 236.294 197.291 241.221 200.639C241.283 200.681 241.34 200.728 241.397 200.774L241.398 200.775C241.451 200.818 241.505 200.861 241.562 200.902C242.598 201.641 243.566 202.47 244.456 203.379C251.782 210.781 255.212 223.637 257.123 233.668C257.318 234.701 257.508 235.718 257.673 236.681C257.722 236.958 257.76 237.236 257.799 237.514L257.799 237.516L257.799 237.517L257.799 237.518C257.825 237.704 257.85 237.89 257.879 238.075C258.614 242.857 258.89 247.708 259.166 252.564C259.432 257.252 259.699 261.946 260.379 266.59C260.46 267.149 260.533 267.71 260.605 268.27C260.666 268.744 260.728 269.218 260.794 269.69C260.863 270.182 260.928 270.675 260.993 271.168C261.015 271.337 261.038 271.506 261.06 271.675L261.092 271.91C261.107 272.027 261.123 272.143 261.139 272.26C262.021 278.792 262.819 285.334 263.533 291.885ZM104.459 236.68C104.446 236.757 104.434 236.835 104.423 236.912C104.43 236.867 104.437 236.822 104.445 236.777C104.45 236.745 104.455 236.713 104.461 236.681C104.483 236.553 104.505 236.424 104.528 236.295C104.504 236.424 104.482 236.552 104.459 236.68ZM100.298 271.408C99.723 270.649 100.24 269.347 101.323 269.687C101.325 269.688 101.328 269.689 101.33 269.69C101.334 269.691 101.338 269.691 101.342 269.692C101.266 270.241 101.193 270.79 101.121 271.341C101.08 271.648 101.039 271.955 100.998 272.262C100.898 272.134 100.792 272.009 100.686 271.884C100.553 271.727 100.42 271.57 100.298 271.408Z" fill="#6C0042"/>
</svg>
