<svg width="280" height="247" viewBox="0 0 280 247" fill="none" xmlns="http://www.w3.org/2000/svg">
<path d="M277.949 217.715C275.084 200.696 266.023 187.955 256.968 173.584C239.268 145.493 219.544 116.675 190.668 99.0449C184.225 95.1176 177.292 92.0579 170.049 89.9449C169.983 89.8039 169.918 89.6599 169.849 89.5199C177.239 89.6069 184.663 89.3839 192.036 89.4939C196.497 89.5559 200.98 89.2689 205.424 89.7499C207.893 90.0219 210.264 89.9949 212.724 90.4619C215.418 90.9739 217.617 92.6869 220.3 93.3459C220.796 93.4758 221.315 93.4911 221.818 93.3905C222.32 93.2899 222.793 93.0761 223.201 92.7653C223.609 92.4546 223.94 92.055 224.171 91.597C224.401 91.139 224.524 90.6345 224.53 90.1219C224.506 89.4219 224.519 88.7349 224.53 88.0399C226.277 86.0213 227.517 83.615 228.147 81.0209C228.559 79.3319 229.077 77.2669 229.434 75.1609C234.534 69.5389 234.321 60.2669 232.366 52.8149C232.608 52.7669 232.85 52.7319 233.096 52.6749C233.721 52.5101 234.29 52.1827 234.747 51.7259C235.204 51.2692 235.531 50.6995 235.696 50.0749C235.836 49.3509 239.806 47.3749 241.49 46.4749C244.621 45.5258 247.949 45.4339 251.127 46.2089C254.82 47.0869 257.654 49.8379 261.264 50.6879C262.004 50.8579 262.789 50.0399 262.307 49.3309C260.631 46.8549 257.615 44.9469 254.199 43.8379C254.72 43.7899 255.242 43.7379 255.767 43.7209C258.367 43.6379 260.797 44.0589 263.386 43.7929C263.496 43.7905 263.603 43.7562 263.693 43.6942C263.784 43.6323 263.855 43.5453 263.897 43.4439C263.94 43.3425 263.952 43.231 263.932 43.1229C263.912 43.0148 263.861 42.9148 263.786 42.8349C259.968 38.8469 251.941 38.9349 247.36 41.8899C247.26 41.9079 247.181 41.9179 247.08 41.9379C244.613 42.4509 245.03 43.1539 242.445 43.0379C241.507 43.0252 240.575 43.1971 239.703 43.5439C239.091 43.7439 234.075 45.9439 233.988 45.8739C232.288 44.6259 230.279 45.9489 228.588 46.4029C225.281 47.2869 225.453 52.2269 228.34 53.0899C228.385 55.7449 228.37 58.3759 228.184 61.1009C227.984 64.1559 227.253 67.1569 226.819 70.1819C225.99 72.7759 225.628 75.6909 224.483 78.1289C223.621 79.9038 222.57 81.5802 221.348 83.1289C220.552 83.0904 219.766 83.3177 219.114 83.7749C213.582 80.9479 205.899 81.8429 200.291 83.5749C189.691 86.8449 178.913 85.4909 168.125 86.4829C166.864 84.552 165.489 82.6984 164.007 80.9319C163.807 80.6869 163.601 80.4599 163.396 80.2319C167.643 78.1199 171.819 75.8689 176.064 73.7489C178.164 72.6979 183.13 70.9259 187.001 68.6259C189.652 68.9499 192.008 68.4029 194.992 67.4749C195.69 67.2652 196.313 66.858 196.785 66.3024C197.257 65.7469 197.559 65.0667 197.653 64.3438C197.748 63.6209 197.631 62.886 197.318 62.2278C197.004 61.5696 196.507 61.0161 195.886 60.6339C194.662 59.8314 193.562 58.8544 192.62 57.7339C192.68 56.2403 192.602 54.7444 192.389 53.2649C191.678 49.4759 190.481 45.3649 190.234 41.5269C189.896 36.2799 187.861 30.5969 189.486 25.4529C190.579 21.9929 193.833 20.3049 195.463 17.2779C195.485 17.2339 195.515 17.1969 195.537 17.1559C196.052 16.8779 196.591 16.4959 197.256 16.0559C200.031 14.2079 201.946 11.3559 204.279 8.90792C205.037 8.28413 205.757 7.61631 206.436 6.90792C207.922 5.31492 205.452 2.89891 204.065 4.53591C202.002 6.77476 199.665 8.74373 197.108 10.3959C197.971 7.65429 198.557 4.83275 198.855 1.97393C199.082 -0.413071 195.505 -0.679061 194.839 1.42794C193.524 5.61694 193.118 9.97894 191.066 13.9279C190.868 14.3005 190.77 14.7174 190.78 15.1389C189.033 16.3848 187.563 17.9793 186.463 19.8219C184.803 20.811 182.982 21.4996 181.083 21.8559C180.51 22.0134 180.005 22.3549 179.645 22.8278C179.285 23.3007 179.091 23.8787 179.092 24.4729C178.949 30.0393 179.909 35.5789 181.916 40.7729C182.22 43.9773 182.744 47.1572 183.483 50.2899C184.268 53.8589 186.037 57.2309 187.083 60.7009C186.837 60.9903 186.665 61.3358 186.583 61.7069C186.6 61.6309 179.899 65.1499 178.983 65.6679C175.165 67.8279 171.26 69.8349 167.419 71.9549C164.747 73.259 162.225 74.8483 159.895 76.6949C155.095 72.3299 150.388 69.1349 149.237 61.3949C149.202 61.1442 149.121 60.9023 148.996 60.6819C155.491 61.8619 162.709 59.0819 165.488 52.2129C168.549 44.6399 162.72 35.9969 155.237 34.4459C152.485 33.9323 149.649 34.1166 146.987 34.9819C147.952 33.6846 148.618 32.1899 148.938 30.6049C149.149 29.0349 147.738 27.5569 146.15 28.4619C144.341 29.6946 142.813 31.2964 141.667 33.1619C141.067 34.0199 140.45 34.8679 139.896 35.7619C139.879 35.7879 139.874 35.8119 139.857 35.8379C139.289 34.9259 138.678 34.0469 138.057 33.1649C136.91 31.3 135.383 29.6984 133.574 28.4649C131.986 27.5649 130.574 29.0379 130.789 30.6079C131.115 32.2206 131.795 33.7404 132.782 35.0569C130.412 34.3044 127.91 34.0544 125.438 34.3229C117.065 35.3299 112.21 43.5759 114.031 51.5529C114.395 52.9569 115.027 54.277 115.894 55.4399C116.335 56.0534 116.822 56.6327 117.351 57.1729C117.685 57.4934 118.076 57.7479 118.505 57.9229C118.653 58.0707 118.816 58.2025 118.992 58.3159C121.651 60.5309 125.333 61.3239 128.72 61.2649C129.336 61.2503 129.951 61.1949 130.56 61.0989C130.534 61.1989 130.503 61.2899 130.485 61.3989C129.336 69.1389 124.842 72.2579 119.871 76.7419C117.543 74.6589 114.223 73.0499 112.305 71.9609C109.123 70.1609 105.873 68.4709 102.655 66.7299C101.414 66.0559 93.2029 62.0049 93.1439 61.7129C93.0659 61.3551 92.9053 61.0206 92.6749 60.7359C93.5389 58.0999 94.9329 55.4749 95.6149 52.8359C96.6498 49.1378 97.3625 45.357 97.7449 41.5359C97.7569 41.3569 97.7569 41.1859 97.7689 41.0049C99.7949 35.7385 100.769 30.1261 100.637 24.4849C100.637 23.8896 100.441 23.3109 100.08 22.8379C99.7185 22.3649 99.2114 22.024 98.637 21.8679C96.7194 21.5056 94.8806 20.8083 93.205 19.8079C91.9899 18.1379 90.5893 16.6111 89.03 15.2569C89.002 15.2339 88.9689 15.2129 88.9399 15.1879C88.958 14.7544 88.8611 14.3239 88.6589 13.9399C86.6059 9.98693 86.1989 5.62493 84.8829 1.43993C84.2199 -0.667068 80.64 -0.401078 80.869 1.98592C81.1667 4.84494 81.7523 7.66658 82.617 10.4079C80.0594 8.75593 77.7212 6.78698 75.658 4.54793C74.271 2.91093 71.8009 5.32691 73.2869 6.91991C74.3869 8.09691 75.542 9.21493 76.718 10.3139C78.524 12.3909 80.21 14.5639 82.468 16.0669C82.994 16.4179 83.4409 16.7269 83.8599 16.9809C85.899 18.957 87.7201 21.1462 89.2919 23.5109C92.2919 28.1649 90.426 35.3229 89.637 40.4439C89.104 43.8709 88.432 47.2809 87.817 50.6969C87.5071 52.9701 87.3278 55.2592 87.28 57.5529C86.2953 58.7519 85.134 59.7942 83.8359 60.6439C83.2155 61.0264 82.7187 61.58 82.4055 62.2381C82.0922 62.8962 81.9757 63.6309 82.0702 64.3536C82.1646 65.0763 82.4659 65.7564 82.9378 66.3119C83.4097 66.8674 84.032 67.2748 84.7299 67.4849C87.7159 68.4129 90.073 68.9599 92.721 68.6359C96.593 70.9359 101.556 72.7079 103.661 73.7589C107.48 75.6679 111.217 77.7529 115.061 79.6009C115.474 79.8009 115.883 80.0189 116.293 80.2459C114.475 82.1887 112.851 84.3032 111.442 86.5599C101.442 85.8879 91.009 87.5459 81.476 84.3599C75.337 82.3029 66.6529 80.5599 60.5449 83.7469C59.9445 83.3421 59.2361 83.1278 58.512 83.1319C57.328 81.5313 56.2355 79.865 55.2399 78.1409C53.9179 75.8549 53.6399 73.1349 52.9689 70.6259C52.6769 68.3819 52.212 66.1469 51.906 63.9099C51.4519 60.3262 51.2754 56.7128 51.3779 53.1019C54.2689 52.2389 54.441 47.3019 51.132 46.4149C49.627 46.0149 48.232 45.0679 46.617 45.5149C44.858 45.9999 42.982 44.5639 41.15 43.9449C38.35 43.0069 35.5399 43.1829 32.8279 42.0389C31.4045 41.5361 29.859 41.4934 28.41 41.9169C28.3243 41.9423 28.2492 41.9946 28.1957 42.0662C28.1423 42.1377 28.1134 42.2246 28.1134 42.3139C28.1134 42.4032 28.1423 42.4901 28.1957 42.5617C28.2492 42.6332 28.3243 42.6856 28.41 42.7109C28.733 42.8059 29.043 42.8929 29.355 42.9799C24.464 43.6389 19.693 45.9799 17.408 49.3499C16.927 50.0589 17.708 50.8769 18.45 50.7069C22.006 49.8689 25.036 47.3349 28.587 46.2279C31.7069 45.3152 35.0321 45.385 38.111 46.4279C39.723 47.2909 43.8769 49.3469 44.0189 50.0889C44.1835 50.7136 44.5109 51.2834 44.9677 51.7402C45.4244 52.197 45.9943 52.5244 46.619 52.6889C46.863 52.7459 47.1069 52.7809 47.3519 52.8289C45.3859 60.3109 45.179 69.6289 50.345 75.2439C50.72 77.2919 51.23 79.3069 51.57 81.0349C52.1331 83.6605 53.3802 86.0906 55.1849 88.0789C55.1999 88.7609 55.2129 89.4459 55.1849 90.1359C55.1909 90.6487 55.3137 91.1534 55.544 91.6116C55.7742 92.0698 56.1059 92.4695 56.5138 92.7803C56.9217 93.0911 57.395 93.3049 57.8979 93.4053C58.4008 93.5057 58.92 93.4902 59.416 93.3599C63.916 92.2519 67.33 90.2249 72.143 89.8679C76.543 89.5379 80.9359 89.8259 85.3079 89.5009C93.4489 88.8959 101.673 89.4299 109.858 89.4649C109.777 89.6299 109.705 89.7959 109.631 89.9649C80.6759 98.4449 58.648 122.317 41.231 146.036C30.549 160.582 20.9199 176.036 11.3779 191.344C3.84294 203.421 1.02496 217.106 0.0369649 231.155C-1.69104 255.774 41.0849 244.335 53.7369 240.5C61.2755 238.175 68.4116 234.704 74.895 230.209C74.9873 230.336 75.1209 230.427 75.273 230.466C75.425 230.505 75.5859 230.49 75.728 230.423C78.3751 229.107 80.6118 227.093 82.1959 224.597C95.1578 213.423 104.774 198.881 109.981 182.579C110.729 184.594 111.562 186.569 112.444 188.479C116.322 196.869 122.28 204.497 127.644 211.979C130.504 216.007 133.115 220.207 135.462 224.554C136.119 225.768 136.691 227.026 137.177 228.319C137.766 229.847 138.259 231.4 138.7 232.973C139.131 234.523 139.526 236.085 139.932 237.642C140.344 236.35 140.756 235.077 141.18 233.815C141.736 232.158 142.31 230.52 142.921 228.903C144.836 223.619 147.415 218.601 150.597 213.969C156.009 206.223 161.849 198.69 166.325 190.345C167.733 187.707 168.933 184.964 169.913 182.139C174.786 198.22 184.117 212.59 196.824 223.585C198.481 226.52 200.969 228.901 203.974 230.427C204.065 230.474 204.167 230.498 204.269 230.498C204.372 230.498 204.473 230.473 204.565 230.426C204.656 230.379 204.734 230.31 204.794 230.226C204.853 230.142 204.892 230.046 204.906 229.944C214.973 236.921 226.065 240.992 238.025 243.644C248.351 245.93 263.025 249.067 272.876 243.658C282.931 238.111 279.582 227.413 277.949 217.715ZM110.831 113.051C110.968 113.488 111.101 113.918 111.231 114.351C109.044 121.425 108.501 129.263 106.625 136.385C104.305 144.964 100.567 153.095 95.5649 160.442C90.5129 167.968 83.5219 173.527 76.8179 179.477C73.2969 182.601 69.98 186.259 68.16 190.543C69.36 184.438 69.881 178.299 70.509 172.051C71.1499 164.909 72.726 157.882 75.197 151.151C75.38 150.876 75.5679 150.608 75.7529 150.332C75.7867 150.277 75.8039 150.214 75.8025 150.15C75.8011 150.086 75.7811 150.024 75.7449 149.971C89.5529 136.405 102.238 118.78 107.761 100.383C108.086 104.707 109.511 108.888 110.831 113.051ZM43.643 152.251C60.167 128.824 79.8429 108.634 105.243 96.1869C100.627 106.332 96.2579 116.221 89.9639 125.631C82.1324 137.191 72.6632 147.552 61.853 156.39C51.853 164.663 36.9529 170.648 25.5029 179.29C31.3589 170.133 37.421 161.08 43.647 152.251H43.643ZM5.43095 232.51C5.69051 219.011 9.41462 205.806 16.2459 194.161C16.7239 193.369 17.2229 192.584 17.7059 191.79C19.1582 190.068 20.7251 188.446 22.3959 186.935C26.9179 182.888 32.548 180.122 37.796 177.157C46.5735 172.391 55.0059 167.014 63.031 161.068C55.341 170.068 49.338 180.886 43.806 190.878C34.831 207.078 27.4229 224.172 19.3829 240.852C12.0309 240.872 5.27395 239.141 5.43095 232.51ZM35.421 238.96C33.115 239.401 29.23 240.136 25.006 240.55C32.727 225.705 39.3059 210.27 46.7139 195.268C51.9279 184.71 58.3539 175.28 64.9639 165.868C64.0059 172.387 63.8799 179.121 63.3209 184.68C62.2549 195.327 58.688 206.12 55.346 216.234C53.186 222.756 49.6269 229.321 47.7299 236.059C43.7209 237.221 39.613 238.158 35.423 238.96H35.421ZM81.5579 214.242C81.0485 215.577 80.4718 216.886 79.83 218.163C76.5348 221.171 73.0138 223.921 69.298 226.39C64.1504 229.757 58.6016 232.468 52.781 234.457C54.7621 230.475 56.5335 226.393 58.088 222.226C61.5085 213.813 64.4067 205.196 66.7659 196.426C66.7549 196.626 66.733 196.826 66.729 197.031C66.7299 197.079 66.7449 197.126 66.7722 197.166C66.7995 197.206 66.8379 197.237 66.8826 197.256C66.9274 197.274 66.9766 197.279 67.0241 197.27C67.0716 197.261 67.1153 197.238 67.15 197.204C72.431 191.304 77.2499 185.595 83.4019 180.525C86.7206 177.818 89.8822 174.924 92.871 171.857C90.371 179.507 89.0559 187.657 87.1879 195.368C85.6891 201.766 83.8098 208.068 81.5599 214.242H81.5579ZM112.388 140.171C109.895 147.925 106.88 155.003 106.503 163.271C106.377 166.447 106.62 169.626 107.227 172.746C103.653 185.899 97.3719 198.161 88.785 208.746C89.608 205.74 90.271 202.895 90.856 200.567C93.7204 189.562 95.8194 178.371 97.1379 167.076C98.6379 165.261 100.068 163.363 101.424 161.352C106.256 154.182 109.301 146.038 111.688 137.787C112.488 135.009 113.307 132.024 113.994 128.962C114.104 132.762 113.561 136.554 112.39 140.171H112.388ZM234.864 150.551C241.564 159.805 247.737 169.425 253.869 179.072C243.016 170.988 229.218 165.238 219.594 157.772C208.632 149.136 199.004 138.93 191.022 127.483C184.037 117.61 179.4 107.024 174.478 96.1909C199.268 108.342 218.425 127.829 234.864 150.551ZM172.007 100.551C177.607 119.021 190.402 136.263 204.034 149.875C203.971 149.933 203.93 150.011 203.918 150.097C203.907 150.182 203.925 150.268 203.971 150.341C204.171 150.641 204.379 150.941 204.579 151.241C206.849 157.255 208.328 163.538 208.979 169.933C209.715 176.833 210.157 183.711 211.523 190.498C209.77 186.831 207.325 183.538 204.323 180.798C197.932 174.548 190.916 169.424 185.441 162.239C180.146 155.042 176.16 146.968 173.665 138.389C171.397 130.989 170.915 122.889 168.794 115.439C170.237 110.607 171.712 105.741 172.007 100.544V100.551ZM172.407 172.518C172.798 170.26 173.06 167.982 173.193 165.695C173.714 156.729 170.25 148.45 167.343 140.178C166.073 136.578 165.567 132.753 165.857 128.947C166.38 131.283 166.957 133.576 167.502 135.775C169.55 144.119 172.801 152.122 177.152 159.531C178.773 162.252 180.6 164.845 182.617 167.288C183.997 178.503 186.087 189.619 188.875 200.569C189.462 203.006 190.158 206.023 191.042 209.201C182.317 198.418 175.967 185.916 172.405 172.511L172.407 172.518ZM212.098 227.451C207.79 224.86 203.734 221.872 199.983 218.525C199.756 218.051 199.54 217.579 199.335 217.098C196.747 210.674 194.641 204.067 193.035 197.33C190.897 189.08 189.59 180.31 186.935 172.1C189.42 174.626 192.039 177.018 194.78 179.264C201.474 184.779 206.827 190.782 212.58 197.207C212.615 197.241 212.659 197.264 212.706 197.273C212.754 197.282 212.803 197.277 212.848 197.259C212.893 197.241 212.932 197.21 212.96 197.17C212.987 197.13 213.003 197.082 213.004 197.034C212.999 196.894 212.986 196.758 212.977 196.623C215.138 204.51 217.721 212.276 220.715 219.886C222.434 224.852 224.481 229.698 226.843 234.392C221.712 232.563 216.773 230.236 212.096 227.444L212.098 227.451ZM245.918 239.251C241.223 238.491 236.581 237.438 232.018 236.098C230.155 229.344 226.648 222.678 224.384 216.241C220.849 206.187 217.645 195.294 216.406 184.687C215.754 179.096 215.636 172.364 214.713 165.854C221.305 175.287 227.713 184.737 233.013 195.273C240.513 210.204 246.994 225.647 254.686 240.481C251.112 240.124 247.89 239.573 245.916 239.251H245.918ZM260.318 240.799C252.282 224.129 244.773 207.145 235.926 190.883C230.561 181.02 224.58 170.338 217.006 161.416C224.353 166.927 232.109 171.872 240.206 176.207C245.54 179.148 251.106 181.986 255.915 185.752C258.054 187.462 260.019 189.379 261.782 191.475C261.92 191.691 262.055 191.905 262.192 192.119C270.118 204.402 273.444 218.03 274.292 232.519C274.688 239.231 267.697 240.851 260.317 240.794L260.318 240.799Z" fill="#510D0A"/>
</svg>
