<svg width="500" height="320" viewBox="0 0 500 320" fill="none" xmlns="http://www.w3.org/2000/svg">
<path fill-rule="evenodd" clip-rule="evenodd" d="M247.179 31.4035C247.353 29.0795 247.503 27.0914 247.6 25.7C248.2 19.3 248.5 18 250 18C251.4 18 251.9 19.2 252.3 23.7C252.474 25.0948 252.687 27.0975 252.92 29.3024L252.92 29.3027V29.3029L252.921 29.31L252.921 29.3105C253.224 32.1622 253.562 35.3511 253.9 38C254.4 42.7 255.3 51.7 255.9 58C257.6 75 257.8 75.8 261.2 77.6C264.5 79.3 270 87.3 270 90.4C270 93.7 266.5 98.5 263.1 100C259.7 101.4 259.3 102.5 261.5 105.4C263.4 107.9 264.6 107.5 280.7 98.9L289.921 93.9507C292.602 92.5112 294.235 89.6745 294.133 86.6324L293.7 73.8C293.1 56.8 293.1 56 295.1 54.6C296.2 53.9 299.5 51 302.3 48.4C309.4 41.8 320.8 31.9 323 30.3C324.3 29.3 325.1 29.3 325.6 30.1C326.4 31.5 319.3 38.8 306.7 49.3L299.827 55.0506C297.976 56.5999 296.923 58.9025 296.962 61.3165L297.2 75.9L297.419 89.3362C297.469 92.3765 295.79 95.182 293.088 96.5762L281.8 102.4C273.1 106.8 266 110.9 266 111.3C266 111.8 267.4 114.2 269.1 116.6C271.4 119.9 272.6 121 273.8 120.5C274.8 120.1 281.5 118.3 288.8 116.5C322.2 108 364.3 104.8 381.5 109.4C392.3 112.2 398 117.1 398 123.6C398 129 394.5 132.7 385.5 136.9C373.2 142.7 359.3 144.1 319.2 143.9C302.5 143.8 288.7 144 288.4 144.3C287.9 144.8 295.9 157.8 299.8 163C300.8 164.4 303.7 168.6 306.1 172.5C308.5 176.3 310.8 179.6 311.2 179.8C311.6 180 312 180.6 312 181C312 181.5 314.8 186 318.2 191L323.225 198.456C323.995 199.599 325.048 200.524 326.281 201.141L337.4 206.7C344.6 210.3 354.8 214.5 360 216C378.6 221.5 381.5 222.6 381.5 224C381.5 226.1 379.5 225.8 363.5 221.1C353.1 218.1 345.9 215.2 335.5 209.8L323.361 203.557C322.141 202.93 321.103 201.999 320.346 200.854L301.8 172.8C285.1 147.7 281.6 143 279.3 142.5C277.7 142.2 273.4 141.3 269.7 140.4C265.9 139.5 262.6 139.1 262.3 139.4C262 139.7 262 141.4 262.4 143.2C262.9 146.2 268.5 154.1 292.6 186.1L293.334 187.086C295.045 189.383 295.397 192.42 294.256 195.048L291.5 201.4C289 207.2 287 212.2 287 212.4C287 212.7 285.6 215.8 283.9 219.5C282.2 223.2 280.6 227.6 280.3 229.3C279.4 235.1 286.7 257.3 295.2 274.5C299.2 282.6 300.5 285.1 305.2 293.1C305.9 294.3 307.3 296.3 308.3 297.4C309.2 298.5 310 300 310 300.7C310 303.1 306.4 302.1 304.9 299.3C304.1 297.8 302 294.3 300.2 291.5C292.3 279.5 282.3 255.9 277.9 238.8L276.283 232.685C275.84 231.007 275.954 229.231 276.608 227.624L280.2 218.8C281.015 216.856 281.929 214.665 282.858 212.439L282.861 212.432C284.893 207.561 286.996 202.519 288.3 199.5C288.578 198.848 288.839 198.25 289.081 197.697L289.082 197.697C290.137 195.287 290.821 193.725 290.833 192.159C290.854 189.27 288.589 186.364 282.147 178.102L282.14 178.092C281.328 177.05 280.449 175.923 279.5 174.7C278.674 173.622 277.835 172.526 277.001 171.439L276.993 171.428C272.883 166.067 268.929 160.911 267.6 159C265.9 156.8 264.3 155 264 155C263.6 155 263 162.8 262.6 172.2C262.3 181.7 261.8 190.8 261.6 192.5C260.4 204 258.3 213.8 256.9 215.4C256.4 216 256 217.1 256 218C256 218.9 254.9 220.7 253.6 221.9C249.3 225.9 246.1 222.5 242.5 210C240.7 203.7 238 175.6 238 162.7C238 159.123 237.833 156.047 237.583 154.752C237.489 154.264 237.059 154.189 236.7 154.533C232.422 158.634 209.613 190.526 209.8 192.4C209.9 194.2 211.3 197.6 217.6 211.8L217.957 212.595L217.957 212.596L217.957 212.597L217.958 212.598C219.291 215.569 221.321 220.094 222.6 223.2L224.183 226.974C224.843 228.55 224.982 230.296 224.579 231.956L223.5 236.4C222.5 240.3 220.9 245.7 219.9 248.5C218.8 251.2 218 254 218 254.7C218 255.4 216.9 258.3 215.6 261.2C214.904 262.754 213.92 264.996 212.911 267.296L212.91 267.299L212.908 267.304L212.908 267.304L212.907 267.305C212.034 269.296 211.142 271.331 210.4 273C208.8 276.6 207.2 279.6 206.8 279.8C206.4 280 206 280.7 206 281.4C206 283 196.5 298.9 194 301.4C192.2 303.2 192 303.2 191.4 301.7C191 300.5 192 298 194.4 294.5C198.7 287.9 210 266.8 210 265.1C210 264.5 210.8 262.1 211.9 259.7C215.2 252.3 217.7 244.7 219.4 237.3L220.466 232.503C220.814 230.937 220.683 229.303 220.091 227.813L217.9 222.3C216.2 218 213.9 212.5 212.8 210.2C208.1 199.8 205 190.9 205.6 189.7C207.1 187.1 216.6 174.4 219.3 171.6C220.8 169.9 222 168.2 222 167.9C222 167.5 224.8 163.5 228.3 159.1C237.8 146.7 238.5 145.7 238.8 142.2C238.825 141.972 238.85 141.758 238.873 141.559V141.558C239.001 140.465 239.08 139.79 238.78 139.452C238.295 138.906 236.82 139.241 232.961 140.115C232.566 140.204 232.146 140.3 231.7 140.4C228.3 141.2 223.9 142.1 222 142.4C219.2 142.9 217.9 143.9 215.8 147.2C214.3 149.6 210.6 155.3 207.4 160C206.653 161.133 205.732 162.526 204.703 164.082L204.7 164.087L204.695 164.095L204.693 164.099L204.692 164.099C201.455 168.998 197.16 175.496 193.9 180.5C192.699 182.335 191.603 184.017 190.596 185.563L190.586 185.579L190.584 185.581C183.514 196.431 180.836 200.541 177.171 203.376C174.936 205.105 172.334 206.36 168.146 208.379L168.145 208.38C167.074 208.896 165.899 209.463 164.6 210.1C156.9 213.9 147.5 217.9 143.8 219C140 220.1 134 221.9 130.3 223.1C126.5 224.2 122.7 225.4 121.8 225.7C120.5 226.1 120 225.7 120 224.2C120 222.6 121.3 221.8 127.2 220.1C149.5 213.7 154.6 211.7 169.5 203.5C176.6 199.6 178.8 197.5 181.2 193C181.9 191.6 183.6 188.9 185.1 187C186.6 185.1 189.2 181.1 190.9 178.2C192.6 175.3 194.5 172.4 195 171.7C196.9 169.5 213 144.8 213 144.1C213 143.8 199.2 143.7 182.3 143.8C149.5 144.2 136.9 143.3 124 139.9C108.2 135.6 102.7 130.6 103.8 121.7C104.4 116.6 110 111.8 118.3 109.4C128.2 106.5 159.4 106.9 181 110.3C200.3 113.3 208 115 219.8 118.6L225.662 120.372C227.304 120.869 229.081 120.279 230.1 118.9C231 117.7 232.5 115.4 233.4 113.9C234.277 112.365 233.719 110.408 232.163 109.567L221.3 103.7C219.856 102.924 218.524 102.217 217.295 101.564L217.288 101.56L217.288 101.56C209.623 97.4892 205.974 95.5511 204.344 92.5253C202.863 89.7761 203.048 86.1289 203.402 79.1678C203.466 77.9225 203.534 76.5712 203.6 75.1C204.3 58.4 204.2 58.2 202 56.4C201.65 56.0796 201.14 55.6234 200.529 55.0784C199.045 53.7525 196.972 51.9009 195.2 50.2C192.6 47.8 187 42.9 182.8 39.3C178.2 35.4 175 31.9 175 30.8C175 29.1 175.3 29.1 177.5 30.2C178.8 30.9 183.9 35.2 188.7 39.6C191.814 42.5196 195.518 45.9023 198.473 48.6009C200.072 50.0617 201.452 51.322 202.4 52.2L204.665 54.2338C206.343 55.7407 207.307 57.8861 207.32 60.1415L207.4 74.5L207.473 87.5593C207.49 90.5352 209.157 93.256 211.801 94.622L213.5 95.5C216.8 97.1 223.5 100.7 228.4 103.4C228.707 103.568 229.003 103.731 229.289 103.888L229.289 103.888C234.187 106.578 236.128 107.644 237.434 107.122C238.291 106.779 238.875 105.752 239.843 104.052C239.925 103.906 240.011 103.756 240.1 103.6C241 102.1 240.9 101.5 239.4 100.7C238.3 100.1 236.3 98.4 234.8 96.9C229.7 91.9 231.9 83.9 239.9 78.3C240.036 78.2007 240.169 78.1055 240.296 78.0133C241.053 77.4676 241.662 77.0287 242.164 76.4904C244.227 74.2783 244.489 70.3871 245.831 50.507V50.5067L246 48C246.338 42.5886 246.814 36.2622 247.179 31.4038V31.4035ZM250.6 73.8C253.9 73.5 254 72.8 252.5 57.7C251.2 44.6 249.8 47.1 248.4 65.3L247.93 71.2816C247.812 72.7811 249.11 74.0055 250.6 73.8ZM239.564 126.013C240.256 124.211 241.408 119.094 242.5 112.7C242.8 110.7 242.7 109 242.2 109C241.1 109 233 120.9 233 122.5C233 123.1 234.2 124.3 235.8 125.1C236.55 125.45 237.3 125.825 237.9 126.125L238.075 126.212L238.305 126.327C238.828 126.587 239.355 126.558 239.564 126.013ZM266.655 119.811L264.6 116.7C262.5 113.5 260.4 111 259.8 111C258.9 111 259.5 120 260.6 124.2C261.3 126.5 263.2 126.5 266 124.2C267.308 123.119 267.591 121.226 266.655 119.811ZM263.485 87.4853C262.314 88.6569 259.939 88.182 258.182 86.4246C256.425 84.6673 255.95 82.2929 257.121 81.1213C258.293 79.9497 260.667 80.4246 262.425 82.182C264.182 83.9393 264.657 86.3137 263.485 87.4853ZM244.424 86.4246C242.667 88.182 240.293 88.6569 239.121 87.4853C237.95 86.3137 238.424 83.9393 240.182 82.182C241.939 80.4246 244.314 79.9497 245.485 81.1213C246.657 82.2929 246.182 84.6673 244.424 86.4246Z" fill="black"/>
</svg>
