<svg width="534" height="161" viewBox="0 0 534 161" fill="none" xmlns="http://www.w3.org/2000/svg">
<path d="M532.89 135.347C521.262 120.93 505.71 115.01 487.748 112.773C465.073 110.085 442.202 109.441 419.411 110.85C408.39 111.45 397.331 113.091 386.305 111.926C377.605 110.87 369.31 107.641 362.186 102.536C354.372 97.145 347.758 90.197 341.345 83.236C338.633 80.1539 335.616 77.3546 332.339 74.881C327.882 56.756 313.79 43.931 296.181 36.661C270.158 25.918 240.781 26.705 213.163 27.643C199.296 28.115 185.423 28.843 171.544 28.677C164.2 28.6761 156.869 28.067 149.626 26.856C144.199 25.7402 138.872 24.1847 133.698 22.205C137.483 18.805 140.606 14.394 139.906 9.54401C139.167 4.41001 133.851 2.37002 129.326 1.65802C126.815 0.994983 124.174 1.00222 121.666 1.67902C118.122 2.21191 114.737 3.51068 111.746 5.48499C109.979 6.67243 108.479 8.21445 107.34 10.013C100.079 -3.849 75.584 0.144984 63.075 1.93298C53.417 3.31398 20.384 6.033 24.375 22.073C18.9825 21.4364 13.5328 21.4556 8.14499 22.13C7.94614 22.1892 7.77171 22.311 7.64768 22.4773C7.52365 22.6436 7.45664 22.8455 7.45664 23.053C7.45664 23.2604 7.52365 23.4624 7.64768 23.6287C7.77171 23.795 7.94614 23.9168 8.14499 23.976C12.9679 24.759 17.8407 25.1958 22.726 25.283C14.668 28.092 7.04999 33.233 0.32599 37.902C0.190354 38.0055 0.0972064 38.1551 0.0640883 38.3225C0.0309702 38.4899 0.0601629 38.6636 0.14615 38.811C0.232137 38.9584 0.369012 39.0694 0.531038 39.123C0.693063 39.1766 0.86906 39.1691 1.02597 39.102C8.51197 35.252 17.485 29.623 26.609 26.891C28.88 30.099 32.432 32.618 35.474 34.808C35.705 34.975 35.945 35.137 36.181 35.308C29.381 44.437 25.442 56.078 20.023 65.794C19.964 65.9289 19.9567 66.0806 20.0024 66.2205C20.0481 66.3604 20.1436 66.4787 20.2708 66.5527C20.3979 66.6268 20.5479 66.6516 20.6921 66.6223C20.8363 66.593 20.9648 66.5118 21.053 66.394C27.933 57.194 32.022 46.218 38.561 36.972C39.292 37.482 40.016 37.991 40.752 38.494C35.273 48.104 31.078 58.57 29.823 69.404C29.736 70.166 30.875 70.229 31.094 69.576C34.533 59.443 38.077 49.386 42.763 39.849C46.617 42.444 50.51 45.006 54.312 47.661C65.487 55.461 78.951 57.028 92.026 59.155C102.026 60.783 112.726 63.627 120.226 70.801C124.06 74.463 127.537 78.468 131.226 82.28C126.875 92.991 123.548 104.094 122.333 115.757C122.271 116.228 122.346 116.708 122.55 117.137C122.754 117.567 123.078 117.928 123.482 118.178C122.941 120.008 122.307 121.346 121.561 121.564C116.977 122.918 112.296 123.895 107.661 125.045C100.046 126.936 90.038 129.286 85.773 136.609C85.5418 137.024 85.4374 137.498 85.4724 137.972C85.5075 138.446 85.6807 138.9 85.9705 139.277C86.2603 139.653 86.654 139.937 87.1032 140.093C87.5523 140.248 88.0372 140.269 88.498 140.152C97.575 137.794 107.505 139.499 116.773 139.426C124.303 139.37 131.666 138.987 136.83 132.907C141.888 126.956 145.059 119.299 147.787 112.064C149.308 108.115 150.461 104.034 151.231 99.873C152.026 100.498 152.815 101.132 153.622 101.741C176.841 119.277 203.407 135.353 232.395 140.704C246.825 143.367 262.85 144.514 278.213 142.731C275.555 145.072 272.919 148.704 269.658 148.731C253.395 148.863 251.806 151.496 244.566 154.383C242.575 155.176 243.832 156.127 245.466 157.651C247.876 159.901 258.913 164.315 280.836 156.339C288.017 153.731 293.628 146.809 295.212 139.362C298.722 138.362 302.163 137.133 305.512 135.683C320.72 129.026 329.582 115.962 332.635 100.868C333.699 102.548 334.771 104.212 335.884 105.829C347.769 123.046 366.418 128.695 386.484 130.129C409.31 131.756 432.277 128.353 455.041 127.203C468.203 126.534 481.67 125.957 494.591 128.91C506.862 131.71 518.491 136.687 530.985 138.61C531.398 138.713 531.834 138.679 532.226 138.514C532.618 138.349 532.946 138.06 533.161 137.693C533.376 137.325 533.465 136.898 533.416 136.475C533.368 136.052 533.183 135.656 532.89 135.347V135.347ZM77.459 18.477L77.43 18.501C77.279 18.561 77.157 18.617 77.065 18.653C76.908 18.739 76.765 18.833 76.612 18.934C76.546 19.001 76.27 19.234 76.272 19.234C76.088 19.405 75.911 19.583 75.729 19.762C75.5119 19.9873 75.2521 20.1672 74.9647 20.2909C74.6773 20.4146 74.3681 20.4798 74.0552 20.4826C73.7424 20.4854 73.4321 20.4257 73.1425 20.3071C72.853 20.1886 72.59 20.0134 72.3689 19.792C72.1479 19.5705 71.9732 19.3072 71.8552 19.0175C71.7371 18.7277 71.678 18.4173 71.6814 18.1044C71.6847 17.7916 71.7504 17.4825 71.8747 17.1953C71.9989 16.9081 72.1792 16.6487 72.405 16.432C72.999 15.84 73.6586 15.3176 74.371 14.875C74.7856 14.6474 75.2209 14.4596 75.671 14.314C76.0506 14.2127 76.4497 14.2093 76.831 14.304C76.598 14.271 76.589 14.266 76.831 14.296V14.304L76.889 14.314C76.87 14.308 76.85 14.314 76.831 14.304V14.333C77.2972 14.3207 77.7541 14.465 78.1286 14.7429C78.5031 15.0208 78.7737 15.4162 78.897 15.866C79.0402 16.4026 78.9705 16.9739 78.7025 17.4604C78.4346 17.9469 77.9891 18.3111 77.459 18.477V18.477ZM127.546 14.177C126.169 15.403 125.446 17.19 124.146 18.505C122.871 19.794 121.135 17.915 122.207 16.563C122.454 16.248 122.685 15.913 122.927 15.587C121.808 15.9278 120.716 16.3551 119.663 16.865C119.43 16.9864 119.173 17.0562 118.911 17.0696C118.648 17.0831 118.386 17.0399 118.141 16.9429C117.897 16.846 117.676 16.6975 117.494 16.5078C117.312 16.318 117.174 16.0913 117.087 15.843C116.068 16.8226 114.989 17.7383 113.857 18.585C112.873 19.285 111.514 17.904 112.195 16.923C114.934 12.971 117.962 10.376 122.712 9.229C123.025 9.1637 123.35 9.18198 123.654 9.28204C123.958 9.38211 124.231 9.56043 124.444 9.79907C124.657 10.0377 124.804 10.3283 124.87 10.6416C124.935 10.9549 124.917 11.2799 124.817 11.584C125.507 11.5481 126.198 11.5816 126.881 11.684C127.132 11.7543 127.361 11.889 127.544 12.0745C127.727 12.2601 127.859 12.4902 127.926 12.7422C127.993 12.9942 127.993 13.2593 127.927 13.5115C127.86 13.7636 127.729 13.994 127.546 14.18V14.177ZM110.17 130.953C109.253 131.257 108.3 131.441 107.336 131.5C106.385 131.442 105.404 131.48 104.796 130.637C104.698 130.477 104.647 130.293 104.647 130.106C104.647 129.919 104.698 129.735 104.796 129.575C105.156 129.213 105.6 128.945 106.089 128.796C106.577 128.646 107.095 128.619 107.596 128.717C108.17 128.697 108.743 128.79 109.281 128.99C109.563 129.122 109.862 129.21 110.17 129.254C110.353 129.309 110.513 129.421 110.627 129.574C110.74 129.727 110.802 129.913 110.802 130.104C110.802 130.294 110.74 130.48 110.627 130.633C110.513 130.786 110.353 130.898 110.17 130.953V130.953ZM523.538 133.84C514.801 129.996 506.614 125.13 497.357 122.508C487.987 119.905 478.326 118.494 468.603 118.308C468.52 118.306 468.44 118.275 468.378 118.22C468.316 118.165 468.276 118.089 468.264 118.007C468.253 117.924 468.271 117.841 468.316 117.771C468.361 117.701 468.429 117.649 468.509 117.625C478.432 115.303 488.566 116.125 498.342 118.939C507.671 121.625 517.708 125.439 524.132 133.065C524.215 133.15 524.265 133.262 524.273 133.38C524.28 133.499 524.244 133.616 524.172 133.711C524.1 133.805 523.996 133.87 523.879 133.894C523.763 133.918 523.642 133.898 523.538 133.84V133.84Z" fill="#510D0A"/>
</svg>
