<svg width="430" height="323" viewBox="0 0 430 323" fill="none" xmlns="http://www.w3.org/2000/svg">
<path d="M428.94 246.313C422.008 238.265 416.508 229.487 411.303 220.26C408.561 215.4 406.914 205.66 400.819 204.314C400.306 204.2 396.251 201.834 394.964 201.452C389.564 199.852 383.893 198.886 378.423 197.552C372.583 196.126 366.793 194.489 360.928 193.183C356.338 192.159 350.663 189.957 345.98 189.957C343.048 189.957 341.155 188.94 338.159 189.348C334.15 189.896 330.167 190.563 326.192 191.309C317.044 193.12 308.004 195.436 299.112 198.246C290.762 200.797 282.616 203.97 274.74 207.738C273.52 208.321 272.423 208.921 271.374 209.538C269.278 204.656 266.637 200.027 263.501 195.738C275.056 190.707 287.301 185.307 297.891 178.669C304.244 174.688 309.614 169.68 314.799 164.324C317.317 161.724 323.054 157.529 322.127 153.345C322.271 153.196 322.419 153.045 322.561 152.9C333.808 141.059 342.124 127.473 349.943 113.46C351.017 111.693 351.544 109.649 351.46 107.583C351.585 99.507 351.593 91.436 351.378 83.364C351.078 72.252 352.298 61.4639 351.319 50.2149C350.727 43.4309 349.408 34.8059 345.562 29.0039C345.372 28.6984 345.08 28.4706 344.737 28.3615C344.395 28.2523 344.024 28.2691 343.693 28.4087C343.361 28.5483 343.091 28.8016 342.929 29.123C342.768 29.4444 342.727 29.8128 342.813 30.1619C344.822 37.2519 344.53 44.686 345.121 51.945C345.921 61.7319 347.355 71.8449 347.711 81.5669C347.996 89.3509 347.634 97.241 347.497 105.031C347.47 106.557 347.436 108.082 347.397 109.607C347.404 108.994 347.31 109.862 346.703 110.96C340.092 122.921 329.543 135.089 319.442 144.266C310.854 152.073 303.029 161.456 292.963 167.505C280.87 174.767 269.754 182.388 256.829 188.105C255.49 186.807 254.084 185.58 252.616 184.43C263.982 180.486 275.345 170.73 283.887 163.024C288.774 158.829 292.41 153.367 294.395 147.24C295.795 142.795 297.517 137.896 298.671 132.996C301.642 124.654 302.809 115.531 303.608 106.379C305.045 89.8909 305.353 68.9539 298.518 53.4859C293.991 43.3613 288.154 33.8751 281.156 25.2709C273.848 16.1239 264.763 5.04194 253.91 0.0639399C253.345 -0.19306 252.487 0.395947 252.95 1.02395C259.15 9.48395 267.592 16.2699 274.315 24.3699C281.859 33.4619 289.625 44.3859 292.624 55.9699C294.395 62.7999 293.745 71.183 294.179 78.238C294.758 87.638 294.598 96.9809 294.716 106.379C294.825 115.087 295.667 122.937 292.816 131.338C290.278 138.821 282.176 144.822 276.501 149.95C269.26 156.492 261.57 162.539 254.071 168.78C251.171 171.199 246.143 174.939 243.844 179.029C242.555 178.418 241.236 177.874 239.892 177.397C241.617 176.221 243.192 174.837 244.579 173.276C250.82 166.258 251.649 156.199 249.679 147.393C247.057 135.693 237.773 124.61 226.453 119.678C226.245 119.463 225.996 119.293 225.72 119.178C221.489 117.343 216.859 116.619 212.27 117.076C209.257 117.28 206.3 117.993 203.525 119.185C203.313 119.282 203.119 119.413 202.951 119.574C191.706 124.523 182.616 135.774 179.566 147.4C177.382 155.733 178.515 165.5 183.948 172.377C185.475 174.3 187.283 175.981 189.312 177.364C187.974 177.837 186.661 178.378 185.379 178.987C183.061 174.943 178.021 171.359 175.168 168.787C167.93 162.252 160.05 156.418 152.738 149.957C146.932 144.824 139.166 138.806 136.424 131.345C133.368 123.034 134.498 115.023 134.524 106.386C134.557 96.9859 134.552 87.6509 135.061 78.2449C135.453 71.0449 135.124 63.0099 136.616 55.9769C141.524 32.8139 163.208 18.877 176.29 1.03095C176.752 0.40295 175.89 -0.186056 175.33 0.0709437C165.099 4.77094 157.012 14.7909 149.835 23.1709C142.002 32.2814 135.562 42.5012 130.722 53.4979C123.848 69.0549 124.341 89.8079 125.632 106.391C126.296 114.885 128.577 123.211 129.878 131.634C130.291 134.143 131.104 136.57 132.288 138.821C132.896 140.855 133.51 142.859 134.033 144.807C135.702 151.089 139.016 156.813 143.633 161.388C148.751 166.42 154.398 170.885 160.475 174.704C165.621 178.081 170.841 182.197 176.69 184.42C175.202 185.586 173.778 186.832 172.425 188.152C149.171 178.096 129.087 163.474 111.171 145.647C100.924 135.456 89.937 124.031 82.795 111.434C81.078 108.404 81.865 110.871 81.778 106.834C81.61 99.016 81.595 91.1949 81.54 83.3789C81.475 73.7049 83.324 63.479 83.988 53.721C84.518 45.912 84.269 37.7859 86.427 30.1769C86.5123 29.8281 86.4706 29.4603 86.3093 29.1395C86.1479 28.8187 85.8776 28.5659 85.5466 28.4264C85.2157 28.287 84.8459 28.27 84.5036 28.3786C84.1614 28.4872 83.869 28.7142 83.679 29.019C79.786 34.889 79.228 42.635 78.035 49.389C76.121 60.224 77.847 70.8279 77.919 81.5819C77.976 89.9959 77.657 98.414 77.771 106.834C77.804 109.352 77.86 110.834 79.045 113.017C86.7745 127.367 96.292 140.679 107.37 152.635C107.282 152.794 107.21 152.962 107.154 153.135C106.086 156.95 110.562 160.067 112.789 162.559C117.705 168.094 123.242 173.045 129.289 177.316C140.076 184.916 153.616 190.522 165.852 195.816C162.741 200.118 160.117 204.752 158.027 209.633C157.495 209.318 156.96 209.004 156.38 208.69C148.819 204.59 140.572 201.636 132.419 198.983C124.2 196.306 115.819 194.125 107.389 192.216C103.252 191.282 99.063 190.567 94.875 189.904C93.275 189.651 91.6693 189.426 90.058 189.227C88.481 189.027 84.838 190.244 83.907 190.061C81.121 189.509 76.907 191.346 74.136 191.884C68.244 193.032 62.442 194.64 56.626 196.121C50.967 197.565 45.287 198.921 39.598 200.256C36.249 201.038 30.839 201.404 28.272 204.12C27.687 204.739 25.348 205.156 24.572 206.479C22.472 210.062 21.117 214.401 19.12 218.134C13.9075 228.198 7.59856 237.656 0.307961 246.334C0.107964 246.551 -0.000282353 246.837 0.0058633 247.133C0.012009 247.428 0.132071 247.709 0.340935 247.918C0.5498 248.127 0.831286 248.247 1.12651 248.253C1.42174 248.258 1.70784 248.15 1.92496 247.95C7.934 242.312 13.1992 235.931 17.593 228.961C19.819 225.445 21.828 221.79 23.811 218.132C25.311 215.356 26.632 210.517 29.856 209.509C45.514 204.618 62.734 202.671 78.495 196.662C81.35 195.574 85.12 195.749 88.972 196.362C91.68 201.318 93.091 202.443 98.572 203.714C105.272 205.262 112.038 206.484 118.79 207.786C126.052 209.186 133.307 210.934 140.432 212.919C143.409 213.748 150.587 215.219 155.052 217.725C153.696 222.161 152.743 226.71 152.207 231.317C142.947 229.834 133.567 228.217 124.342 227.975C118.474 227.818 113.19 226.889 107.542 228.948C102.442 230.807 97.294 232.235 92.342 234.5C73.564 243.084 60.392 260.5 42.571 270.535C42.0771 270.836 41.693 271.287 41.475 271.823C41.257 272.358 41.2166 272.95 41.36 273.51C41.987 277.042 39.647 280.391 38.707 283.662C37.6719 287.476 37.0912 291.399 36.977 295.349C36.619 303.815 36.192 312.274 35.651 320.734C35.541 322.434 37.867 322.471 38.408 321.105C41.281 313.858 41.658 306.561 42.908 298.954C43.508 295.354 44.252 291.744 44.961 288.154C45.509 285.389 47.317 282.496 47.317 279.654C47.317 276.592 45.969 274.786 49.363 272.978C52.199 271.466 54.915 269.964 57.603 268.191C62.598 264.69 67.3546 260.861 71.841 256.728C77.3195 251.991 83.1611 247.69 89.312 243.866C92.5255 241.881 95.91 240.187 99.425 238.805C100.46 238.393 101.536 238.091 102.634 237.905C102.902 238.421 103.321 238.843 103.835 239.114C104.349 239.385 104.934 239.493 105.511 239.423C119.682 238.516 137.275 246.742 151.866 244.096C152.691 258.184 157.377 273.383 166.982 283.022C173.682 289.749 179.815 295.303 188.782 298.988C193.403 300.86 198.217 302.215 203.136 303.029C203.808 303.676 204.695 304.052 205.627 304.085C208.427 304.24 211.279 304.264 214.152 304.17C217.295 304.287 220.452 304.26 223.598 304.085C224.558 304.052 225.47 303.654 226.148 302.973C239.723 300.651 252.707 294.91 261.441 284.021C270.719 272.661 276.241 258.702 277.246 244.069C291.859 246.783 309.509 238.516 323.719 239.423C324.281 239.492 324.852 239.392 325.357 239.136C325.863 238.88 326.281 238.48 326.559 237.986C327.663 238.164 328.749 238.439 329.805 238.808C333.332 240.163 336.719 241.858 339.918 243.869C346.121 247.616 351.968 251.921 357.389 256.731C361.999 260.731 366.726 264.553 371.627 268.194C374.229 270.027 376.986 271.628 379.867 272.981C383.315 274.71 381.913 276.635 381.913 279.657C381.913 282.384 383.562 285.541 384.269 288.157C385.211 291.652 385.659 295.4 386.321 298.957C387.735 306.557 387.931 313.818 390.821 321.108C391.362 322.474 393.687 322.439 393.579 320.737C393.039 312.281 392.446 303.821 392.252 295.352C392.124 292.299 391.739 289.263 391.102 286.275C390.354 282.392 387.173 277.425 387.869 273.513C388.012 272.953 387.972 272.362 387.754 271.826C387.537 271.29 387.153 270.839 386.659 270.538C368.765 260.46 355.359 243.838 336.887 234.503C327.876 229.948 318.072 227.25 308.027 227.629C297.727 228.015 287.354 229.758 277.07 231.351C276.588 226.723 275.667 222.151 274.319 217.697C278.288 215.586 284.186 214.362 286.793 213.524C293.847 211.391 301.015 209.655 308.263 208.324C315.136 206.935 322.014 205.56 328.879 204.108C335.142 202.783 337.147 202.016 340.221 196.433C343.314 195.733 346.614 195.133 348.021 195.613C357.497 198.85 366.816 201.859 376.532 204.352C383.859 206.232 392.164 207.261 399.075 209.421C404.085 210.988 407.687 222.344 410.275 226.738C414.907 234.588 420.641 241.732 427.301 247.954C427.519 248.171 427.814 248.293 428.121 248.293C428.429 248.293 428.724 248.171 428.941 247.953C429.158 247.735 429.28 247.44 429.28 247.133C429.28 246.825 429.158 246.53 428.94 246.313ZM217.84 125.63C228.887 127.458 236.252 136.166 239.147 146.617C241.465 154.991 238.377 169.468 229.937 173.261C229.82 173.325 229.686 173.353 229.553 173.343C229.42 173.332 229.292 173.283 229.186 173.202C229.08 173.12 229 173.009 228.956 172.883C228.912 172.757 228.905 172.621 228.937 172.491C229.982 167.714 232.931 163.38 233.15 158.429C233.333 154.246 231.843 150.629 230.425 146.768C227.672 139.263 222.515 132.706 217.003 127.068C216.876 126.931 216.796 126.758 216.775 126.572C216.754 126.387 216.794 126.199 216.887 126.038C216.981 125.877 217.125 125.75 217.296 125.677C217.468 125.603 217.658 125.587 217.84 125.63ZM262.724 241.906C262.03 253.657 259.271 265.598 252.576 275.459C245.368 286.078 230.345 295.166 217.213 292.234C216.897 292.139 216.62 291.945 216.423 291.68C216.226 291.415 216.12 291.094 216.12 290.764C216.12 290.434 216.226 290.113 216.423 289.848C216.62 289.583 216.897 289.389 217.213 289.294C225.797 286.778 234.335 285.494 240.62 278.194C243.545 274.869 245.833 271.034 247.369 266.88C250.494 258.289 252.297 249.274 252.717 240.143C253.317 222.21 248.03 203.013 229.431 196.371C228.901 196.181 228.779 195.299 229.431 195.171C255.517 190.076 263.924 221.647 262.724 241.906Z" fill="#510D0A"/>
</svg>
