<svg width="500" height="320" viewBox="0 0 500 320" fill="none" xmlns="http://www.w3.org/2000/svg">
<path d="M265.5 76.2C271.7 79.4 275.8 83.6 277.4 88.5C278.6 91.8 278.4 94 275.3 108.9C271.1 129 269.3 133.2 263.1 137.2C258.7 140 258.1 140.1 248.9 139.8C240.1 139.5 239 139.3 235.5 136.6C230.2 132.5 227.7 126.1 223.9 107.3L221.292 94.1789C220.908 92.2465 221.169 90.2415 222.034 88.4715L222.9 86.7C227.4 77.4 237.3 72.8 251.5 73.3C258.8 73.6 261.4 74.1 265.5 76.2Z" fill="black"/>
<path d="M263.3 146.4C267.7 148.3 279.9 156.7 284.8 161.2C293.4 169 293.4 170.5 286.1 209C283.8 220.8 281.3 232.7 280.4 235.5C278.9 240.5 251.4 284.1 249.5 284.7C248.2 285.1 221.2 242.9 218.9 236.9C216.1 229.5 207.7 184.4 207.6 176C207.5 166.5 208.3 165.2 219.5 156.8C233.7 146.1 236.5 145 249.2 145C256.3 145 261.2 145.5 263.3 146.4Z" fill="black"/>
<path d="M255.9 44.9C260 47 265.4 52.7 266.4 55.8C267.4 58.8 265.4 62.8 261.9 64.5C259.4 65.8 256.5 66.1 247.8 65.8C237.2 65.5 236.7 65.4 234.4 62.7C231.4 59.2 231.4 56.7 234.1 52.3C236.6 48.4 245.3 43 249.3 43C250.8 43 253.8 43.9 255.9 44.9Z" fill="black"/>
<path fill-rule="evenodd" clip-rule="evenodd" d="M255.4 27.1C254.8 28.2 258.5 31.9 260.3 32C261.7 32 261 35.8 259.2 38C257.5 40.1 257.1 40.2 253.6 39C250.6 38 248.9 38 245.3 39.1C241.1 40.2 240.6 40.2 239.4 38.5C237.2 35.6 237.7 33.3 241 31.3C244 29.5 245.1 27 242.7 27C241.3 27 236.9 29.8 235.8 31.4C234.5 33.3 234.9 37.5 236.6 39.9C238.2 42.1 238.1 42.3 234.6 45.2C229.9 49.1 228 52.8 228 58.3C228 62.9 229.9 65.8 234.9 69V69C235.918 69.7082 235.782 71.2544 234.656 71.7741L234.6 71.8C232.2 72.9 231.8 72.6 228.9 69C227.1 66.8 222.3 62.9 218.3 60.4L215.505 58.6627C212.672 56.9017 211.046 53.7183 211.279 50.3907L211.6 45.8C212.2 36.3 212.2 35.8 210.4 36.2C208.8 36.5 208.4 37.9 207.7 46.4C207.2 51.8 207.1 56.8 207.3 57.4C207.6 58.1 211.3 60.7 215.6 63.4C220 66 224.5 69.5 225.7 71.2V71.2C226.987 73.0131 226.847 75.4754 225.363 77.1314L223.6 79.1C218.4 84.9 216.6 90.5 218.1 96.9C218.429 98.4778 218.671 99.926 218.741 100.818C218.788 101.409 218.408 101.654 217.906 101.338C216.786 100.631 214.62 98.9927 212.2 97L209.019 94.2963C207.213 92.7611 206.085 90.5753 205.881 88.2137L205.5 83.8C204.8 76.1 204.4 75.2 193.6 54.8C187.4 43.2 181.7 33.4 180.9 33C180.1 32.5 175.1 31.8 169.7 31.4C161.2 30.8 160 30.9 160 32.3C160 34 160.8 34.2 173 35.7L174.866 35.9297C177.771 36.2873 180.321 38.0355 181.702 40.6167L190.2 56.5C199.7 74.3 200.9 77.2 201.5 83C202.6 94 202.6 94 211.9 101.8C220.4 108.8 220.7 109.2 221.7 114.5C222.2 117.5 222.4 120 222.2 120C221.9 120 218.4 117.9 214.3 115.4L209.43 112.373C207.787 111.351 205.859 110.887 203.931 111.047L198.5 111.5C193.8 111.9 189.6 112.7 189.2 113.4C188.8 114 181.1 130.2 172 149.4L157.067 180.986C156.062 183.111 154.267 184.758 152.064 185.576L145 188.2C133.7 192.4 132 193.4 133.6 195C134.3 195.7 138.4 194.7 146.5 191.7L154.888 188.669C157.136 187.857 158.969 186.183 159.982 184.017L175 151.9C193.5 112.6 191.5 115.4 202.1 115.1C206.2 115 207.9 115.7 215.9 121C228.4 129.2 228.3 130.2 213.9 132.2C210.604 132.686 207.6 133.173 205.519 133.548C203.603 133.895 202.062 135.095 201.136 136.808C198.652 141.405 193.282 151.571 187.1 163.2L173.128 189.49C172.326 190.999 171.97 192.705 172.102 194.409L174 218.9C175.1 233.8 176 247.4 176 249.2C176 252.4 175.5 252.8 165.5 258.3C155.2 264 153.6 265.5 156.4 266.6C157.5 267 177.1 256.8 179.9 254.4C180.1 254.2 179.3 240.2 178.1 223.3L175.995 195.114C175.868 193.407 176.23 191.699 177.038 190.19L190.6 164.9L203.233 141.255C204.594 138.708 207.094 136.969 209.955 136.579L216.4 135.7L223.083 134.797C225.866 134.421 228.666 135.366 230.652 137.352L231.4 138.1C233.6 140.3 234.9 142 234.3 142C232.5 142 215.3 153.6 210.3 158.2C204.6 163.5 203 167.2 203 175.3C203 183.1 212 231.5 214.8 238.8C217.3 245.4 249 294.4 250 293.3C251.9 291.1 280.5 246.1 282.7 241.9C285.2 236.8 286.6 230.9 292.5 199.7C296.7 177.3 296.9 171.2 293.8 165C291.2 160 283.6 153.4 271.9 146.1L269.005 144.31C266.677 142.87 266.422 139.581 268.5 137.8V137.8L269.581 136.848C271.56 135.105 274.204 134.317 276.815 134.693L283.1 135.6C288.8 136.3 294 137.2 294.6 137.4C295.2 137.6 301.2 150.1 308 165.1L319.454 190.41C320.075 191.781 320.341 193.287 320.23 194.788L318.1 223.4C317.122 237.178 316.343 249.028 316.197 253.045C316.162 254.012 316.628 254.743 317.465 255.228C319.429 256.365 323.454 258.703 328 261.3C338.7 267.5 340.9 268 341 264.9C341 264.5 336.4 261.6 330.8 258.5C327.619 256.714 324.719 255.084 322.759 253.958C321.071 252.987 320.163 251.354 320.25 249.409C320.472 244.455 321.131 233.887 322 221.8L324.034 193.784C324.143 192.285 323.875 190.783 323.254 189.415L311.5 163.5C304.5 148.1 298.2 135 297.4 134.4C296.6 133.8 291 132.7 285 132C278.9 131.3 274 130.5 274 130.1C274.1 128.6 276.1 126.8 284.9 121.1C293.1 115.7 294.8 115 298.9 115.1C309.5 115.4 307.5 112.6 326 151.9L341.018 184.017C342.031 186.183 343.864 187.857 346.112 188.669L354.5 191.7C362.6 194.7 366.7 195.7 367.4 195C369 193.4 367.3 192.4 356 188.2L348.936 185.576C346.733 184.758 344.938 183.111 343.933 180.986L329 149.4C319.9 130.2 312.2 114 311.8 113.4C311.4 112.7 307.2 111.9 302.5 111.5L297.037 111.05C295.067 110.888 293.099 111.378 291.436 112.446L285.9 116C282.532 118.096 279.556 119.799 278.146 120.398C277.601 120.629 277.167 120.326 277.186 119.734C277.22 118.673 277.49 116.783 277.9 114.8C279 109.8 279.6 108.9 286.3 103.3C298.3 93.1 297.6 94.1 298.4 85C299 77 299.3 76.3 309.8 56.6L318.395 40.6037C319.778 38.0301 322.324 36.2878 325.224 35.9309L327.1 35.7C339.2 34.2 340 34 340 32.3C340 30.9 338.8 30.8 330.3 31.4C324.9 31.8 319.9 32.5 319.1 32.9C318.3 33.4 312.7 43.3 306.5 54.9C295.7 75.3 295.2 76.4 294.6 83.9L294.222 88.1692C294.015 90.4979 292.911 92.6549 291.142 94.1837L288 96.9C284.8 99.7 281.9 102 281.6 102C281.2 102 281.2 99.2 281.6 95.7C282.3 88.5 281 84.3 276 78.7L275.234 77.8138C273.81 76.1674 273.713 73.7553 275 72V72C276.2 70.3 281 66.4 285.7 63.4L289.564 60.8996C292.408 59.0592 293.978 55.7776 293.626 52.4083L293.5 51.2C292.3 37.7 292 36 290.3 36C288.9 36 288.8 37.3 289.3 46.2L289.583 51.0618C289.778 54.4049 288.1 57.5797 285.229 59.3027L282.4 61C278.3 63.5 273.7 67.1 272.3 69C271.508 70.0032 270.772 70.9785 270.238 71.7051C269.666 72.4849 268.906 72.9577 267.981 72.6722C266.088 72.0875 263 70.7305 263 70.3C263 70.1 264.8 68.2 267 66.1C270.3 62.9 271 61.7 271 58.4C271 53.9 268.2 48.6 263.7 44.8C260.5 42.1 260.5 42.1 262.3 39.2C264.8 34.8 264.5 31.5 261.3 29.2C256.8 26.1 256.2 25.9 255.4 27.1ZM266.4 55.8C265.4 52.7 260 47 255.9 44.9C253.8 43.9 250.8 43 249.3 43C245.3 43 236.6 48.4 234.1 52.3C231.4 56.7 231.4 59.2 234.4 62.7C236.7 65.4 237.2 65.5 247.8 65.8C256.5 66.1 259.4 65.8 261.9 64.5C265.4 62.8 267.4 58.8 266.4 55.8ZM277.4 88.5C275.8 83.6 271.7 79.4 265.5 76.2C261.4 74.1 258.8 73.6 251.5 73.3C237.3 72.8 227.4 77.4 222.9 86.7L222.034 88.4715C221.169 90.2415 220.908 92.2465 221.292 94.1789L223.9 107.3C227.7 126.1 230.2 132.5 235.5 136.6C239 139.3 240.1 139.5 248.9 139.8C258.1 140.1 258.7 140 263.1 137.2C269.3 133.2 271.1 129 275.3 108.9C278.4 94 278.6 91.8 277.4 88.5ZM284.8 161.2C279.9 156.7 267.7 148.3 263.3 146.4C261.2 145.5 256.3 145 249.2 145C236.5 145 233.7 146.1 219.5 156.8C208.3 165.2 207.5 166.5 207.6 176C207.7 184.4 216.1 229.5 218.9 236.9C221.2 242.9 248.2 285.1 249.5 284.7C251.4 284.1 278.9 240.5 280.4 235.5C281.3 232.7 283.8 220.8 286.1 209C293.4 170.5 293.4 169 284.8 161.2Z" fill="black"/>
</svg>
