<?xml version="1.0" standalone="no"?>
<!DOCTYPE svg PUBLIC "-//W3C//DTD SVG 20010904//EN"
 "http://www.w3.org/TR/2001/REC-SVG-20010904/DTD/svg10.dtd">
<svg version="1.0" xmlns="http://www.w3.org/2000/svg"
 width="500.000000pt" height="320.000000pt" viewBox="0 0 500.000000 320.000000"
 preserveAspectRatio="xMidYMid meet">

<g transform="translate(0.000000,320.000000) scale(0.100000,-0.100000)"
fill="#000000" stroke="none">
<path d="M3303 2910 c-57 -54 -71 -62 -165 -90 -181 -55 -258 -92 -258 -125 0
-7 17 -35 37 -62 30 -38 37 -57 37 -93 l1 -45 -129 -63 c-128 -63 -128 -63
-192 -57 -58 7 -64 9 -64 30 0 33 -47 68 -80 60 -30 -7 -60 -40 -60 -65 0 -15
-11 -19 -59 -25 -57 -6 -61 -5 -180 54 -67 34 -124 68 -128 76 -10 29 8 83 42
126 19 24 35 52 35 61 0 28 -65 64 -174 98 -172 54 -189 61 -247 117 -56 53
-79 65 -79 39 0 -17 97 -109 136 -128 16 -9 71 -27 122 -42 109 -31 202 -71
202 -85 0 -6 -16 -31 -35 -57 -30 -39 -35 -53 -35 -99 0 -64 5 -69 161 -145
127 -62 156 -91 104 -104 -37 -9 -67 -62 -61 -106 5 -33 3 -37 -30 -55 -49
-26 -112 -100 -126 -147 -9 -31 -9 -53 0 -96 6 -30 10 -57 8 -59 -2 -2 -45 7
-96 20 l-93 23 -29 84 c-16 47 -38 120 -49 163 -12 42 -30 89 -42 103 -11 14
-52 41 -92 59 -59 27 -74 38 -83 64 -10 29 -42 44 -42 20 0 -22 33 -80 51 -90
30 -16 22 -29 -17 -29 -24 0 -34 -4 -31 -12 4 -14 101 -17 128 -4 11 5 26 -1
43 -16 21 -18 35 -51 62 -143 20 -66 45 -144 57 -174 l22 -55 115 -29 c116
-29 134 -37 150 -67 8 -16 -4 -17 -148 -16 -150 1 -159 0 -201 -24 -55 -31
-75 -63 -121 -199 l-36 -106 -72 2 c-55 2 -72 -1 -72 -11 0 -18 22 -26 73 -26
l40 0 -23 -24 c-12 -14 -35 -28 -51 -31 -33 -7 -40 -35 -9 -35 32 0 73 25 113
69 27 29 44 65 66 138 38 119 67 173 106 193 30 15 265 29 265 16 0 -4 -20
-26 -45 -49 -30 -29 -45 -52 -45 -69 0 -17 -15 -41 -45 -70 -26 -26 -48 -59
-51 -76 -5 -25 -18 -38 -59 -61 -111 -63 -239 -208 -252 -286 -4 -23 7 -69 37
-156 52 -151 57 -217 21 -267 -19 -27 -25 -52 -30 -126 -6 -75 -13 -102 -34
-139 -31 -52 -33 -67 -12 -67 20 0 62 75 76 137 8 33 16 50 24 47 21 -8 36
-54 29 -89 -4 -21 -1 -35 6 -40 17 -11 30 14 30 57 0 52 -17 85 -55 102 -31
15 -32 18 -25 52 5 19 16 45 27 56 14 16 18 36 18 97 -1 63 -8 96 -44 200
l-44 125 24 45 c13 25 48 71 76 102 56 60 159 137 169 126 4 -4 -5 -33 -20
-66 -27 -61 -32 -100 -17 -129 6 -12 2 -38 -11 -80 -18 -54 -19 -68 -9 -102 7
-22 25 -55 41 -74 17 -18 30 -41 30 -50 0 -27 25 -78 54 -114 21 -24 29 -45
31 -82 5 -95 99 -183 246 -230 63 -20 86 -34 149 -92 124 -113 171 -112 297 3
53 48 90 73 127 85 166 54 256 142 256 248 0 28 5 48 14 53 33 19 66 86 66
133 0 31 5 52 16 61 40 33 57 104 40 169 -9 36 -9 52 2 81 12 31 11 41 -6 90
-10 30 -22 62 -27 72 -12 27 12 21 65 -18 66 -48 143 -135 170 -189 l21 -45
-42 -123 c-53 -156 -62 -245 -29 -290 12 -16 24 -47 27 -67 4 -32 2 -37 -25
-49 -16 -7 -34 -24 -40 -38 -14 -30 -15 -93 -2 -114 15 -23 25 -2 25 52 0 38
5 53 20 64 18 14 20 11 35 -44 19 -68 55 -132 76 -132 19 0 18 7 -16 74 -24
48 -30 71 -30 125 0 54 -6 78 -31 131 -31 62 -31 65 -20 127 6 35 27 107 46
160 19 52 35 106 35 120 0 71 -139 238 -248 299 -44 24 -54 35 -63 69 -7 26
-26 55 -55 81 -31 30 -44 49 -44 69 0 19 -12 39 -36 61 -19 19 -40 34 -45 34
-5 0 -9 5 -9 11 0 17 238 8 275 -11 39 -20 68 -74 106 -193 22 -73 39 -109 66
-138 40 -44 81 -69 113 -69 31 0 24 28 -9 35 -16 3 -39 17 -51 31 l-23 24 40
0 c51 0 73 8 73 26 0 11 -17 14 -74 14 l-74 0 -31 98 c-42 130 -67 172 -121
202 -43 24 -52 25 -202 24 -87 -1 -158 2 -158 5 0 4 7 16 15 28 10 15 44 28
125 48 61 15 117 34 125 41 13 13 51 122 94 271 25 86 57 118 105 106 47 -11
99 -9 103 4 3 8 -11 13 -39 15 l-43 3 31 17 c28 16 64 70 64 97 0 24 -30 9
-45 -23 -13 -27 -30 -40 -80 -61 -35 -15 -74 -38 -86 -51 -12 -13 -35 -71 -55
-138 -19 -63 -43 -139 -54 -169 l-20 -53 -91 -22 c-51 -12 -94 -21 -96 -19 -2
2 1 16 7 31 16 42 12 128 -7 156 -26 41 -65 81 -108 112 -34 25 -40 35 -41 68
0 42 -24 76 -62 91 -42 16 -7 46 138 119 78 39 144 79 150 90 19 36 -1 109
-46 163 -13 16 -24 33 -24 38 0 15 70 45 207 88 124 39 136 45 193 97 56 53
71 76 53 87 -5 3 -36 -21 -70 -53z m-775 -493 c6 -7 9 -22 6 -33 -3 -13 4 -24
24 -35 36 -20 71 -90 79 -157 l6 -51 50 -11 c63 -13 103 -38 155 -94 65 -71
67 -120 12 -234 -35 -69 -56 -87 -115 -98 -31 -5 -56 -22 -111 -76 -112 -108
-152 -108 -268 2 -40 39 -81 70 -90 70 -65 0 -132 73 -162 178 -12 42 -13 59
-4 87 24 74 110 145 201 167 52 12 54 15 57 48 5 65 32 128 68 159 21 19 34
40 34 54 0 13 3 27 7 30 11 11 40 8 51 -6z m130 -63 c28 -8 29 -40 0 -50 -15
-4 -25 -1 -35 12 -27 37 -15 51 35 38z m-278 -19 c0 -9 -7 -18 -16 -22 -18 -7
-39 11 -30 26 11 17 46 13 46 -4z m-40 -89 c0 -45 -14 -75 -38 -81 -43 -11
-55 26 -21 69 22 28 59 35 59 12z m370 -4 c13 -11 23 -29 23 -46 0 -35 -5 -38
-37 -30 -18 4 -26 13 -26 28 0 11 -3 31 -6 44 -8 28 14 30 46 4z m-370 -635
c141 -130 184 -131 313 -9 85 80 124 93 204 66 96 -33 140 -67 130 -104 -4
-16 8 -35 50 -76 52 -53 55 -58 49 -94 -5 -32 -1 -46 19 -76 38 -57 50 -110
35 -167 -9 -37 -9 -51 0 -62 20 -24 8 -129 -18 -165 -12 -16 -22 -42 -22 -58
0 -35 -42 -118 -76 -150 -28 -27 -27 -24 -13 -56 24 -52 -32 -123 -137 -175
-230 -114 -580 -106 -771 18 -77 50 -108 97 -99 153 6 37 3 44 -33 83 -26 29
-46 63 -56 100 -9 31 -23 59 -30 61 -7 3 -20 23 -30 44 -20 44 -17 99 9 150
11 23 13 37 6 50 -17 32 -11 79 16 133 15 29 31 55 36 58 5 3 6 24 2 47 -6 36
-2 48 19 80 15 20 40 46 57 56 23 13 29 23 25 37 -10 32 3 54 47 79 61 34 118
49 163 43 31 -5 55 -20 105 -66z m300 -1247 c0 -3 -18 -23 -39 -44 -30 -29
-49 -39 -83 -43 -39 -5 -48 -1 -95 38 -29 23 -53 45 -53 49 0 3 61 6 135 6 74
1 135 -2 135 -6z"/>
</g>
</svg>
