<?xml version="1.0" standalone="no"?>
<!DOCTYPE svg PUBLIC "-//W3C//DTD SVG 20010904//EN"
 "http://www.w3.org/TR/2001/REC-SVG-20010904/DTD/svg10.dtd">
<svg version="1.0" xmlns="http://www.w3.org/2000/svg"
 width="500.000000pt" height="320.000000pt" viewBox="0 0 500.000000 320.000000"
 preserveAspectRatio="xMidYMid meet">

<g transform="translate(0.000000,320.000000) scale(0.100000,-0.100000)"
fill="#000000" stroke="none">
<path d="M3475 2855 c-147 -32 -215 -83 -442 -332 -223 -244 -698 -716 -813
-807 -107 -85 -190 -140 -320 -211 -168 -94 -238 -122 -599 -241 -189 -62
-350 -119 -357 -125 -22 -18 -16 -47 14 -66 15 -9 40 -30 55 -46 26 -27 32
-29 80 -24 108 11 349 71 536 133 106 36 195 63 198 60 3 -2 -29 -45 -71 -95
-95 -114 -111 -144 -90 -162 13 -11 12 -16 -12 -40 -28 -29 -29 -62 -2 -67 15
-3 212 92 405 195 39 21 75 34 79 30 4 -4 -22 -37 -59 -73 -37 -35 -74 -75
-83 -89 -20 -30 -10 -63 21 -71 29 -7 186 50 295 107 41 21 78 35 81 31 8 -8
129 -323 129 -335 0 -5 -39 -6 -87 -2 -65 5 -99 3 -128 -8 -41 -14 -56 -44
-20 -39 87 12 153 12 243 -2 101 -15 103 -16 205 -86 99 -69 112 -83 136 -143
18 -47 35 -33 28 24 -5 38 -3 50 6 47 7 -3 36 -13 66 -24 40 -14 60 -28 74
-51 33 -57 59 -35 29 24 -16 30 -30 41 -78 59 -74 27 -85 48 -20 39 37 -6 46
-4 46 8 0 22 -54 40 -109 35 -42 -4 -60 1 -142 41 l-94 46 -85 195 c-47 107
-89 203 -93 212 -5 14 14 28 97 73 57 30 106 55 110 55 3 0 6 -7 6 -16 0 -9
40 -71 88 -138 167 -229 220 -311 209 -322 -2 -2 -37 0 -77 5 -76 10 -134 -2
-169 -35 -24 -22 14 -29 61 -11 37 15 51 15 154 2 176 -23 182 -26 229 -117
27 -52 46 -78 58 -78 21 0 22 14 1 45 -26 40 -12 48 31 17 53 -38 173 -78 188
-63 16 16 2 25 -73 50 -65 22 -119 56 -106 68 3 4 30 -1 60 -10 58 -19 191
-23 201 -7 9 15 -39 30 -97 30 -56 0 -227 49 -270 78 -15 9 -84 93 -155 185
-184 241 -175 228 -169 262 7 33 3 30 176 160 296 221 376 303 459 470 63 126
86 250 86 469 l0 179 26 28 c15 16 55 71 90 124 49 72 69 95 86 95 12 0 46 9
74 21 37 14 64 18 89 14 40 -7 67 12 56 40 -10 27 -140 82 -213 90 -57 6 -74
12 -107 41 -22 19 -63 41 -90 49 -58 17 -53 17 -131 0z m152 -49 c28 -14 59
-35 67 -49 14 -21 26 -25 89 -30 73 -6 147 -29 147 -47 0 -6 -11 -10 -25 -10
-15 0 -39 -7 -54 -15 -16 -8 -48 -17 -70 -21 -36 -6 -45 -12 -63 -48 -25 -49
-89 -138 -135 -187 l-34 -36 10 -114 c10 -119 4 -207 -25 -349 -33 -160 -94
-272 -213 -391 -84 -84 -315 -270 -418 -336 -42 -27 -54 -41 -63 -73 -6 -21
-8 -51 -4 -65 3 -14 2 -25 -3 -25 -15 0 -93 108 -93 129 0 10 -7 24 -15 31
-12 10 -38 -1 -141 -57 -69 -37 -129 -74 -131 -81 -3 -7 36 -106 86 -219 50
-113 89 -209 86 -211 -3 -3 -17 -2 -32 4 -22 8 -33 29 -75 139 -27 72 -60 160
-74 197 -14 36 -32 69 -39 72 -8 3 -45 -12 -82 -33 -84 -47 -278 -125 -295
-118 -8 3 35 52 111 126 124 122 141 151 88 151 -33 0 -92 -27 -288 -132 -91
-48 -171 -88 -177 -88 -7 0 -9 11 -6 30 5 22 2 31 -10 36 -9 3 -16 11 -16 16
0 5 41 57 90 115 50 57 90 107 90 111 0 4 -4 14 -10 22 -11 17 -7 18 -275 -73
-113 -39 -259 -80 -360 -102 -93 -20 -176 -38 -183 -40 -7 -3 -29 11 -48 30
-19 19 -39 35 -44 35 -6 0 -10 4 -10 9 0 5 152 59 339 120 648 213 844 339
1391 902 151 155 328 341 393 413 160 178 231 233 351 267 83 24 112 23 173
-5z"/>
<path d="M3246 2312 c-3 -5 1 -40 9 -78 19 -89 19 -252 0 -332 -29 -122 -102
-226 -206 -293 -52 -33 -199 -89 -236 -89 -12 0 -34 -5 -49 -10 -24 -9 -26
-13 -13 -25 12 -12 23 -12 79 0 232 50 384 172 452 365 20 57 23 83 22 215 -1
96 -6 168 -15 199 -13 48 -31 67 -43 48z"/>
</g>
</svg>
