<?xml version="1.0" standalone="no"?>
<!DOCTYPE svg PUBLIC "-//W3C//DTD SVG 20010904//EN"
 "http://www.w3.org/TR/2001/REC-SVG-20010904/DTD/svg10.dtd">
<svg version="1.0" xmlns="http://www.w3.org/2000/svg"
 width="500.000000pt" height="320.000000pt" viewBox="0 0 500.000000 320.000000"
 preserveAspectRatio="xMidYMid meet">

<g transform="translate(0.000000,320.000000) scale(0.100000,-0.100000)"
fill="#000000" stroke="none">
<path d="M2873 2702 c-58 -53 -103 -126 -103 -167 0 -10 -15 -5 -47 15 -27 16
-70 35 -98 42 -27 6 -57 18 -66 25 -31 26 -87 28 -118 5 -16 -11 -48 -26 -72
-32 -57 -15 -122 -53 -148 -86 l-21 -27 0 26 c0 15 -11 50 -24 79 -39 88 -176
193 -176 135 0 -7 25 -35 56 -62 37 -31 64 -66 78 -98 l22 -49 -20 -93 c-21
-105 -20 -111 40 -210 49 -82 42 -104 -68 -218 l-89 -92 -76 83 c-70 77 -77
82 -107 77 -18 -4 -75 4 -141 20 -175 41 -181 43 -195 70 -15 29 -50 34 -50 8
0 -10 8 -32 19 -48 17 -29 28 -33 178 -68 87 -21 167 -35 177 -31 18 7 78 -44
136 -117 l29 -36 -75 -114 c-122 -184 -220 -401 -293 -648 -62 -207 -29 -342
86 -358 51 -7 90 11 190 85 46 34 110 75 143 91 l61 28 14 -33 c8 -19 21 -58
31 -87 l16 -53 -56 -112 c-48 -97 -61 -114 -91 -126 -33 -14 -46 -38 -26 -50
5 -3 29 1 54 10 44 15 45 16 107 147 l62 132 -38 117 -38 117 18 38 c13 27 30
44 61 59 l44 21 42 -43 c57 -58 114 -84 186 -84 73 0 127 26 187 90 l46 49 36
-24 c20 -14 42 -25 48 -25 7 0 23 -24 37 -52 l26 -53 -39 -115 c-22 -66 -37
-126 -34 -140 2 -14 30 -78 61 -142 54 -112 58 -117 100 -133 24 -10 48 -14
54 -10 22 13 10 36 -27 50 -35 14 -42 25 -92 131 l-54 116 33 98 32 99 46 -20
c25 -11 93 -53 150 -94 133 -95 182 -105 248 -54 67 53 73 161 20 342 -68 227
-170 455 -285 630 l-59 92 71 72 c66 66 75 72 112 72 23 0 104 15 181 34 127
31 141 37 157 63 10 16 18 37 18 47 0 26 -34 21 -50 -7 -10 -21 -33 -29 -144
-57 -72 -18 -152 -32 -178 -31 -45 2 -47 1 -121 -78 l-75 -79 -62 74 c-35 40
-82 89 -105 108 -35 30 -43 43 -49 84 -6 44 -3 55 36 129 l42 81 -19 95 c-18
92 -18 98 -1 142 12 31 37 63 78 100 43 38 59 59 55 70 -10 27 -29 18 -94 -42z
m-348 -121 c3 -5 1 -12 -5 -16 -15 -9 -12 -41 5 -75 l16 -30 -41 0 -41 0 16
30 c17 33 20 66 5 75 -5 3 -10 10 -10 16 0 12 47 12 55 0z m-91 -27 c71 -27
-110 -162 -185 -139 -26 9 -24 28 7 65 45 52 136 90 178 74z m231 -18 c47 -21
105 -75 105 -96 0 -5 -9 -14 -20 -20 -35 -19 -112 10 -167 63 -71 67 -19 101
82 53z m-117 -122 c102 -42 182 -191 181 -334 0 -55 -23 -133 -89 -297 -31
-76 -37 -85 -77 -104 -84 -41 -175 -10 -198 66 -7 22 -28 76 -47 120 -56 130
-74 213 -60 285 22 121 89 226 167 261 49 23 75 23 123 3z m-285 -38 l35 -1
-20 -33 c-11 -18 -28 -54 -38 -79 l-17 -45 -28 47 c-23 40 -26 55 -21 92 8 60
14 67 35 42 12 -15 30 -23 54 -23z m537 -18 c0 -18 -11 -50 -24 -72 l-24 -39
-23 44 c-12 24 -28 54 -36 66 -14 21 -13 21 32 21 26 0 49 3 53 6 13 14 22 4
22 -26z m-571 -387 c6 -26 28 -89 50 -139 22 -49 43 -107 47 -128 3 -22 17
-48 30 -59 32 -28 64 -94 64 -133 0 -42 -12 -64 -72 -131 -26 -30 -48 -62 -48
-71 0 -71 -77 -174 -140 -186 -19 -4 -30 -14 -34 -30 -4 -14 -22 -49 -41 -78
-25 -40 -44 -57 -70 -66 -20 -6 -72 -39 -117 -72 -143 -106 -177 -118 -228
-78 -24 18 -25 24 -25 122 1 95 4 113 47 238 84 248 177 436 305 618 63 88
198 242 213 242 5 0 13 -22 19 -49z m621 -18 c170 -186 303 -407 406 -676 122
-320 126 -496 9 -497 -35 0 -61 15 -173 98 -45 33 -98 66 -118 72 -27 9 -45
27 -75 73 -21 33 -39 68 -39 79 0 10 -7 18 -17 18 -32 0 -98 48 -120 87 -12
22 -25 57 -29 80 -4 29 -21 56 -61 102 -41 45 -56 71 -60 100 -7 52 12 105 51
145 19 19 35 46 38 67 3 19 24 77 46 129 23 52 46 116 53 143 6 26 15 47 19
47 5 0 36 -30 70 -67z m-316 -377 c-28 -77 -10 -143 56 -211 29 -30 46 -61 65
-119 l26 -79 -23 -34 c-84 -124 -245 -128 -339 -9 -20 26 -21 32 -10 60 7 17
20 54 28 81 10 31 32 68 60 98 71 77 89 140 58 214 -8 19 -15 36 -15 37 0 0
24 1 54 1 l53 0 -13 -39z"/>
</g>
</svg>
