<?xml version="1.0" standalone="no"?>
<!DOCTYPE svg PUBLIC "-//W3C//DTD SVG 20010904//EN"
 "http://www.w3.org/TR/2001/REC-SVG-20010904/DTD/svg10.dtd">
<svg version="1.0" xmlns="http://www.w3.org/2000/svg"
 width="500.000000pt" height="320.000000pt" viewBox="0 0 500.000000 320.000000"
 preserveAspectRatio="xMidYMid meet">

<g transform="translate(0.000000,320.000000) scale(0.100000,-0.100000)"
fill="#000000" stroke="none">
<path d="M2476 2943 c-3 -43 -11 -143 -16 -223 -19 -281 -17 -271 -61 -303
-80 -56 -102 -136 -51 -186 15 -15 35 -32 46 -38 15 -8 16 -14 7 -29 -28 -49
-24 -49 -117 2 -49 27 -116 63 -149 79 l-60 31 -1 179 -1 179 -49 44 c-27 25
-89 81 -137 126 -48 44 -99 87 -112 94 -22 11 -25 11 -25 -6 0 -11 32 -46 78
-85 42 -36 98 -85 124 -109 25 -24 56 -51 68 -62 22 -18 23 -20 16 -187 -9
-202 -24 -178 177 -286 l137 -74 -16 -28 c-9 -15 -24 -38 -33 -50 l-17 -23
-86 26 c-118 36 -195 53 -388 83 -216 34 -528 38 -627 9 -83 -24 -139 -72
-145 -123 -11 -89 44 -139 202 -182 129 -34 255 -43 583 -39 169 1 307 0 307
-3 0 -7 -161 -254 -180 -276 -5 -7 -24 -36 -41 -65 -17 -29 -43 -69 -58 -88
-15 -19 -32 -46 -39 -60 -24 -45 -46 -66 -117 -105 -149 -82 -200 -102 -423
-166 -59 -17 -72 -25 -72 -41 0 -15 5 -19 18 -15 9 3 47 15 85 26 37 12 97 30
135 41 37 11 131 51 208 89 159 78 132 50 293 296 43 66 104 158 135 205 32
47 69 104 84 128 21 33 34 43 62 48 19 3 63 12 97 20 80 18 75 19 71 -18 -3
-35 -10 -45 -105 -169 -35 -44 -63 -84 -63 -88 0 -3 -12 -20 -27 -37 -27 -28
-122 -155 -137 -181 -6 -12 25 -101 72 -205 11 -23 34 -78 51 -121 l31 -78
-16 -72 c-17 -74 -42 -150 -75 -224 -11 -24 -19 -48 -19 -54 0 -17 -113 -228
-156 -294 -24 -35 -34 -60 -30 -72 6 -15 8 -15 26 3 25 25 120 184 120 200 0
7 4 14 8 16 4 2 20 32 36 68 16 36 39 89 52 118 13 29 24 58 24 65 0 7 8 35
19 62 10 28 26 82 36 121 l17 70 -26 62 c-14 34 -37 85 -50 114 -63 142 -77
176 -78 194 -2 20 258 382 275 383 4 1 7 -38 7 -86 0 -129 27 -410 45 -473 36
-125 68 -159 111 -119 13 12 24 30 24 39 0 9 4 20 9 26 14 16 35 114 47 229 2
17 7 108 10 203 4 94 10 172 14 172 3 0 19 -18 36 -40 16 -23 70 -93 119 -157
135 -174 128 -154 88 -248 -19 -44 -55 -131 -81 -193 l-46 -113 23 -87 c44
-171 144 -407 223 -527 18 -28 39 -63 47 -78 15 -28 51 -38 51 -14 0 7 -8 22
-17 33 -10 11 -24 31 -31 43 -47 80 -60 105 -100 186 -85 172 -158 394 -149
452 3 17 19 61 36 98 17 37 31 68 31 71 0 2 20 52 45 110 l46 106 -35 47
c-241 320 -297 399 -302 429 -4 18 -4 35 -1 38 3 3 36 -1 74 -10 37 -9 80 -18
96 -21 23 -5 58 -52 225 -303 l197 -298 140 -72 c104 -54 176 -83 280 -113
160 -47 180 -50 180 -29 0 14 -29 25 -215 80 -52 15 -154 57 -226 93 l-130 65
-62 92 c-34 50 -62 95 -62 100 0 4 -4 10 -8 12 -4 2 -27 35 -51 73 -24 39 -53
81 -63 95 -39 52 -119 182 -114 187 3 3 141 5 308 4 401 -2 540 12 663 70 90
42 125 79 125 133 0 65 -57 114 -165 142 -172 46 -593 14 -927 -71 -73 -18
-140 -36 -150 -40 -12 -5 -24 6 -47 39 -17 24 -31 48 -31 53 0 4 71 45 158 89
l157 81 -3 184 -3 184 98 82 c126 105 197 178 189 192 -5 8 -13 8 -26 -2 -22
-16 -136 -115 -207 -181 -28 -26 -61 -55 -72 -62 -20 -14 -20 -22 -14 -192 l6
-178 -136 -73 c-161 -86 -173 -90 -192 -65 -22 29 -18 40 16 54 34 15 69 63
69 96 0 31 -55 111 -88 128 -34 18 -36 26 -53 196 -6 63 -15 153 -20 200 -6
47 -12 111 -16 143 -4 45 -9 57 -23 57 -15 0 -18 -13 -24 -77z m49 -320 c15
-151 14 -158 -19 -161 l-29 -4 7 89 c14 182 28 207 41 76z m55 -224 c56 -35
81 -69 78 -109 -3 -29 -9 -38 -38 -52 -45 -23 -178 -25 -219 -3 -67 34 -51
110 33 160 50 31 100 32 146 4z m-52 -264 c6 -14 22 -73 34 -133 21 -98 23
-133 22 -412 0 -316 -12 -445 -51 -542 -18 -45 -28 -47 -47 -10 -56 109 -82
526 -52 822 26 250 60 350 94 275z m-103 -62 c-14 -82 -29 -143 -34 -140 -3 1
-18 9 -33 16 -16 8 -28 20 -28 26 0 16 81 135 92 135 5 0 6 -17 3 -37z m-660
-8 c98 -13 305 -55 423 -84 58 -15 164 -64 180 -83 34 -42 -33 -71 -204 -89
-151 -15 -761 -6 -864 14 -101 19 -204 69 -219 106 -32 76 35 133 179 151 90
12 372 4 505 -15z m881 -32 l37 -56 -23 -19 c-28 -23 -47 -23 -54 0 -11 42
-17 132 -8 132 6 0 27 -25 48 -57z m1183 32 c102 -31 141 -104 84 -157 -57
-52 -147 -80 -311 -98 -156 -17 -773 -8 -863 13 -77 18 -109 35 -109 58 0 47
263 132 525 169 44 6 94 15 110 19 17 4 62 9 100 10 38 1 72 5 75 8 11 12 336
-6 389 -22z"/>
</g>
</svg>
