<?xml version="1.0" standalone="no"?>
<!DOCTYPE svg PUBLIC "-//W3C//DTD SVG 20010904//EN"
 "http://www.w3.org/TR/2001/REC-SVG-20010904/DTD/svg10.dtd">
<svg version="1.0" xmlns="http://www.w3.org/2000/svg"
 width="500.000000pt" height="320.000000pt" viewBox="0 0 500.000000 320.000000"
 preserveAspectRatio="xMidYMid meet">

<g transform="translate(0.000000,320.000000) scale(0.100000,-0.100000)"
fill="#000000" stroke="none">
<path d="M3227 2913 c-3 -5 8 -46 23 -93 41 -121 42 -142 7 -154 -20 -7 -30
-7 -35 0 -9 14 -59 39 -94 48 -36 8 -111 -10 -171 -42 -49 -26 -77 -63 -77
-102 0 -11 -1 -20 -2 -20 -2 0 -46 15 -99 34 -165 59 -356 69 -475 24 -82 -30
-254 -149 -339 -235 -147 -148 -294 -368 -365 -547 -28 -69 -79 -266 -80 -306
0 -18 -49 -53 -159 -114 -115 -63 -234 -150 -290 -212 -37 -40 -52 -68 -69
-125 -27 -91 -28 -153 -2 -253 26 -104 62 -167 143 -252 101 -108 222 -159
457 -196 88 -13 469 -16 1200 -7 382 4 340 9 705 -75 99 -23 111 -24 125 -10
13 14 13 17 -8 34 -34 28 -225 99 -322 120 -226 49 -618 76 -960 66 -155 -5
-273 -2 -485 13 -251 17 -288 22 -355 46 -41 15 -92 36 -112 46 -58 30 -138
117 -172 189 -25 55 -30 76 -29 136 1 78 15 114 60 155 26 24 119 69 142 69 6
0 27 -18 46 -39 52 -57 89 -71 188 -71 47 0 98 5 114 11 15 6 89 24 163 41 74
17 152 39 172 49 46 23 48 23 48 1 0 -50 74 -73 152 -47 52 17 118 14 118 -6
0 -5 -5 -18 -12 -29 -10 -15 -9 -23 6 -39 26 -28 118 -28 257 1 l106 22 91
-22 c50 -13 106 -22 124 -20 21 1 50 -8 81 -26 38 -23 47 -33 47 -55 0 -15 3
-31 7 -34 13 -13 33 16 33 48 0 30 -6 37 -55 65 -45 26 -54 35 -44 46 18 22
40 17 88 -21 24 -19 50 -35 57 -35 24 0 15 29 -16 52 -37 27 -38 38 -5 38 29
0 32 16 7 48 -23 30 -130 56 -177 43 -38 -10 -255 -2 -271 10 -6 5 -34 13 -62
20 -29 6 -52 13 -52 16 0 3 14 30 31 60 18 31 40 76 49 102 15 39 22 46 47 47
15 1 57 5 94 9 l65 7 47 -40 c25 -22 73 -57 106 -77 49 -30 70 -52 107 -113
82 -131 140 -182 237 -208 63 -16 95 -38 103 -69 3 -14 12 -25 19 -25 43 0 17
74 -36 101 -62 31 -49 56 23 40 27 -6 49 -19 61 -35 20 -28 47 -35 47 -13 0 7
-7 22 -15 33 -20 26 -19 34 5 34 25 0 26 22 3 42 -22 20 -127 42 -158 34 -15
-4 -41 2 -69 16 -47 23 -61 47 -87 151 -11 46 -8 131 5 144 3 4 19 -6 35 -21
l29 -28 -15 -50 c-10 -36 -11 -54 -4 -61 8 -8 14 -8 23 1 20 20 27 13 21 -23
-4 -28 -2 -35 10 -35 17 0 25 24 48 129 10 50 13 53 25 36 19 -26 18 -49 -7
-97 -14 -28 -17 -44 -10 -51 28 -28 78 84 62 140 -16 56 -87 149 -136 177 -25
15 -45 29 -45 32 0 3 11 20 25 38 39 51 55 101 62 189 5 64 10 85 25 95 10 8
34 44 53 82 31 61 47 78 154 164 66 53 129 108 141 123 11 14 22 24 24 22 10
-12 26 -77 32 -129 5 -44 11 -60 22 -60 12 0 14 12 10 73 -3 39 -13 94 -23
121 l-17 48 36 37 c27 28 36 45 36 71 0 19 9 55 20 79 26 56 25 66 -7 89 l-26
19 46 47 c26 25 58 51 72 56 28 11 33 28 10 36 -22 9 -78 -30 -133 -92 l-49
-54 -39 13 c-37 13 -39 16 -51 77 -15 74 -44 125 -83 145 -61 32 -68 7 -12
-41 36 -31 62 -85 62 -130 0 -18 -10 -19 -145 -19 -90 0 -145 4 -145 10 1 6 7
21 15 35 19 33 19 60 0 60 -8 0 -27 -26 -42 -57 -42 -86 -59 -80 -92 32 -36
120 -57 156 -74 128z m-80 -244 c15 -5 40 -22 55 -36 l27 -25 43 20 c94 46
365 58 468 22 30 -11 73 -20 95 -20 61 -1 70 -10 51 -55 -9 -20 -16 -51 -16
-68 0 -20 -12 -43 -37 -72 -21 -23 -49 -61 -63 -84 -22 -37 -119 -124 -240
-214 -22 -16 -52 -56 -75 -101 -27 -51 -47 -76 -60 -78 -18 -3 -21 -13 -26
-103 -6 -102 -13 -127 -66 -207 -32 -47 -25 -66 36 -102 26 -15 56 -41 65 -57
16 -27 16 -28 -5 -39 -18 -10 -27 -6 -69 29 -27 23 -55 41 -64 41 -38 0 -34
-222 6 -310 22 -49 32 -58 86 -85 54 -27 59 -32 46 -46 -8 -8 -14 -21 -14 -27
0 -18 -11 -15 -70 21 -44 26 -68 52 -128 139 -56 83 -84 114 -120 135 -26 15
-71 47 -100 71 -74 60 -93 66 -177 53 -38 -6 -81 -12 -95 -13 -25 -3 -29 -8
-74 -108 -14 -30 -38 -76 -53 -102 -34 -57 -29 -64 52 -79 33 -7 67 -18 75
-25 17 -14 230 -21 298 -9 35 6 42 5 42 -9 0 -9 -9 -24 -20 -33 -11 -10 -29
-26 -40 -36 -26 -23 -60 -22 -149 5 l-74 22 -111 -23 c-61 -12 -136 -23 -166
-24 l-55 -2 3 42 c3 34 0 44 -17 53 -31 16 -99 16 -152 0 -25 -7 -57 -10 -72
-6 -23 5 -27 13 -33 56 -7 55 -20 62 -50 29 -31 -35 -69 -49 -212 -80 -74 -17
-144 -35 -154 -40 -31 -17 -140 -22 -187 -9 -30 8 -59 27 -92 61 -45 46 -52
49 -83 44 -19 -4 -62 -21 -97 -38 -50 -25 -70 -42 -94 -81 -28 -46 -30 -56
-30 -145 0 -85 3 -103 28 -152 32 -67 93 -139 151 -178 56 -38 188 -88 267
-100 124 -19 478 -34 879 -36 432 -2 660 -17 660 -44 0 -5 -109 -8 -242 -7
-134 0 -362 -5 -508 -12 -201 -10 -326 -11 -515 -3 -304 13 -437 36 -569 100
-171 83 -286 264 -286 452 0 75 34 181 71 223 41 47 189 156 274 202 113 61
184 113 190 137 2 12 12 60 20 105 23 114 48 189 102 296 154 307 371 539 611
654 l77 37 135 -1 c118 -1 146 -5 220 -29 47 -15 106 -38 132 -51 26 -13 49
-20 51 -16 3 4 7 28 11 53 8 57 34 83 107 109 62 22 87 24 126 9z"/>
</g>
</svg>
