<?xml version="1.0" standalone="no"?>
<!DOCTYPE svg PUBLIC "-//W3C//DTD SVG 20010904//EN"
 "http://www.w3.org/TR/2001/REC-SVG-20010904/DTD/svg10.dtd">
<svg version="1.0" xmlns="http://www.w3.org/2000/svg"
 width="500.000000pt" height="320.000000pt" viewBox="0 0 500.000000 320.000000"
 preserveAspectRatio="xMidYMid meet">

<g transform="translate(0.000000,320.000000) scale(0.100000,-0.100000)"
fill="#000000" stroke="none">
<path d="M1575 3080 c-10 -15 1 -26 58 -58 238 -135 506 -452 701 -831 l68
-133 -23 -42 c-12 -22 -38 -62 -58 -88 -39 -53 -32 -54 -119 22 -43 38 -58 61
-86 130 -32 81 -37 87 -93 122 -32 20 -66 37 -75 37 -35 2 -17 -28 36 -58 67
-39 68 -40 101 -126 23 -60 38 -80 102 -140 71 -67 74 -71 64 -98 -28 -72 -4
-139 60 -172 16 -9 29 -20 29 -25 0 -16 -33 -12 -75 10 -22 11 -49 20 -60 20
-38 0 -122 -50 -168 -99 l-45 -48 -104 -5 c-105 -5 -188 -28 -188 -52 0 -23
12 -25 44 -9 22 12 66 18 151 21 l120 4 27 38 c30 43 101 95 143 106 26 6 27
5 22 -17 -22 -91 -30 -173 -31 -301 -1 -141 -2 -148 -21 -148 -31 0 -121 -46
-128 -65 -17 -44 0 -129 80 -384 l44 -145 -51 -208 c-50 -200 -57 -260 -26
-227 8 8 37 109 65 226 l52 212 -46 146 c-39 128 -70 241 -89 326 -7 33 16 56
77 74 l44 13 17 -111 c21 -134 50 -226 117 -367 77 -162 124 -210 204 -210 81
0 127 49 205 212 65 139 96 235 114 359 9 56 18 104 21 107 3 3 26 -4 50 -16
63 -31 62 -38 -37 -366 l-52 -169 53 -216 c30 -119 58 -220 62 -225 6 -6 13
-6 19 0 8 8 -5 77 -41 227 l-52 215 51 169 c57 185 82 284 82 325 0 32 -46 73
-98 87 l-37 10 -1 143 c-1 91 -7 177 -19 236 -9 51 -15 95 -13 98 3 2 32 -10
66 -27 42 -21 73 -46 99 -79 l38 -49 102 -1 c66 0 119 -6 149 -16 56 -19 81
-6 40 21 -37 25 -90 34 -185 35 l-83 0 -40 45 c-69 78 -184 130 -219 99 -9 -8
-41 -22 -70 -30 -102 -27 -119 -13 -36 28 74 36 95 79 76 152 l-14 50 75 67
c68 59 79 75 104 140 36 91 36 92 102 130 53 30 71 60 37 58 -10 0 -44 -17
-77 -37 -55 -35 -60 -41 -93 -124 -31 -78 -40 -91 -101 -143 l-67 -56 -33 38
c-18 21 -43 58 -54 82 l-22 45 69 134 c72 141 207 354 294 462 121 152 314
326 422 381 44 22 57 38 38 49 -30 19 -214 -112 -349 -249 -158 -160 -307
-372 -445 -635 -61 -115 -68 -125 -86 -115 -11 6 -43 9 -70 8 l-50 -3 -65 122
c-210 399 -453 692 -698 843 -85 52 -91 55 -101 39z m1006 -1066 c24 -22 24
-34 0 -34 -10 0 -33 -16 -51 -36 -17 -20 -32 -35 -33 -33 -19 35 -29 46 -53
59 -16 8 -31 16 -33 17 -2 2 4 12 14 23 37 41 114 42 156 4z m-122 -119 c8
-16 16 -75 19 -137 l5 -108 -34 0 c-47 0 -109 18 -141 42 -53 37 -31 132 52
219 37 40 41 41 62 27 13 -8 29 -28 37 -43z m211 -13 c73 -98 76 -161 8 -202
-30 -18 -133 -38 -144 -28 -13 13 -15 112 -4 178 9 52 19 80 36 97 31 31 54
21 104 -45z m-360 -307 c30 -8 67 -15 83 -15 27 0 36 -17 17 -36 -17 -17 -62
-148 -81 -239 -16 -79 -34 -259 -42 -435 -2 -51 -3 -53 -14 -28 -18 40 -40
160 -54 283 -16 155 -4 378 26 473 5 15 -1 15 65 -3z m488 -56 c21 -100 20
-391 -2 -523 -29 -180 -127 -418 -204 -498 -30 -32 -43 -38 -78 -38 -36 0 -46
5 -84 46 -23 25 -54 71 -68 102 -27 56 -27 60 -27 267 0 290 28 465 98 604
l32 66 100 8 c55 4 123 13 150 21 28 8 55 13 60 12 6 -2 16 -32 23 -67z"/>
</g>
</svg>
