<?xml version="1.0" standalone="no"?>
<!DOCTYPE svg PUBLIC "-//W3C//DTD SVG 20010904//EN"
 "http://www.w3.org/TR/2001/REC-SVG-20010904/DTD/svg10.dtd">
<svg version="1.0" xmlns="http://www.w3.org/2000/svg"
 width="500.000000pt" height="320.000000pt" viewBox="0 0 500.000000 320.000000"
 preserveAspectRatio="xMidYMid meet">

<g transform="translate(0.000000,320.000000) scale(0.100000,-0.100000)"
fill="#000000" stroke="none">
<path d="M2554 2929 c-6 -11 31 -48 49 -49 14 0 7 -38 -11 -60 -17 -21 -21
-22 -56 -10 -30 10 -47 10 -83 -1 -42 -11 -47 -11 -59 6 -22 29 -17 52 16 72
30 18 41 43 17 43 -14 0 -58 -28 -69 -44 -13 -19 -9 -61 8 -85 16 -22 15 -24
-20 -53 -47 -39 -66 -76 -66 -131 0 -46 19 -75 69 -107 l23 -16 -26 -12 c-24
-11 -28 -8 -57 28 -18 22 -66 61 -106 86 l-74 46 7 100 c6 95 6 100 -12 96
-16 -3 -20 -17 -27 -102 -5 -54 -6 -104 -4 -110 3 -7 40 -33 83 -60 44 -26 89
-61 101 -78 l22 -31 -43 -48 c-52 -58 -70 -114 -55 -178 5 -24 8 -45 6 -48 -2
-2 -31 19 -65 47 l-60 51 -7 81 c-7 77 -11 86 -119 290 -62 116 -119 214 -127
218 -8 5 -58 12 -112 16 -85 6 -97 5 -97 -9 0 -17 8 -19 130 -34 l65 -8 107
-200 c95 -178 107 -207 113 -265 11 -110 11 -110 104 -188 85 -70 88 -74 98
-127 5 -30 7 -55 5 -55 -3 0 -38 21 -79 46 l-74 46 -84 -7 c-47 -4 -89 -12
-93 -19 -4 -6 -81 -168 -172 -360 l-165 -349 -105 -39 c-113 -42 -130 -52
-114 -68 7 -7 48 3 129 33 l119 43 166 355 c185 393 165 365 271 368 41 1 58
-6 138 -59 125 -82 124 -92 -20 -112 -61 -9 -112 -18 -113 -20 -2 -1 -71 -132
-155 -290 l-152 -286 21 -271 c11 -149 20 -285 20 -303 0 -32 -5 -36 -105 -91
-103 -57 -119 -72 -91 -83 11 -4 207 98 235 122 2 2 -6 142 -18 311 l-23 308
148 276 148 277 110 15 111 15 39 -39 c22 -22 35 -39 29 -39 -18 0 -190 -116
-240 -162 -57 -53 -73 -90 -73 -171 0 -78 90 -562 118 -635 25 -66 342 -556
352 -545 19 22 305 472 327 514 25 51 39 110 98 422 42 224 44 285 13 347 -26
50 -102 116 -219 189 l-76 47 42 36 42 37 104 -15 c57 -7 109 -16 115 -18 6
-2 66 -127 134 -277 l124 -274 -23 -309 c-12 -169 -21 -309 -19 -311 2 -1 55
-32 118 -68 107 -62 129 -67 130 -36 0 4 -46 33 -102 64 -57 32 -105 59 -106
61 -2 1 6 139 18 306 l22 303 -127 280 c-70 154 -133 285 -141 291 -8 6 -64
17 -124 24 -61 7 -110 15 -110 19 1 15 21 33 109 90 82 54 99 61 140 60 106
-3 86 25 271 -368 l166 -355 119 -43 c81 -30 122 -40 129 -33 16 16 -1 26
-114 68 l-105 39 -165 349 c-91 192 -168 354 -172 360 -4 7 -46 15 -93 19
l-85 7 -81 -52 c-45 -28 -83 -49 -86 -46 -3 2 0 29 6 58 11 50 17 59 84 115
120 102 113 92 121 183 6 80 9 87 114 284 l108 201 65 8 c121 15 129 17 129
34 0 14 -12 15 -97 9 -54 -4 -104 -11 -112 -15 -8 -5 -64 -104 -126 -220 -108
-204 -113 -215 -119 -290 l-7 -79 -59 -51 c-32 -28 -61 -51 -64 -51 -4 0 -4
28 0 63 7 72 -6 114 -56 170 l-32 37 22 30 c12 17 60 56 107 86 l85 55 -7 67
c-12 135 -15 152 -32 152 -14 0 -15 -13 -10 -102 l6 -103 -75 -45 c-41 -25
-87 -61 -101 -80 -15 -19 -28 -37 -29 -39 -4 -4 -64 20 -64 26 0 2 18 21 40
42 33 32 40 44 40 77 0 45 -28 98 -73 136 -32 27 -32 27 -14 56 25 44 22 77
-10 100 -45 31 -51 33 -59 21z m5 -178 c41 -21 95 -78 105 -109 10 -30 -10
-70 -45 -87 -25 -13 -54 -16 -141 -13 -106 3 -111 4 -134 31 -30 35 -30 60 -3
104 25 39 112 93 152 93 15 0 45 -9 66 -19z m96 -313 c62 -32 103 -74 119
-123 12 -33 10 -55 -21 -204 -42 -201 -60 -243 -122 -283 -44 -28 -50 -29
-142 -26 -88 3 -99 5 -134 32 -53 41 -78 105 -116 293 l-32 161 22 45 c45 93
144 139 286 134 73 -3 99 -8 140 -29z m-22 -702 c44 -19 166 -103 215 -148 86
-78 86 -93 13 -478 -23 -118 -48 -237 -57 -265 -15 -50 -290 -486 -309 -492
-13 -4 -283 418 -306 478 -28 74 -112 525 -113 609 -1 95 7 108 119 192 142
107 170 118 297 118 71 0 120 -5 141 -14z"/>
</g>
</svg>
