<svg width="260" height="164" viewBox="0 0 260 164" fill="none" xmlns="http://www.w3.org/2000/svg">
<path d="M89.2346 24.4765C66.9424 16.041 46.7139 22.31 38.0702 34.4922C31.1351 44.268 32.6137 52.4545 33.3725 55.0911L32.9759 55.6589C32.9759 55.6589 129.944 111.257 134.021 113.61C137.934 106.833 130.457 96.9716 119.753 86.2396C117.207 84.1034 114.771 82.0884 112.443 80.1948L129.624 84.2351C129.729 84.2594 129.84 84.2572 129.951 84.2289C130.061 84.2006 130.169 84.1468 130.265 84.0712C130.361 83.9957 130.444 83.9003 130.508 83.7917C130.572 83.6831 130.615 83.5641 130.635 83.4429L142.029 81.7853C142.247 81.7561 142.465 81.7134 142.681 81.6574L155.962 78.1543C156.054 78.3733 156.203 78.5519 156.393 78.6713C156.583 78.7907 156.807 78.8464 157.042 78.8327C157.277 78.819 157.513 78.7364 157.727 78.5934C157.941 78.4504 158.124 78.2525 158.257 78.0203C158.67 77.3049 159.293 75.5948 158.693 75.2481C158.354 75.0528 157.699 75.3328 157.118 75.7423L143.247 79.3006C143.103 79.3388 142.958 79.3711 142.813 79.3973L130.52 82.1942L130.508 82.0902C130.467 81.7528 130.343 81.4469 130.148 81.2032C129.953 80.9596 129.694 80.7867 129.397 80.7021L103.641 73.2072C98.8588 69.5127 94.5754 66.3922 90.7048 63.7715L103.249 63.4557C104.025 63.4593 105.046 63.4982 105.643 62.6928L120.85 55.7428C121.035 55.6614 122.475 55.1763 123.262 54.8502L123.128 55.3795C123.209 55.53 123.804 54.8932 123.96 54.2888C124.078 53.8353 123.839 53.2131 123.59 53.1516C123.415 53.1097 123.026 53.2064 123.04 53.5754L123.13 53.7566C122.348 54.1032 121.582 54.5097 120.839 54.9724C120.729 55.0361 120.616 55.0912 120.501 55.1374L105.854 61.0482C105.823 61.0171 105.786 60.9928 105.745 60.9764C105.275 60.8639 104.78 60.837 104.279 60.8967L86.117 60.777C76.3887 54.6745 69.4802 52.0698 63.5599 51.3407C62.2079 51.1161 60.8303 50.9913 59.4358 50.9671L58.9238 49.3278C58.8808 49.2213 58.8047 49.1385 58.7068 49.0921C58.609 49.0457 58.4949 49.0381 58.3819 49.0706C58.3697 49.0333 58.3537 48.9981 58.3342 48.9657L53.8384 43.0823L48.5257 35.574L48.4922 35.6242L48.3451 34.6845C48.2898 34.3315 48.1679 34.0051 47.9864 33.7247L47.6832 33.2564C47.7558 32.9418 48.1752 32.6896 48.141 32.4061C48.0501 32.0805 47.8903 31.8459 47.2408 32.1044C46.4907 32.4024 45.5555 32.9153 45.3864 33.4319C45.3218 33.5926 45.2986 33.7633 45.3196 33.9237C45.3405 34.084 45.4048 34.2273 45.5045 34.3363C45.7221 34.3606 46.0511 33.7863 46.3181 33.843L47.9002 36.9743C47.9149 37.0782 47.9489 37.1748 48.0001 37.2586L52.169 43.8746C52.3521 44.1649 52.5436 44.4487 52.7434 44.726L56.9174 50.1869C56.97 50.2566 57.0311 50.3178 57.0994 50.3693C57.1052 50.4534 57.1249 50.5335 57.1576 50.6056L57.3839 51.0611C56.297 51.1569 55.039 51.3164 53.2719 51.5161C49.42 47.8943 44.7044 50.2117 43.2268 50.8887C41.7492 51.5658 35.3499 52.2573 35.3499 52.2573L35.1017 52.613C34.7182 48.9205 34.2745 44.9008 39.7072 36.5451C46.9853 25.3528 70.0491 19.477 90.4757 27.732C105.243 33.2572 128.711 52.4885 137.811 60.2279C137.86 60.2682 137.924 60.284 137.99 60.2721C138.056 60.2602 138.119 60.2216 138.166 60.1641C138.214 60.1066 138.242 60.0346 138.244 59.963C138.247 59.8914 138.224 59.8255 138.181 59.779C130.547 51.7475 109.481 32.5573 89.2319 24.4788" fill="#C4C4C4"/>
<path d="M34.6005 119.106C16.1491 104.018 11.4639 83.3649 17.6922 69.788C22.6907 58.8941 30.5196 56.0814 33.1825 55.4203L33.4759 54.7929C33.4759 54.7929 130.109 110.971 134.186 113.325C130.273 120.102 117.994 118.558 103.348 114.653C100.225 113.517 97.262 112.415 94.4583 111.346L106.548 124.205C106.621 124.283 106.675 124.381 106.706 124.491C106.736 124.601 106.743 124.72 106.726 124.842C106.709 124.963 106.668 125.082 106.606 125.192C106.544 125.302 106.462 125.398 106.367 125.476L110.629 136.173C110.712 136.376 110.784 136.586 110.844 136.801L114.45 150.054C114.686 150.024 114.915 150.064 115.114 150.169C115.312 150.274 115.472 150.44 115.578 150.65C115.683 150.86 115.73 151.107 115.713 151.363C115.696 151.62 115.616 151.877 115.482 152.108C115.069 152.824 113.899 154.219 113.299 153.872C112.961 153.677 112.876 152.969 112.94 152.261L109.086 138.47C109.047 138.326 109.002 138.184 108.953 138.046L105.228 126.001L105.132 126.042C104.819 126.176 104.492 126.221 104.184 126.174C103.875 126.127 103.596 125.989 103.374 125.774L84.0055 107.216C78.4151 104.922 73.5709 102.773 69.366 100.731L75.3645 111.752C75.7558 112.423 76.3002 113.288 75.9007 114.207L77.4856 130.852C77.5074 131.053 77.8073 132.542 77.9185 133.387L78.31 133.007C78.4809 133.002 78.2268 133.835 77.7815 134.273C77.4477 134.601 76.7894 134.706 76.6117 134.521C76.4877 134.39 76.3771 134.005 76.7033 133.832L76.9052 133.819C76.8147 132.969 76.7839 132.103 76.8131 131.228C76.8131 131.101 76.8043 130.975 76.7867 130.852L74.5824 115.213C74.5396 115.201 74.5 115.181 74.4653 115.154C74.1331 114.803 73.8624 114.388 73.6635 113.924L64.4788 98.2554C54.3297 92.8817 48.6198 88.2011 45.0282 83.4385C44.1577 82.3799 43.3608 81.2493 42.6426 80.0537L40.9669 80.43C40.8532 80.4461 40.7434 80.4215 40.6543 80.36C40.5652 80.2985 40.5016 80.2034 40.4733 80.0893C40.4349 80.0974 40.3964 80.1011 40.3585 80.1004L33.0155 79.1486L23.8567 78.3019L23.8835 78.2478L22.9961 78.5902C22.6628 78.7189 22.3191 78.7764 21.9855 78.7595L21.4284 78.731C21.1923 78.9513 21.1836 79.4406 20.9209 79.5527C20.5934 79.6367 20.3104 79.6157 20.2096 78.9239C20.0926 78.1253 20.0692 77.059 20.432 76.6542C20.5388 76.518 20.6751 76.4125 20.8244 76.3505C20.9738 76.2884 21.13 76.2724 21.2743 76.3043C21.4042 76.4806 21.0713 77.0527 21.2539 77.2556L24.7567 77.0601C24.854 77.0208 24.9547 77.0019 25.0529 77.0044L32.8669 77.3068C33.2099 77.3202 33.5514 77.3441 33.8915 77.3785L40.7077 78.2628C40.7944 78.2736 40.878 78.2959 40.9568 78.3293C41.0325 78.2922 41.1116 78.2693 41.1905 78.2615L41.6981 78.2297C41.2376 77.2405 40.7467 76.0714 40.0361 74.4412C34.9736 72.9162 34.6227 67.6737 34.4703 66.0555C34.3178 64.4374 31.717 58.5496 31.717 58.5496L31.901 58.1569C28.5114 59.671 24.8084 61.2965 20.2885 70.1793C14.2347 82.0784 20.678 104.99 38.0404 118.553C50.209 128.579 78.598 139.287 89.8504 143.299C89.9096 143.32 89.9552 143.368 89.978 143.431C90.0007 143.494 89.9988 143.568 89.9727 143.638C89.9466 143.708 89.8982 143.768 89.8375 143.806C89.7768 143.844 89.7084 143.857 89.6464 143.843C78.8741 141.248 51.7221 132.599 34.6012 119.102" fill="#C4C4C4"/>
<path d="M252.216 42.0098C253.716 27.0535 246.595 15.7544 237.763 12.4774C230.676 9.84842 225.931 12.0853 224.448 12.978L224.038 12.8291C224.038 12.8291 205.997 80.9731 205.229 83.8406C209.997 85.118 214.783 78.9537 219.573 70.6813C220.459 68.7822 221.289 66.9692 222.063 65.2422L222.406 76.3677C222.408 76.4351 222.427 76.5026 222.463 76.5654C222.498 76.6282 222.548 76.6848 222.61 76.7312C222.672 76.7775 222.744 76.8125 222.82 76.8337C222.897 76.8549 222.976 76.8617 223.053 76.8537L225.923 83.5244C225.976 83.6521 226.038 83.7778 226.107 83.9007L230.409 91.4187C230.29 91.5106 230.206 91.6305 230.164 91.7657C230.123 91.901 230.125 92.0466 230.172 92.1874C230.218 92.3282 230.307 92.4589 230.429 92.5658C230.551 92.6726 230.702 92.7518 230.865 92.7949C231.368 92.9297 232.512 93.0303 232.625 92.6079C232.689 92.37 232.411 92.0165 232.067 91.7295L227.635 83.8607C227.588 83.7792 227.545 83.6961 227.505 83.6121L223.795 76.5804L223.857 76.5558C224.055 76.4758 224.221 76.3501 224.338 76.1915C224.455 76.0329 224.518 75.8469 224.521 75.6523L224.882 58.7394C226.352 55.2235 227.554 52.1049 228.519 49.3193L230.759 56.9089C230.883 57.3825 231.026 58.0111 231.614 58.2427L238.33 66.3721C238.41 66.4712 238.94 67.2693 239.267 67.6955L238.923 67.7005C238.845 67.7745 239.33 68.0328 239.723 68.0294C240.019 68.0271 240.359 67.78 240.356 67.6185C240.353 67.5046 240.23 67.2837 240.008 67.3521L239.912 67.4365C239.573 67.017 239.201 66.617 238.797 66.2398C238.741 66.1831 238.689 66.1232 238.642 66.0605L232.65 58.1033C232.664 58.0789 232.673 58.0524 232.676 58.0247C232.668 57.7202 232.604 57.4145 232.486 57.1189L229.594 46.0358C231.724 39.1137 232.183 34.4802 231.66 30.7547C231.577 29.8945 231.428 29.0349 231.215 28.1815L232.13 27.602C232.188 27.5585 232.226 27.4986 232.238 27.4314C232.25 27.3643 232.236 27.2935 232.198 27.23C232.219 27.2165 232.238 27.201 232.254 27.1838L235.104 23.4848L238.811 19.023L238.775 19.0108L239.323 18.7678C239.529 18.6765 239.708 18.549 239.849 18.3926L240.085 18.1315C240.289 18.1244 240.511 18.3387 240.678 18.2716C240.861 18.163 240.978 18.0274 240.715 17.674C240.411 17.2657 239.946 16.7797 239.603 16.761C239.495 16.7479 239.387 16.7617 239.293 16.8006C239.199 16.8396 239.122 16.902 239.072 16.9806C239.092 17.1172 239.496 17.2238 239.505 17.3957L237.856 18.8706C237.795 18.8965 237.742 18.9329 237.699 18.9778L234.349 22.5972C234.202 22.7562 234.061 22.9191 233.924 23.0861L231.279 26.5201C231.245 26.5635 231.218 26.6107 231.198 26.6607C231.147 26.678 231.102 26.703 231.063 26.7348L230.823 26.9469C230.587 26.3005 230.284 25.5602 229.874 24.5163C231.452 21.5788 229.27 19.0845 228.617 18.2949C227.963 17.5053 226.497 13.72 226.497 13.72L226.24 13.6269C228.427 12.7905 230.803 11.8641 236.78 13.8097C244.786 16.4163 252.13 29.5068 250.435 43.2973C249.48 53.1947 241.595 70.6297 238.366 77.4363C238.35 77.4724 238.35 77.5139 238.368 77.5522C238.386 77.5905 238.42 77.6227 238.463 77.6421C238.506 77.6616 238.554 77.6668 238.598 77.6567C238.642 77.6467 238.679 77.6221 238.7 77.588C242.346 71.627 250.598 55.6624 252.214 42.0086" fill="#C4C4C4"/>
<path d="M185.654 24.1746C191.833 10.4721 203.649 4.24706 212.936 5.82501C220.388 7.09175 223.379 11.4017 224.217 12.9159L224.647 12.9923C224.647 12.9923 206.198 81.0269 205.43 83.8945C200.663 82.617 199.599 74.8852 199.587 65.3261C199.769 63.2384 199.957 61.2534 200.151 59.371L194.291 68.8344C194.255 68.8917 194.205 68.9404 194.143 68.9771C194.081 69.0139 194.009 69.0377 193.932 69.047C193.856 69.0562 193.776 69.0507 193.699 69.0308C193.622 69.0108 193.55 68.977 193.487 68.9316L187.667 73.2738C187.557 73.3577 187.441 73.4357 187.319 73.5074L179.835 77.8675C179.891 78.0062 179.904 78.1523 179.873 78.2903C179.841 78.4282 179.766 78.5531 179.656 78.6516C179.545 78.7502 179.402 78.8189 179.243 78.8505C179.084 78.8821 178.914 78.8754 178.752 78.8311C178.248 78.6963 177.208 78.2116 177.321 77.7893C177.385 77.5514 177.802 77.384 178.243 77.3076L186.016 72.7088C186.097 72.6616 186.176 72.6113 186.252 72.5584L192.981 68.3239L192.941 68.2719C192.808 68.1032 192.727 67.9113 192.706 67.7157C192.684 67.52 192.722 67.3275 192.817 67.1574L200.96 52.3296C201.445 48.5497 201.964 45.248 202.521 42.3533L196.787 47.8062C196.442 48.154 196.004 48.6269 195.379 48.5335L185.498 52.2159C185.38 52.2619 184.521 52.6877 184.025 52.8933L184.32 53.0697C184.351 53.173 183.802 53.1543 183.463 52.9544C183.208 52.8047 183.037 52.4207 183.121 52.2824C183.18 52.1854 183.397 52.0552 183.555 52.2257L183.596 52.3467C184.099 52.1527 184.622 51.9926 185.159 51.8676C185.237 51.8468 185.312 51.8209 185.384 51.7902L194.551 47.8946C194.551 47.8666 194.557 47.8393 194.568 47.8137C194.727 47.554 194.936 47.3214 195.186 47.1245L203.232 38.9721C204.849 31.9126 206.768 27.6703 209.083 24.7051C209.586 24.002 210.144 23.3321 210.755 22.6994L210.253 21.7401C210.224 21.6734 210.221 21.6025 210.244 21.5382C210.267 21.4739 210.315 21.4197 210.379 21.3838C210.368 21.3617 210.36 21.3389 210.354 21.3157L209.735 16.6872L208.756 10.9699L208.793 10.9773L208.44 10.4927C208.307 10.3106 208.216 10.1107 208.172 9.9047L208.098 9.5607C207.926 9.45279 207.626 9.52735 207.515 9.38567C207.41 9.19989 207.377 9.02404 207.782 8.84971C208.249 8.64808 208.895 8.45977 209.201 8.6147C209.301 8.65757 209.388 8.72337 209.45 8.80422C209.512 8.88508 209.547 8.97759 209.551 9.07073C209.465 9.1786 209.062 9.06919 208.969 9.21354L209.659 11.3154C209.699 11.3683 209.727 11.4265 209.742 11.4868L210.833 16.2961C210.881 16.5072 210.922 16.7192 210.956 16.9319L211.53 21.2284C211.538 21.283 211.538 21.3376 211.531 21.391C211.565 21.4311 211.592 21.4755 211.61 21.5223L211.712 21.8263C212.24 21.3844 212.872 20.8945 213.749 20.1955C213.851 16.8628 216.988 15.7933 217.948 15.4363C218.909 15.0793 222.071 12.534 222.071 12.534L222.341 12.582C220.865 10.7643 219.27 8.77393 213.122 7.47047C204.885 5.72498 191.98 13.3897 186.552 26.1798C182.431 35.229 180.541 54.2703 179.935 61.7796C179.931 61.8192 179.909 61.8547 179.875 61.8789C179.84 61.903 179.795 61.9139 179.748 61.9094C179.701 61.9049 179.656 61.8852 179.623 61.8545C179.59 61.8237 179.571 61.7842 179.57 61.7441C179.392 54.7585 180.228 36.807 185.656 24.1745" fill="#C4C4C4"/>
<path d="M91.184 54.92C91.184 56.7973 90.6293 58.2907 89.52 59.4C88.4107 60.4667 86.7893 61 84.656 61C84.1013 61 83.5467 60.936 82.992 60.808C82.4373 60.68 81.84 60.4453 81.2 60.104C80.6027 59.7627 80.0693 59.4427 79.6 59.144C79.1307 58.8453 78.5333 58.3973 77.808 57.8C77.1253 57.16 76.5707 56.6693 76.144 56.328C75.76 55.944 75.1413 55.3467 74.288 54.536C73.4347 53.7253 72.816 53.128 72.432 52.744L60.72 41.672V55.56C60.72 57.6507 60.3147 59.08 59.504 59.848C58.736 60.616 57.4987 61 55.792 61C53.9147 61 52.528 60.5733 51.632 59.72C50.736 58.8667 50.288 57.4373 50.288 55.432V24.52C50.288 22.088 50.9067 20.2533 52.144 19.016C53.3813 17.7787 55.152 17.16 57.456 17.16C59.0347 17.16 60.2933 17.416 61.232 17.928C62.2133 18.3973 63.3653 19.272 64.688 20.552L80.88 36.68V22.728C80.88 20.8933 81.328 19.528 82.224 18.632C83.1627 17.6933 84.4213 17.224 86 17.224C87.8347 17.224 89.1573 17.6507 89.968 18.504C90.7787 19.3573 91.184 20.744 91.184 22.664V54.92ZM124.91 51.4C124.91 54.728 124.291 57.16 123.054 58.696C121.817 60.232 119.939 61 117.422 61C114.947 61 113.113 60.3387 111.918 59.016C110.766 57.6933 110.19 55.3253 110.19 51.912V24.84C110.19 19.72 112.601 17.16 117.422 17.16C119.897 17.16 121.753 17.6293 122.99 18.568C124.27 19.5067 124.91 21.4053 124.91 24.264V51.4ZM166.688 32.328C166.688 30.7493 166.539 29.512 166.24 28.616C165.942 27.6773 165.408 26.9733 164.64 26.504C163.915 26.0347 163.104 25.736 162.208 25.608C161.355 25.4373 160.16 25.352 158.624 25.352V39.432C159.819 39.432 160.865 39.3253 161.76 39.112C162.699 38.8987 163.552 38.536 164.32 38.024C165.088 37.512 165.664 36.7867 166.049 35.848C166.475 34.8667 166.688 33.6933 166.688 32.328ZM158.624 51.4C158.624 54.856 157.984 57.3307 156.704 58.824C155.424 60.2747 153.462 61 150.816 61C148.171 61 146.23 60.3387 144.992 59.016C143.755 57.6507 143.136 55.2613 143.136 51.848V24.84C143.136 22.2373 143.84 20.3173 145.248 19.08C146.656 17.8 148.512 17.16 150.816 17.16H162.208C164.982 17.16 167.542 17.544 169.889 18.312C172.235 19.0373 174.262 20.0827 175.968 21.448C177.718 22.7707 179.062 24.456 180 26.504C180.982 28.5093 181.472 30.7493 181.472 33.224C181.472 36.2533 180.598 38.8987 178.848 41.16C177.099 43.3787 174.795 45.0427 171.937 46.152C169.078 47.2613 165.856 47.816 162.272 47.816H158.624V51.4ZM224.527 29.192C224.527 28.296 224.143 27.528 223.375 26.888C222.65 26.248 221.775 25.928 220.751 25.928C218.703 25.928 217.018 27.1013 215.695 29.448C214.372 31.752 213.711 34.376 213.711 37.32C213.711 39.5813 214.138 41.6293 214.991 43.464C215.844 45.256 217.082 46.6853 218.703 47.752C220.324 48.8187 222.202 49.352 224.335 49.352C225.914 49.352 227.428 49.0533 228.879 48.456C230.33 47.816 231.503 47.1333 232.399 46.408C233.295 45.64 234.212 44.9573 235.151 44.36C236.132 43.72 236.986 43.4 237.711 43.4C238.65 43.4 239.46 43.784 240.143 44.552C240.826 45.2773 241.167 46.0453 241.167 46.856C241.167 47.752 240.89 48.7973 240.335 49.992C239.823 51.1867 238.991 52.4667 237.839 53.832C236.687 55.1547 235.343 56.392 233.807 57.544C232.271 58.6533 230.351 59.592 228.047 60.36C225.786 61.0853 223.396 61.448 220.879 61.448C217.551 61.448 214.458 60.9573 211.599 59.976C208.783 58.952 206.33 57.5227 204.239 55.688C202.148 53.8107 200.506 51.464 199.311 48.648C198.116 45.832 197.519 42.6747 197.519 39.176C197.519 32.264 199.588 26.8027 203.727 22.792C207.866 18.7813 213.284 16.776 219.983 16.776C223.396 16.776 226.554 17.352 229.455 18.504C232.356 19.656 234.66 21.256 236.367 23.304C238.074 25.352 238.927 27.592 238.927 30.024C238.927 32.84 237.988 35.4 236.111 37.704C234.234 39.9653 231.802 41.096 228.815 41.096C227.108 41.096 225.572 40.6267 224.207 39.688C222.842 38.7493 222.159 37.4053 222.159 35.656C222.159 34.8453 222.543 33.7147 223.311 32.264C224.122 30.8133 224.527 29.7893 224.527 29.192Z" fill="#3958C6" fill-opacity="0.75"/>
<path d="M48.22 84V98.64L37.06 85.7L36.68 85.18L36.74 85.82V98H36V83.36L47.16 96.3L47.54 96.82L47.48 96.18V84H48.22ZM59.8822 93.08L53.4822 95.56C53.7222 96.16 54.0955 96.64 54.6022 97C55.1222 97.36 55.7689 97.54 56.5422 97.54C57.3155 97.54 57.9955 97.2667 58.5822 96.72L59.0822 97.12C58.3355 97.84 57.4355 98.2 56.3822 98.2C55.3289 98.2 54.4222 97.82 53.6622 97.06C52.9022 96.2867 52.5222 95.3667 52.5222 94.3C52.5222 93.22 52.9022 92.3 53.6622 91.54C54.4222 90.7667 55.3422 90.38 56.4222 90.38C57.2755 90.38 57.9955 90.6267 58.5822 91.12C59.1822 91.6133 59.6155 92.2667 59.8822 93.08ZM53.2622 94.28C53.2622 94.4267 53.2755 94.6333 53.3022 94.9L59.0222 92.68C58.4755 91.5867 57.6089 91.04 56.4222 91.04C55.5022 91.04 54.7422 91.3467 54.1422 91.96C53.5555 92.5733 53.2622 93.3467 53.2622 94.28ZM72.5834 96.96L75.8234 90.5H76.6034L72.5834 98.46L69.8434 93.06L67.1234 98.46L63.1034 90.5H63.8834L67.1234 96.96L69.4634 92.3L68.5634 90.5H69.3434L72.5834 96.96ZM89.4488 84H90.1888V98H89.4488V84ZM101.974 98H101.234V92.6C101.207 92.16 101.041 91.7933 100.734 91.5C100.427 91.2067 99.9807 91.0467 99.3941 91.02C98.5141 91.02 97.7541 91.2867 97.1141 91.82C96.4741 92.3533 96.1541 93.02 96.1541 93.82V98H95.4141V90.52H96.0741L96.1541 92.52C96.4341 91.8667 96.8541 91.3467 97.4141 90.96C97.9874 90.5733 98.6474 90.38 99.3941 90.38C100.154 90.3667 100.767 90.5667 101.234 90.98C101.701 91.3933 101.947 91.9333 101.974 92.6V98ZM113.493 98H112.753V96.8L112.813 95.9C112.533 96.58 112.1 97.1333 111.513 97.56C110.927 97.9733 110.253 98.18 109.493 98.18C108.413 98.18 107.493 97.8 106.733 97.04C105.973 96.2667 105.593 95.3467 105.593 94.28C105.593 93.2 105.973 92.28 106.733 91.52C107.493 90.7467 108.413 90.36 109.493 90.36C110.267 90.36 110.933 90.56 111.493 90.96C112.053 91.36 112.473 91.8933 112.753 92.56V83H113.493V98ZM106.333 94.26C106.333 95.18 106.627 95.9533 107.213 96.58C107.813 97.2067 108.573 97.52 109.493 97.52C110.427 97.52 111.187 97.2067 111.773 96.58C112.373 95.9533 112.673 95.18 112.673 94.26C112.673 93.3267 112.373 92.5533 111.773 91.94C111.187 91.3267 110.427 91.02 109.493 91.02C108.573 91.02 107.813 91.3267 107.213 91.94C106.627 92.5533 106.333 93.3267 106.333 94.26ZM118.54 98H117.8V90.5H118.54V98ZM118.88 87.6C118.88 87.7733 118.813 87.92 118.68 88.04C118.56 88.16 118.413 88.22 118.24 88.22C118.08 88.22 117.933 88.16 117.8 88.04C117.68 87.92 117.62 87.7733 117.62 87.6C117.62 87.4133 117.687 87.26 117.82 87.14C117.953 87.0067 118.1 86.94 118.26 86.94C118.42 86.94 118.56 87.0067 118.68 87.14C118.813 87.26 118.88 87.4133 118.88 87.6ZM130.091 98H129.351V96.8L129.411 95.9C129.131 96.58 128.698 97.1333 128.111 97.56C127.524 97.9733 126.851 98.18 126.091 98.18C125.011 98.18 124.091 97.8 123.331 97.04C122.571 96.2667 122.191 95.3467 122.191 94.28C122.191 93.2 122.571 92.28 123.331 91.52C124.091 90.7467 125.011 90.36 126.091 90.36C126.864 90.36 127.531 90.56 128.091 90.96C128.651 91.36 129.071 91.8933 129.351 92.56L129.451 90.5H130.091V98ZM122.931 94.26C122.931 95.18 123.224 95.9533 123.811 96.58C124.411 97.2067 125.171 97.52 126.091 97.52C127.024 97.52 127.784 97.2067 128.371 96.58C128.971 95.9533 129.271 95.18 129.271 94.26C129.271 93.3267 128.971 92.5533 128.371 91.94C127.784 91.3267 127.024 91.02 126.091 91.02C125.171 91.02 124.411 91.3267 123.811 91.94C123.224 92.5533 122.931 93.3267 122.931 94.26ZM144.223 98V84H147.103C148.516 84 149.649 84.5133 150.503 85.54C150.983 86.1133 151.223 86.8 151.223 87.6C151.223 88.76 150.863 89.68 150.143 90.36C149.423 91.0267 148.409 91.36 147.103 91.36H144.963V98H144.223ZM144.963 90.7H147.003C148.749 90.7 149.849 90.02 150.303 88.66C150.423 88.3267 150.483 87.9733 150.483 87.6C150.483 86.8133 150.143 86.1267 149.463 85.54C148.796 84.9533 147.983 84.66 147.023 84.66H144.963V90.7ZM160.663 93.08L154.263 95.56C154.503 96.16 154.877 96.64 155.383 97C155.903 97.36 156.55 97.54 157.323 97.54C158.097 97.54 158.777 97.2667 159.363 96.72L159.863 97.12C159.117 97.84 158.217 98.2 157.163 98.2C156.11 98.2 155.203 97.82 154.443 97.06C153.683 96.2867 153.303 95.3667 153.303 94.3C153.303 93.22 153.683 92.3 154.443 91.54C155.203 90.7667 156.123 90.38 157.203 90.38C158.057 90.38 158.777 90.6267 159.363 91.12C159.963 91.6133 160.397 92.2667 160.663 93.08ZM154.043 94.28C154.043 94.4267 154.057 94.6333 154.083 94.9L159.803 92.68C159.257 91.5867 158.39 91.04 157.203 91.04C156.283 91.04 155.523 91.3467 154.923 91.96C154.337 92.5733 154.043 93.3467 154.043 94.28ZM168.551 91.26L168.171 91.78C168.038 91.62 167.805 91.46 167.471 91.3C167.151 91.14 166.825 91.06 166.491 91.06C166.158 91.06 165.851 91.1667 165.571 91.38C165.305 91.5933 165.171 91.9 165.171 92.3C165.171 92.7 165.265 92.9933 165.451 93.18C165.651 93.3533 165.938 93.5067 166.311 93.64C166.685 93.76 166.985 93.8733 167.211 93.98C167.438 94.0733 167.691 94.2133 167.971 94.4C168.558 94.76 168.851 95.2467 168.851 95.86C168.851 96.4733 168.645 97.0133 168.231 97.48C167.831 97.9333 167.251 98.16 166.491 98.16C165.451 98.16 164.685 97.8467 164.191 97.22L164.631 96.68C164.818 96.9333 165.105 97.14 165.491 97.3C165.891 97.46 166.258 97.5267 166.591 97.5C166.938 97.4733 167.278 97.3333 167.611 97.08C167.945 96.8267 168.111 96.46 168.111 95.98C168.111 95.34 167.745 94.88 167.011 94.6C166.851 94.5333 166.698 94.48 166.551 94.44L166.071 94.28C165.898 94.2133 165.785 94.1733 165.731 94.16C165.691 94.1467 165.591 94.1067 165.431 94.04C165.285 93.96 165.178 93.9 165.111 93.86C165.058 93.8067 164.978 93.7333 164.871 93.64C164.765 93.5333 164.691 93.4267 164.651 93.32C164.518 93.0267 164.451 92.74 164.451 92.46C164.451 91.82 164.658 91.32 165.071 90.96C165.498 90.5867 165.985 90.4 166.531 90.4C167.371 90.4 168.045 90.6867 168.551 91.26ZM174.638 98H173.898V91.16H172.598V90.5H173.898V85.62H174.638V90.5H176.938V91.16H174.638V98ZM198.838 96.64L199.398 97.18C198.278 97.8333 197.072 98.16 195.778 98.16C193.805 98.16 192.118 97.4667 190.718 96.08C189.332 94.68 188.638 92.9933 188.638 91.02C188.638 89.0333 189.332 87.34 190.718 85.94C192.118 84.54 193.805 83.84 195.778 83.84C197.085 83.84 198.285 84.16 199.378 84.8L198.858 85.38C197.872 84.8467 196.845 84.58 195.778 84.58C194.018 84.58 192.512 85.2133 191.258 86.48C190.005 87.7467 189.378 89.26 189.378 91.02C189.378 92.78 190.005 94.2867 191.258 95.54C192.512 96.7933 194.018 97.42 195.778 97.42C196.858 97.42 197.878 97.16 198.838 96.64ZM210.77 94.26C210.77 95.34 210.39 96.2667 209.63 97.04C208.87 97.8 207.944 98.18 206.85 98.18C205.77 98.18 204.85 97.8 204.09 97.04C203.33 96.2667 202.95 95.3467 202.95 94.28C202.95 93.2 203.33 92.28 204.09 91.52C204.85 90.7467 205.77 90.36 206.85 90.36C207.944 90.36 208.87 90.74 209.63 91.5C210.39 92.26 210.77 93.18 210.77 94.26ZM203.69 94.26C203.69 95.18 203.984 95.9533 204.57 96.58C205.17 97.2067 205.93 97.52 206.85 97.52C207.784 97.52 208.544 97.2067 209.13 96.58C209.73 95.9533 210.03 95.18 210.03 94.26C210.03 93.3267 209.73 92.5533 209.13 91.94C208.544 91.3267 207.784 91.02 206.85 91.02C205.93 91.02 205.17 91.3267 204.57 91.94C203.984 92.5533 203.69 93.3267 203.69 94.26ZM221.443 98H220.703V92.6C220.676 92.16 220.509 91.7933 220.203 91.5C219.896 91.2067 219.449 91.0467 218.863 91.02C217.983 91.02 217.223 91.2867 216.583 91.82C215.943 92.3533 215.623 93.02 215.623 93.82V98H214.883V90.52H215.543L215.623 92.52C215.903 91.8667 216.323 91.3467 216.883 90.96C217.456 90.5733 218.116 90.38 218.863 90.38C219.623 90.3667 220.236 90.5667 220.703 90.98C221.169 91.3933 221.416 91.9333 221.443 92.6V98ZM227.157 98H226.417V91.16H225.117V90.5H226.417V85.62H227.157V90.5H229.457V91.16H227.157V98ZM233.004 90.52H233.664L233.744 92.52C234.024 91.88 234.437 91.3667 234.984 90.98C235.531 90.5933 236.164 90.3867 236.884 90.36L236.864 91.02C236.037 91.0467 235.337 91.32 234.764 91.84C234.191 92.36 233.851 93.02 233.744 93.82V98H233.004V90.52ZM247.228 94.26C247.228 95.34 246.848 96.2667 246.088 97.04C245.328 97.8 244.401 98.18 243.308 98.18C242.228 98.18 241.308 97.8 240.548 97.04C239.788 96.2667 239.408 95.3467 239.408 94.28C239.408 93.2 239.788 92.28 240.548 91.52C241.308 90.7467 242.228 90.36 243.308 90.36C244.401 90.36 245.328 90.74 246.088 91.5C246.848 92.26 247.228 93.18 247.228 94.26ZM240.148 94.26C240.148 95.18 240.441 95.9533 241.028 96.58C241.628 97.2067 242.388 97.52 243.308 97.52C244.241 97.52 245.001 97.2067 245.588 96.58C246.188 95.9533 246.488 95.18 246.488 94.26C246.488 93.3267 246.188 92.5533 245.588 91.94C245.001 91.3267 244.241 91.02 243.308 91.02C242.388 91.02 241.628 91.3267 241.028 91.94C240.441 92.5533 240.148 93.3267 240.148 94.26ZM251.56 98H250.84V83H251.56V98Z" fill="black" fill-opacity="0.8"/>
<path d="M48.22 84H48.72V83.5H48.22V84ZM48.22 98.64L47.8414 98.9666L48.72 99.9853V98.64H48.22ZM37.06 85.7L36.6563 85.995L36.6682 86.0113L36.6814 86.0266L37.06 85.7ZM36.68 85.18L37.0837 84.885L36.0128 83.4195L36.1822 85.2267L36.68 85.18ZM36.74 85.82H37.24V85.7966L37.2378 85.7733L36.74 85.82ZM36.74 98V98.5H37.24V98H36.74ZM36 98H35.5V98.5H36V98ZM36 83.36L36.3786 83.0334L35.5 82.0147V83.36H36ZM47.16 96.3L47.5637 96.005L47.5518 95.9887L47.5386 95.9734L47.16 96.3ZM47.54 96.82L47.1363 97.115L48.2072 98.5805L48.0378 96.7733L47.54 96.82ZM47.48 96.18H46.98V96.2034L46.9822 96.2267L47.48 96.18ZM47.48 84V83.5H46.98V84H47.48ZM47.72 84V98.64H48.72V84H47.72ZM48.5986 98.3134L37.4386 85.3734L36.6814 86.0266L47.8414 98.9666L48.5986 98.3134ZM37.4637 85.405L37.0837 84.885L36.2763 85.475L36.6563 85.995L37.4637 85.405ZM36.1822 85.2267L36.2422 85.8667L37.2378 85.7733L37.1778 85.1333L36.1822 85.2267ZM36.24 85.82V98H37.24V85.82H36.24ZM36.74 97.5H36V98.5H36.74V97.5ZM36.5 98V83.36H35.5V98H36.5ZM35.6214 83.6865L46.7814 96.6266L47.5386 95.9734L36.3786 83.0334L35.6214 83.6865ZM46.7563 96.595L47.1363 97.115L47.9437 96.525L47.5637 96.005L46.7563 96.595ZM48.0378 96.7733L47.9778 96.1333L46.9822 96.2267L47.0422 96.8667L48.0378 96.7733ZM47.98 96.18V84H46.98V96.18H47.98ZM47.48 84.5H48.22V83.5H47.48V84.5ZM59.8822 93.08L60.0628 93.5462L60.5051 93.3749L60.3573 92.9242L59.8822 93.08ZM53.4822 95.56L53.3015 95.0938L52.8302 95.2764L53.0179 95.7457L53.4822 95.56ZM54.6022 97L54.3126 97.4076L54.3176 97.4111L54.6022 97ZM58.5822 96.72L58.8945 96.3296L58.5573 96.0598L58.2413 96.3542L58.5822 96.72ZM59.0822 97.12L59.4293 97.4799L59.8388 97.085L59.3945 96.7296L59.0822 97.12ZM53.6622 97.06L53.3056 97.4105L53.3086 97.4136L53.6622 97.06ZM53.6622 91.54L54.0158 91.8936L54.0188 91.8905L53.6622 91.54ZM58.5822 91.12L58.2604 91.5027L58.2646 91.5062L58.5822 91.12ZM53.3022 94.9L52.8047 94.9498L52.8701 95.604L53.4831 95.3661L53.3022 94.9ZM59.0222 92.68L59.2031 93.1461L59.7149 92.9475L59.4694 92.4564L59.0222 92.68ZM54.1422 91.96L53.7847 91.6103L53.7809 91.6144L54.1422 91.96ZM59.7015 92.6138L53.3015 95.0938L53.6628 96.0262L60.0628 93.5462L59.7015 92.6138ZM53.0179 95.7457C53.2921 96.4312 53.7244 96.9897 54.3126 97.4076L54.8918 96.5924C54.4667 96.2903 54.1522 95.8888 53.9464 95.3743L53.0179 95.7457ZM54.3176 97.4111C54.9383 97.8408 55.6901 98.04 56.5422 98.04V97.04C55.8476 97.04 55.3061 96.8792 54.8868 96.5889L54.3176 97.4111ZM56.5422 98.04C57.4471 98.04 58.2476 97.7152 58.9231 97.0858L58.2413 96.3542C57.7434 96.8181 57.1839 97.04 56.5422 97.04V98.04ZM58.2698 97.1104L58.7698 97.5104L59.3945 96.7296L58.8945 96.3296L58.2698 97.1104ZM58.7351 96.7601C58.0832 97.3887 57.3083 97.7 56.3822 97.7V98.7C57.5627 98.7 58.5878 98.2913 59.4293 97.4799L58.7351 96.7601ZM56.3822 97.7C55.4645 97.7 54.6841 97.3748 54.0157 96.7064L53.3086 97.4136C54.1603 98.2652 55.1932 98.7 56.3822 98.7V97.7ZM54.0188 96.7095C53.349 96.028 53.0222 95.2332 53.0222 94.3H52.0222C52.0222 95.5002 52.4554 96.5454 53.3056 97.4105L54.0188 96.7095ZM53.0222 94.3C53.0222 93.3519 53.35 92.5593 54.0157 91.8936L53.3086 91.1864C52.4544 92.0407 52.0222 93.0881 52.0222 94.3H53.0222ZM54.0188 91.8905C54.6852 91.2124 55.4769 90.88 56.4222 90.88V89.88C55.2075 89.88 54.1592 90.321 53.3056 91.1895L54.0188 91.8905ZM56.4222 90.88C57.172 90.88 57.7742 91.0938 58.2604 91.5027L58.904 90.7373C58.2169 90.1595 57.379 89.88 56.4222 89.88V90.88ZM58.2646 91.5062C58.7839 91.9332 59.1669 92.5031 59.4071 93.2358L60.3573 92.9242C60.0642 92.0302 59.5804 91.2935 58.8997 90.7338L58.2646 91.5062ZM52.7622 94.28C52.7622 94.4516 52.7775 94.6777 52.8047 94.9498L53.7997 94.8502C53.7736 94.589 53.7622 94.4017 53.7622 94.28H52.7622ZM53.4831 95.3661L59.2031 93.1461L58.8413 92.2139L53.1213 94.4339L53.4831 95.3661ZM59.4694 92.4564C59.1632 91.8439 58.7532 91.3578 58.2289 91.0271C57.7038 90.6958 57.0947 90.54 56.4222 90.54V91.54C56.9363 91.54 57.3539 91.6575 57.6954 91.8729C58.0378 92.0889 58.3345 92.4227 58.575 92.9036L59.4694 92.4564ZM56.4222 90.54C55.3785 90.54 54.4861 90.8934 53.7848 91.6104L54.4996 92.3096C54.9983 91.7999 55.6259 91.54 56.4222 91.54V90.54ZM53.7809 91.6144C53.096 92.3304 52.7622 93.2319 52.7622 94.28H53.7622C53.7622 93.4614 54.0151 92.8162 54.5035 92.3056L53.7809 91.6144ZM72.5834 96.96L72.1365 97.1842L72.5834 98.0753L73.0304 97.1842L72.5834 96.96ZM75.8234 90.5V90H75.5148L75.3765 90.2758L75.8234 90.5ZM76.6034 90.5L77.0498 90.7254L77.4161 90H76.6034V90.5ZM72.5834 98.46L72.1376 98.6862L72.5845 99.5671L73.0298 98.6854L72.5834 98.46ZM69.8434 93.06L70.2893 92.8338L69.8418 91.9518L69.3969 92.8351L69.8434 93.06ZM67.1234 98.46L66.6771 98.6854L67.124 99.5703L67.57 98.6849L67.1234 98.46ZM63.1034 90.5V90H62.2908L62.6571 90.7254L63.1034 90.5ZM63.8834 90.5L64.3304 90.2758L64.192 90H63.8834V90.5ZM67.1234 96.96L66.6765 97.1842L67.1232 98.0747L67.5703 97.1844L67.1234 96.96ZM69.4634 92.3L69.9103 92.5244L70.0227 92.3005L69.9107 92.0764L69.4634 92.3ZM68.5634 90.5V90H67.7544L68.1162 90.7236L68.5634 90.5ZM69.3434 90.5L69.7904 90.2758L69.652 90H69.3434V90.5ZM73.0304 97.1842L76.2704 90.7242L75.3765 90.2758L72.1365 96.7358L73.0304 97.1842ZM75.8234 91H76.6034V90H75.8234V91ZM76.1571 90.2746L72.1371 98.2346L73.0298 98.6854L77.0498 90.7254L76.1571 90.2746ZM73.0293 98.2338L70.2893 92.8338L69.3976 93.2862L72.1376 98.6862L73.0293 98.2338ZM69.3969 92.8351L66.6769 98.2351L67.57 98.6849L70.29 93.2849L69.3969 92.8351ZM67.5698 98.2346L63.5498 90.2746L62.6571 90.7254L66.6771 98.6854L67.5698 98.2346ZM63.1034 91H63.8834V90H63.1034V91ZM63.4365 90.7242L66.6765 97.1842L67.5704 96.7358L64.3304 90.2758L63.4365 90.7242ZM67.5703 97.1844L69.9103 92.5244L69.0166 92.0756L66.6766 96.7356L67.5703 97.1844ZM69.9107 92.0764L69.0107 90.2764L68.1162 90.7236L69.0162 92.5236L69.9107 92.0764ZM68.5634 91H69.3434V90H68.5634V91ZM68.8965 90.7242L72.1365 97.1842L73.0304 96.7358L69.7904 90.2758L68.8965 90.7242ZM89.4488 84V83.5H88.9488V84H89.4488ZM90.1888 84H90.6888V83.5H90.1888V84ZM90.1888 98V98.5H90.6888V98H90.1888ZM89.4488 98H88.9488V98.5H89.4488V98ZM89.4488 84.5H90.1888V83.5H89.4488V84.5ZM89.6888 84V98H90.6888V84H89.6888ZM90.1888 97.5H89.4488V98.5H90.1888V97.5ZM89.9488 98V84H88.9488V98H89.9488ZM101.974 98V98.5H102.474V98H101.974ZM101.234 98H100.734V98.5H101.234V98ZM101.234 92.6H101.734V92.5849L101.733 92.5698L101.234 92.6ZM100.734 91.5L101.08 91.1387L101.08 91.1387L100.734 91.5ZM99.3941 91.02L99.4168 90.5205L99.4054 90.52H99.3941V91.02ZM97.1141 91.82L96.794 91.4359L96.794 91.4359L97.1141 91.82ZM96.1541 98V98.5H96.6541V98H96.1541ZM95.4141 98H94.9141V98.5H95.4141V98ZM95.4141 90.52V90.02H94.9141V90.52H95.4141ZM96.0741 90.52L96.5737 90.5L96.5545 90.02H96.0741V90.52ZM96.1541 92.52L95.6545 92.54L96.6136 92.717L96.1541 92.52ZM97.4141 90.96L97.1345 90.5454L97.13 90.5486L97.4141 90.96ZM99.3941 90.38V90.8801L99.4028 90.8799L99.3941 90.38ZM101.234 90.98L100.903 91.3543L100.903 91.3543L101.234 90.98ZM101.974 92.6H102.474V92.59L102.474 92.58L101.974 92.6ZM101.974 97.5H101.234V98.5H101.974V97.5ZM101.734 98V92.6H100.734V98H101.734ZM101.733 92.5698C101.699 92.0094 101.481 91.5227 101.08 91.1387L100.388 91.8613C100.6 92.0639 100.716 92.3106 100.735 92.6302L101.733 92.5698ZM101.08 91.1387C100.657 90.7345 100.078 90.5506 99.4168 90.5205L99.3714 91.5195C99.8836 91.5428 100.198 91.6789 100.388 91.8613L101.08 91.1387ZM99.3941 90.52C98.4042 90.52 97.5292 90.8232 96.794 91.4359L97.4342 92.2041C97.979 91.7501 98.6239 91.52 99.3941 91.52V90.52ZM96.794 91.4359C96.0454 92.0597 95.6541 92.8647 95.6541 93.82H96.6541C96.6541 93.1753 96.9027 92.647 97.4342 92.2041L96.794 91.4359ZM95.6541 93.82V98H96.6541V93.82H95.6541ZM96.1541 97.5H95.4141V98.5H96.1541V97.5ZM95.9141 98V90.52H94.9141V98H95.9141ZM95.4141 91.02H96.0741V90.02H95.4141V91.02ZM95.5745 90.54L95.6545 92.54L96.6537 92.5L96.5737 90.5L95.5745 90.54ZM96.6136 92.717C96.8583 92.1462 97.2192 91.7021 97.6982 91.3714L97.13 90.5486C96.4889 90.9912 96.0099 91.5872 95.6945 92.323L96.6136 92.717ZM97.6936 91.3745C98.1777 91.0481 98.7387 90.88 99.3941 90.88V89.88C98.5561 89.88 97.7971 90.0986 97.1345 90.5455L97.6936 91.3745ZM99.4028 90.8799C100.067 90.8683 100.549 91.0413 100.903 91.3543L101.566 90.6057C100.986 90.092 100.242 89.8651 99.3853 89.8801L99.4028 90.8799ZM100.903 91.3543C101.26 91.6705 101.453 92.0787 101.474 92.62L102.474 92.58C102.442 91.7879 102.142 91.1162 101.566 90.6057L100.903 91.3543ZM101.474 92.6V98H102.474V92.6H101.474ZM113.493 98V98.5H113.993V98H113.493ZM112.753 98H112.253V98.5H112.753V98ZM112.753 96.8L112.254 96.7667L112.253 96.7834V96.8H112.753ZM112.813 95.9L113.312 95.9333L112.351 95.7096L112.813 95.9ZM111.513 97.56L111.801 97.9688L111.807 97.9644L111.513 97.56ZM106.733 97.04L106.377 97.3905L106.38 97.3936L106.733 97.04ZM106.733 91.52L107.087 91.8736L107.09 91.8705L106.733 91.52ZM112.753 92.56L112.292 92.7536L113.253 92.56H112.753ZM112.753 83V82.5H112.253V83H112.753ZM113.493 83H113.993V82.5H113.493V83ZM107.213 96.58L106.848 96.9217L106.852 96.9258L107.213 96.58ZM111.773 96.58L111.412 96.2342L111.408 96.2383L111.773 96.58ZM111.773 91.94L111.412 92.2856L111.416 92.2896L111.773 91.94ZM107.213 91.94L106.856 91.5903L106.852 91.5944L107.213 91.94ZM113.493 97.5H112.753V98.5H113.493V97.5ZM113.253 98V96.8H112.253V98H113.253ZM113.252 96.8333L113.312 95.9333L112.314 95.8667L112.254 96.7667L113.252 96.8333ZM112.351 95.7096C112.106 96.3053 111.73 96.7841 111.219 97.1556L111.807 97.9644C112.47 97.4825 112.961 96.8547 113.276 96.0904L112.351 95.7096ZM111.225 97.1513C110.728 97.5016 110.157 97.68 109.493 97.68V98.68C110.35 98.68 111.125 98.4451 111.801 97.9687L111.225 97.1513ZM109.493 97.68C108.545 97.68 107.753 97.3522 107.087 96.6864L106.38 97.3936C107.234 98.2478 108.281 98.68 109.493 98.68V97.68ZM107.09 96.6895C106.42 96.008 106.093 95.2132 106.093 94.28H105.093C105.093 95.4802 105.526 96.5254 106.377 97.3905L107.09 96.6895ZM106.093 94.28C106.093 93.3319 106.421 92.5393 107.087 91.8736L106.38 91.1664C105.525 92.0207 105.093 93.0681 105.093 94.28H106.093ZM107.09 91.8705C107.756 91.1924 108.548 90.86 109.493 90.86V89.86C108.279 89.86 107.23 90.301 106.377 91.1695L107.09 91.8705ZM109.493 90.86C110.176 90.86 110.738 91.0348 111.203 91.3669L111.784 90.5531C111.129 90.0852 110.357 89.86 109.493 89.86V90.86ZM111.203 91.3669C111.683 91.7102 112.046 92.1679 112.292 92.7536L113.214 92.3664C112.9 91.6187 112.423 91.0098 111.784 90.5531L111.203 91.3669ZM113.253 92.56V83H112.253V92.56H113.253ZM112.753 83.5H113.493V82.5H112.753V83.5ZM112.993 83V98H113.993V83H112.993ZM105.833 94.26C105.833 95.2969 106.168 96.1954 106.848 96.9217L107.578 96.2383C107.085 95.7113 106.833 95.0631 106.833 94.26H105.833ZM106.852 96.9258C107.553 97.6574 108.446 98.02 109.493 98.02V97.02C108.7 97.02 108.074 96.7559 107.574 96.2342L106.852 96.9258ZM109.493 98.02C110.551 98.02 111.448 97.6588 112.138 96.9217L111.408 96.2383C110.925 96.7546 110.302 97.02 109.493 97.02V98.02ZM112.134 96.9258C112.829 96.2 113.173 95.3003 113.173 94.26H112.173C112.173 95.0597 111.917 95.7066 111.412 96.2342L112.134 96.9258ZM113.173 94.26C113.173 93.2086 112.831 92.3058 112.131 91.5904L111.416 92.2896C111.916 92.8009 112.173 93.4448 112.173 94.26H113.173ZM112.135 91.5944C111.444 90.8721 110.548 90.52 109.493 90.52V91.52C110.305 91.52 110.93 91.7813 111.412 92.2856L112.135 91.5944ZM109.493 90.52C108.45 90.52 107.557 90.8734 106.856 91.5904L107.571 92.2896C108.069 91.7799 108.697 91.52 109.493 91.52V90.52ZM106.852 91.5944C106.167 92.3104 105.833 93.2119 105.833 94.26H106.833C106.833 93.4414 107.086 92.7962 107.575 92.2856L106.852 91.5944ZM118.54 98V98.5H119.04V98H118.54ZM117.8 98H117.3V98.5H117.8V98ZM117.8 90.5V90H117.3V90.5H117.8ZM118.54 90.5H119.04V90H118.54V90.5ZM118.68 88.04L118.345 87.6684L118.336 87.6771L118.326 87.6864L118.68 88.04ZM117.8 88.04L117.446 88.3936L117.456 88.4029L117.465 88.4116L117.8 88.04ZM117.82 87.14L118.154 87.5116L118.164 87.5029L118.173 87.4936L117.82 87.14ZM118.68 87.14L118.308 87.4745L118.326 87.494L118.345 87.5116L118.68 87.14ZM118.54 97.5H117.8V98.5H118.54V97.5ZM118.3 98V90.5H117.3V98H118.3ZM117.8 91H118.54V90H117.8V91ZM118.04 90.5V98H119.04V90.5H118.04ZM118.38 87.6C118.38 87.6208 118.376 87.6296 118.375 87.6331C118.373 87.637 118.367 87.6491 118.345 87.6684L119.014 88.4116C119.249 88.2006 119.38 87.9206 119.38 87.6H118.38ZM118.326 87.6864C118.302 87.7105 118.284 87.72 118.24 87.72V88.72C118.543 88.72 118.817 88.6095 119.033 88.3936L118.326 87.6864ZM118.24 87.72C118.219 87.72 118.188 87.7165 118.134 87.6684L117.465 88.4116C117.679 88.6035 117.941 88.72 118.24 88.72V87.72ZM118.153 87.6864C118.129 87.6624 118.12 87.6439 118.12 87.6H117.12C117.12 87.9028 117.23 88.1776 117.446 88.3936L118.153 87.6864ZM118.12 87.6C118.12 87.5485 118.131 87.5325 118.154 87.5116L117.485 86.7684C117.242 86.9875 117.12 87.2781 117.12 87.6H118.12ZM118.173 87.4936C118.231 87.436 118.256 87.44 118.26 87.44V86.44C117.944 86.44 117.675 86.5774 117.466 86.7864L118.173 87.4936ZM118.26 87.44C118.265 87.44 118.267 87.4405 118.268 87.4406C118.268 87.4407 118.269 87.4408 118.27 87.4414C118.272 87.4424 118.285 87.4491 118.308 87.4745L119.051 86.8055C118.849 86.581 118.58 86.44 118.26 86.44V87.44ZM118.345 87.5116C118.369 87.5325 118.38 87.5485 118.38 87.6H119.38C119.38 87.2781 119.258 86.9875 119.014 86.7684L118.345 87.5116ZM130.091 98V98.5H130.591V98H130.091ZM129.351 98H128.851V98.5H129.351V98ZM129.351 96.8L128.852 96.7667L128.851 96.7834V96.8H129.351ZM129.411 95.9L129.91 95.9333L128.949 95.7096L129.411 95.9ZM128.111 97.56L128.399 97.9688L128.405 97.9644L128.111 97.56ZM123.331 97.04L122.974 97.3905L122.977 97.3936L123.331 97.04ZM123.331 91.52L123.685 91.8736L123.688 91.8705L123.331 91.52ZM129.351 92.56L128.89 92.7536L129.85 92.5842L129.351 92.56ZM129.451 90.5V90H128.975L128.952 90.4758L129.451 90.5ZM130.091 90.5H130.591V90H130.091V90.5ZM123.811 96.58L123.446 96.9217L123.45 96.9258L123.811 96.58ZM128.371 96.58L128.01 96.2342L128.006 96.2383L128.371 96.58ZM128.371 91.94L128.01 92.2856L128.014 92.2896L128.371 91.94ZM123.811 91.94L123.453 91.5903L123.45 91.5944L123.811 91.94ZM130.091 97.5H129.351V98.5H130.091V97.5ZM129.851 98V96.8H128.851V98H129.851ZM129.85 96.8333L129.91 95.9333L128.912 95.8667L128.852 96.7667L129.85 96.8333ZM128.949 95.7096C128.703 96.3053 128.328 96.7841 127.817 97.1556L128.405 97.9644C129.068 97.4825 129.559 96.8547 129.873 96.0904L128.949 95.7096ZM127.823 97.1513C127.326 97.5016 126.754 97.68 126.091 97.68V98.68C126.948 98.68 127.723 98.4451 128.399 97.9687L127.823 97.1513ZM126.091 97.68C125.143 97.68 124.35 97.3522 123.684 96.6864L122.977 97.3936C123.832 98.2478 124.879 98.68 126.091 98.68V97.68ZM123.688 96.6895C123.018 96.008 122.691 95.2132 122.691 94.28H121.691C121.691 95.4802 122.124 96.5254 122.974 97.3905L123.688 96.6895ZM122.691 94.28C122.691 93.3319 123.019 92.5393 123.684 91.8736L122.977 91.1664C122.123 92.0207 121.691 93.0681 121.691 94.28H122.691ZM123.688 91.8705C124.354 91.1924 125.146 90.86 126.091 90.86V89.86C124.876 89.86 123.828 90.301 122.974 91.1695L123.688 91.8705ZM126.091 90.86C126.774 90.86 127.335 91.0348 127.8 91.3669L128.382 90.5531C127.726 90.0852 126.955 89.86 126.091 89.86V90.86ZM127.8 91.3669C128.281 91.7102 128.644 92.1679 128.89 92.7536L129.812 92.3664C129.498 91.6187 129.021 91.0098 128.382 90.5531L127.8 91.3669ZM129.85 92.5842L129.95 90.5242L128.952 90.4758L128.852 92.5358L129.85 92.5842ZM129.451 91H130.091V90H129.451V91ZM129.591 90.5V98H130.591V90.5H129.591ZM122.431 94.26C122.431 95.2969 122.766 96.1954 123.446 96.9217L124.176 96.2383C123.683 95.7113 123.431 95.0631 123.431 94.26H122.431ZM123.45 96.9258C124.15 97.6574 125.044 98.02 126.091 98.02V97.02C125.298 97.02 124.672 96.7559 124.172 96.2342L123.45 96.9258ZM126.091 98.02C127.149 98.02 128.046 97.6588 128.736 96.9217L128.006 96.2383C127.523 96.7546 126.899 97.02 126.091 97.02V98.02ZM128.732 96.9258C129.427 96.2 129.771 95.3003 129.771 94.26H128.771C128.771 95.0597 128.515 95.7066 128.01 96.2342L128.732 96.9258ZM129.771 94.26C129.771 93.2086 129.428 92.3058 128.728 91.5904L128.014 92.2896C128.514 92.8009 128.771 93.4448 128.771 94.26H129.771ZM128.732 91.5944C128.041 90.8721 127.146 90.52 126.091 90.52V91.52C126.903 91.52 127.527 91.7813 128.01 92.2856L128.732 91.5944ZM126.091 90.52C125.047 90.52 124.155 90.8734 123.454 91.5904L124.168 92.2896C124.667 91.7799 125.295 91.52 126.091 91.52V90.52ZM123.45 91.5944C122.765 92.3104 122.431 93.2119 122.431 94.26H123.431C123.431 93.4414 123.684 92.7962 124.172 92.2856L123.45 91.5944ZM144.223 98H143.723V98.5H144.223V98ZM144.223 84V83.5H143.723V84H144.223ZM150.503 85.54L150.118 85.8596L150.119 85.861L150.503 85.54ZM150.143 90.36L150.482 90.7269L150.486 90.7235L150.143 90.36ZM144.963 91.36V90.86H144.463V91.36H144.963ZM144.963 98V98.5H145.463V98H144.963ZM144.963 90.7H144.463V91.2H144.963V90.7ZM150.303 88.66L149.832 88.4906L149.828 88.5019L150.303 88.66ZM149.463 85.54L149.132 85.9154L149.136 85.9186L149.463 85.54ZM144.963 84.66V84.16H144.463V84.66H144.963ZM144.723 98V84H143.723V98H144.723ZM144.223 84.5H147.103V83.5H144.223V84.5ZM147.103 84.5C148.377 84.5 149.366 84.9547 150.118 85.8596L150.887 85.2204C149.933 84.072 148.655 83.5 147.103 83.5V84.5ZM150.119 85.861C150.518 86.3378 150.723 86.9085 150.723 87.6H151.723C151.723 86.6915 151.447 85.8889 150.886 85.219L150.119 85.861ZM150.723 87.6C150.723 88.6481 150.402 89.4272 149.799 89.9965L150.486 90.7235C151.323 89.9328 151.723 88.8719 151.723 87.6H150.723ZM149.803 89.9931C149.203 90.5491 148.326 90.86 147.103 90.86V91.86C148.493 91.86 149.643 91.5043 150.482 90.7269L149.803 89.9931ZM147.103 90.86H144.963V91.86H147.103V90.86ZM144.463 91.36V98H145.463V91.36H144.463ZM144.963 97.5H144.223V98.5H144.963V97.5ZM144.963 91.2H147.003V90.2H144.963V91.2ZM147.003 91.2C147.937 91.2 148.748 91.0184 149.401 90.6153C150.061 90.207 150.518 89.5963 150.777 88.8181L149.828 88.5019C149.634 89.0837 149.314 89.493 148.875 89.7647C148.427 90.0416 147.815 90.2 147.003 90.2V91.2ZM150.773 88.8294C150.914 88.4388 150.983 88.0279 150.983 87.6H149.983C149.983 87.9187 149.932 88.2145 149.832 88.4906L150.773 88.8294ZM150.983 87.6C150.983 86.6465 150.562 85.8281 149.789 85.1614L149.136 85.9186C149.723 86.4252 149.983 86.9802 149.983 87.6H150.983ZM149.793 85.1646C149.027 84.4909 148.094 84.16 147.023 84.16V85.16C147.872 85.16 148.565 85.4158 149.132 85.9154L149.793 85.1646ZM147.023 84.16H144.963V85.16H147.023V84.16ZM144.463 84.66V90.7H145.463V84.66H144.463ZM160.663 93.08L160.844 93.5462L161.286 93.3749L161.139 92.9242L160.663 93.08ZM154.263 95.56L154.083 95.0938L153.611 95.2764L153.799 95.7457L154.263 95.56ZM155.383 97L155.094 97.4076L155.099 97.4111L155.383 97ZM159.363 96.72L159.676 96.3296L159.339 96.0598L159.023 96.3542L159.363 96.72ZM159.863 97.12L160.211 97.4799L160.62 97.085L160.176 96.7296L159.863 97.12ZM154.443 97.06L154.087 97.4105L154.09 97.4136L154.443 97.06ZM154.443 91.54L154.797 91.8936L154.8 91.8905L154.443 91.54ZM159.363 91.12L159.042 91.5027L159.046 91.5062L159.363 91.12ZM154.083 94.9L153.586 94.9498L153.651 95.604L154.264 95.3661L154.083 94.9ZM159.803 92.68L159.984 93.1461L160.496 92.9475L160.251 92.4564L159.803 92.68ZM154.923 91.96L154.566 91.6103L154.562 91.6144L154.923 91.96ZM160.483 92.6138L154.083 95.0938L154.444 96.0262L160.844 93.5462L160.483 92.6138ZM153.799 95.7457C154.073 96.4312 154.506 96.9897 155.094 97.4076L155.673 96.5924C155.248 96.2903 154.933 95.8888 154.728 95.3743L153.799 95.7457ZM155.099 97.4111C155.72 97.8408 156.471 98.04 157.323 98.04V97.04C156.629 97.04 156.087 96.8792 155.668 96.5889L155.099 97.4111ZM157.323 98.04C158.228 98.04 159.029 97.7152 159.704 97.0858L159.023 96.3542C158.525 96.8181 157.965 97.04 157.323 97.04V98.04ZM159.051 97.1104L159.551 97.5104L160.176 96.7296L159.676 96.3296L159.051 97.1104ZM159.516 96.7601C158.864 97.3887 158.09 97.7 157.163 97.7V98.7C158.344 98.7 159.369 98.2913 160.211 97.4799L159.516 96.7601ZM157.163 97.7C156.246 97.7 155.465 97.3748 154.797 96.7064L154.09 97.4136C154.942 98.2652 155.974 98.7 157.163 98.7V97.7ZM154.8 96.7095C154.13 96.028 153.803 95.2332 153.803 94.3H152.803C152.803 95.5002 153.237 96.5454 154.087 97.4105L154.8 96.7095ZM153.803 94.3C153.803 93.3519 154.131 92.5593 154.797 91.8936L154.09 91.1864C153.236 92.0407 152.803 93.0881 152.803 94.3H153.803ZM154.8 91.8905C155.466 91.2124 156.258 90.88 157.203 90.88V89.88C155.989 89.88 154.94 90.321 154.087 91.1895L154.8 91.8905ZM157.203 90.88C157.953 90.88 158.555 91.0938 159.042 91.5027L159.685 90.7373C158.998 90.1595 158.16 89.88 157.203 89.88V90.88ZM159.046 91.5062C159.565 91.9332 159.948 92.5031 160.188 93.2358L161.139 92.9242C160.845 92.0302 160.362 91.2935 159.681 90.7338L159.046 91.5062ZM153.543 94.28C153.543 94.4516 153.559 94.6777 153.586 94.9498L154.581 94.8502C154.555 94.589 154.543 94.4017 154.543 94.28H153.543ZM154.264 95.3661L159.984 93.1461L159.623 92.2139L153.903 94.4339L154.264 95.3661ZM160.251 92.4564C159.944 91.8439 159.534 91.3578 159.01 91.0271C158.485 90.6958 157.876 90.54 157.203 90.54V91.54C157.718 91.54 158.135 91.6575 158.477 91.8729C158.819 92.0889 159.116 92.4227 159.356 92.9036L160.251 92.4564ZM157.203 90.54C156.16 90.54 155.267 90.8934 154.566 91.6104L155.281 92.3096C155.78 91.7999 156.407 91.54 157.203 91.54V90.54ZM154.562 91.6144C153.877 92.3304 153.543 93.2319 153.543 94.28H154.543C154.543 93.4614 154.796 92.8162 155.285 92.3056L154.562 91.6144ZM168.551 91.26L168.955 91.555L169.192 91.2303L168.926 90.9289L168.551 91.26ZM168.171 91.78L167.787 92.1001L168.197 92.5921L168.575 92.075L168.171 91.78ZM167.471 91.3L167.248 91.7473L167.255 91.7508L167.471 91.3ZM165.571 91.38L165.268 90.9822L165.259 90.9896L165.571 91.38ZM165.451 93.18L165.098 93.5336L165.11 93.5462L165.124 93.5578L165.451 93.18ZM166.311 93.64L166.143 94.1109L166.151 94.1136L166.158 94.116L166.311 93.64ZM167.211 93.98L166.998 94.4324L167.009 94.4377L167.021 94.4423L167.211 93.98ZM167.971 94.4L167.694 94.816L167.702 94.8212L167.71 94.8262L167.971 94.4ZM168.231 97.48L167.857 97.1485L167.856 97.1492L168.231 97.48ZM164.191 97.22L163.804 96.9042L163.551 97.2146L163.798 97.5293L164.191 97.22ZM164.631 96.68L165.034 96.3834L164.651 95.8641L164.244 96.3642L164.631 96.68ZM165.491 97.3L165.3 97.762L165.306 97.7642L165.491 97.3ZM166.591 97.5L166.553 97.0015L166.551 97.0016L166.591 97.5ZM167.611 97.08L167.309 96.6819L167.309 96.6819L167.611 97.08ZM167.011 94.6L166.819 95.0615L166.826 95.0644L166.833 95.0671L167.011 94.6ZM166.551 94.44L166.393 94.9143L166.406 94.9187L166.42 94.9224L166.551 94.44ZM166.071 94.28L165.892 94.7467L165.902 94.7507L165.913 94.7543L166.071 94.28ZM165.731 94.16L165.573 94.6343L165.591 94.6404L165.61 94.6451L165.731 94.16ZM165.431 94.04L165.192 94.4789L165.215 94.4915L165.239 94.5015L165.431 94.04ZM165.111 93.86L164.758 94.2136L164.801 94.2571L164.854 94.2887L165.111 93.86ZM164.871 93.64L164.518 93.9936L164.529 94.0053L164.542 94.0163L164.871 93.64ZM164.651 93.32L165.119 93.1444L165.113 93.1285L165.106 93.1131L164.651 93.32ZM165.071 90.96L165.4 91.337L165.401 91.3363L165.071 90.96ZM168.148 90.965L167.768 91.485L168.575 92.075L168.955 91.555L168.148 90.965ZM168.555 91.4599C168.353 91.2175 168.043 91.0198 167.688 90.8492L167.255 91.7508C167.566 91.9002 167.723 92.0225 167.787 92.1001L168.555 91.4599ZM167.695 90.8528C167.311 90.6607 166.908 90.56 166.491 90.56V91.56C166.741 91.56 166.992 91.6193 167.248 91.7472L167.695 90.8528ZM166.491 90.56C166.042 90.56 165.63 90.7066 165.268 90.9823L165.874 91.7777C166.072 91.6268 166.274 91.56 166.491 91.56V90.56ZM165.259 90.9896C164.853 91.3146 164.671 91.7772 164.671 92.3H165.671C165.671 92.0228 165.757 91.8721 165.884 91.7704L165.259 90.9896ZM164.671 92.3C164.671 92.7654 164.779 93.2144 165.098 93.5336L165.805 92.8264C165.751 92.7723 165.671 92.6346 165.671 92.3H164.671ZM165.124 93.5578C165.388 93.7868 165.738 93.9661 166.143 94.1109L166.479 93.1691C166.138 93.0473 165.915 92.9199 165.779 92.8022L165.124 93.5578ZM166.158 94.116C166.521 94.2327 166.799 94.3385 166.998 94.4324L167.424 93.5276C167.17 93.4082 166.848 93.2873 166.464 93.164L166.158 94.116ZM167.021 94.4423C167.208 94.5195 167.432 94.6414 167.694 94.816L168.249 93.984C167.951 93.7853 167.668 93.6272 167.402 93.5177L167.021 94.4423ZM167.71 94.8262C168.17 95.1085 168.351 95.4444 168.351 95.86H169.351C169.351 95.0489 168.946 94.4115 168.233 93.9738L167.71 94.8262ZM168.351 95.86C168.351 96.349 168.191 96.7716 167.857 97.1485L168.606 97.8115C169.098 97.2551 169.351 96.5977 169.351 95.86H168.351ZM167.856 97.1492C167.575 97.4684 167.147 97.66 166.491 97.66V98.66C167.355 98.66 168.088 98.3983 168.606 97.8108L167.856 97.1492ZM166.491 97.66C165.554 97.66 164.955 97.3822 164.584 96.9107L163.798 97.5293C164.414 98.3111 165.348 98.66 166.491 98.66V97.66ZM164.579 97.5358L165.019 96.9958L164.244 96.3642L163.804 96.9042L164.579 97.5358ZM164.229 96.9766C164.484 97.3237 164.856 97.5783 165.3 97.762L165.682 96.838C165.353 96.7017 165.151 96.543 165.034 96.3834L164.229 96.9766ZM165.306 97.7642C165.757 97.9449 166.202 98.0327 166.631 97.9984L166.551 97.0016C166.314 97.0206 166.025 96.9751 165.677 96.8358L165.306 97.7642ZM166.63 97.9985C167.09 97.9631 167.52 97.7776 167.914 97.4781L167.309 96.6819C167.036 96.8891 166.786 96.9836 166.553 97.0015L166.63 97.9985ZM167.914 97.4781C168.391 97.1155 168.611 96.5902 168.611 95.98H167.611C167.611 96.3298 167.498 96.5378 167.309 96.6819L167.914 97.4781ZM168.611 95.98C168.611 95.5574 168.487 95.1699 168.227 94.8433C167.973 94.5238 167.613 94.2944 167.19 94.1329L166.833 95.0671C167.143 95.1856 167.333 95.3262 167.445 95.4667C167.552 95.6001 167.611 95.7626 167.611 95.98H168.611ZM167.204 94.1385C167.026 94.0647 166.853 94.004 166.683 93.9576L166.42 94.9224C166.543 94.956 166.676 95.002 166.819 95.0615L167.204 94.1385ZM166.709 93.9657L166.229 93.8057L165.913 94.7543L166.393 94.9143L166.709 93.9657ZM166.251 93.8133C166.085 93.7495 165.941 93.6971 165.853 93.6749L165.61 94.6451C165.609 94.6447 165.614 94.6462 165.63 94.6512C165.645 94.6559 165.665 94.6626 165.69 94.6715C165.74 94.6894 165.807 94.7142 165.892 94.7467L166.251 93.8133ZM165.889 93.6857C165.89 93.6858 165.888 93.6854 165.884 93.6839C165.88 93.6824 165.875 93.6804 165.868 93.6778C165.854 93.6724 165.835 93.6651 165.812 93.6558C165.765 93.637 165.703 93.6114 165.624 93.5785L165.239 94.5015C165.392 94.5654 165.512 94.6139 165.573 94.6343L165.889 93.6857ZM165.671 93.6011C165.525 93.5215 165.426 93.4656 165.368 93.4313L164.854 94.2887C164.93 94.3344 165.044 94.3985 165.192 94.4789L165.671 93.6011ZM165.465 93.5064C165.4 93.4412 165.31 93.3592 165.201 93.2637L164.542 94.0163C164.646 94.1075 164.716 94.1721 164.758 94.2136L165.465 93.5064ZM165.225 93.2864C165.153 93.2147 165.128 93.1663 165.119 93.1444L164.183 93.4956C164.255 93.687 164.376 93.852 164.518 93.9936L165.225 93.2864ZM165.106 93.1131C164.998 92.875 164.951 92.6586 164.951 92.46H163.951C163.951 92.8214 164.038 93.1783 164.196 93.5269L165.106 93.1131ZM164.951 92.46C164.951 91.9378 165.114 91.5858 165.4 91.337L164.743 90.583C164.202 91.0542 163.951 91.7022 163.951 92.46H164.951ZM165.401 91.3363C165.74 91.0395 166.111 90.9 166.531 90.9V89.9C165.859 89.9 165.256 90.1339 164.742 90.5837L165.401 91.3363ZM166.531 90.9C167.244 90.9 167.775 91.1364 168.177 91.5911L168.926 90.9289C168.314 90.2369 167.499 89.9 166.531 89.9V90.9ZM174.638 98V98.5H175.138V98H174.638ZM173.898 98H173.398V98.5H173.898V98ZM173.898 91.16H174.398V90.66H173.898V91.16ZM172.598 91.16H172.098V91.66H172.598V91.16ZM172.598 90.5V90H172.098V90.5H172.598ZM173.898 90.5V91H174.398V90.5H173.898ZM173.898 85.62V85.12H173.398V85.62H173.898ZM174.638 85.62H175.138V85.12H174.638V85.62ZM174.638 90.5H174.138V91H174.638V90.5ZM176.938 90.5H177.438V90H176.938V90.5ZM176.938 91.16V91.66H177.438V91.16H176.938ZM174.638 91.16V90.66H174.138V91.16H174.638ZM174.638 97.5H173.898V98.5H174.638V97.5ZM174.398 98V91.16H173.398V98H174.398ZM173.898 90.66H172.598V91.66H173.898V90.66ZM173.098 91.16V90.5H172.098V91.16H173.098ZM172.598 91H173.898V90H172.598V91ZM174.398 90.5V85.62H173.398V90.5H174.398ZM173.898 86.12H174.638V85.12H173.898V86.12ZM174.138 85.62V90.5H175.138V85.62H174.138ZM174.638 91H176.938V90H174.638V91ZM176.438 90.5V91.16H177.438V90.5H176.438ZM176.938 90.66H174.638V91.66H176.938V90.66ZM174.138 91.16V98H175.138V91.16H174.138ZM198.838 96.64L199.186 96.2801L198.922 96.0261L198.6 96.2004L198.838 96.64ZM199.398 97.18L199.65 97.6119L200.221 97.2789L199.746 96.8201L199.398 97.18ZM190.718 96.08L190.363 96.4319L190.367 96.4352L190.718 96.08ZM190.718 85.94L190.365 85.5864L190.363 85.5881L190.718 85.94ZM199.378 84.8L199.751 85.1338L200.159 84.6778L199.631 84.3685L199.378 84.8ZM198.858 85.38L198.621 85.8199L198.968 86.0073L199.231 85.7138L198.858 85.38ZM191.258 86.48L190.903 86.1283L190.903 86.1283L191.258 86.48ZM191.258 95.54L190.905 95.8936L191.258 95.54ZM198.491 96.9999L199.051 97.5399L199.746 96.8201L199.186 96.2801L198.491 96.9999ZM199.147 96.7481C198.103 97.357 196.983 97.66 195.778 97.66V98.66C197.161 98.66 198.454 98.3097 199.65 97.6119L199.147 96.7481ZM195.778 97.66C193.937 97.66 192.377 97.0185 191.07 95.7248L190.367 96.4352C191.86 97.9148 193.674 98.66 195.778 98.66V97.66ZM191.074 95.7281C189.78 94.4219 189.138 92.8618 189.138 91.02H188.138C188.138 93.1249 188.884 94.9381 190.363 96.4319L191.074 95.7281ZM189.138 91.02C189.138 89.1639 189.781 87.5974 191.074 86.2919L190.363 85.5881C188.883 87.0826 188.138 88.9028 188.138 91.02H189.138ZM191.072 86.2936C192.379 84.987 193.938 84.34 195.778 84.34V83.34C193.672 83.34 191.858 84.093 190.365 85.5864L191.072 86.2936ZM195.778 84.34C196.999 84.34 198.112 84.6378 199.126 85.2315L199.631 84.3685C198.459 83.6822 197.171 83.34 195.778 83.34V84.34ZM199.006 84.4662L198.486 85.0462L199.231 85.7138L199.751 85.1338L199.006 84.4662ZM199.096 84.9401C198.04 84.3694 196.932 84.08 195.778 84.08V85.08C196.758 85.08 197.703 85.3239 198.621 85.8199L199.096 84.9401ZM195.778 84.08C193.883 84.08 192.249 84.7681 190.903 86.1283L191.614 86.8317C192.775 85.6586 194.154 85.08 195.778 85.08V84.08ZM190.903 86.1283C189.558 87.4873 188.878 89.1265 188.878 91.02H189.878C189.878 89.3935 190.452 88.006 191.614 86.8317L190.903 86.1283ZM188.878 91.02C188.878 92.9137 189.559 94.5472 190.905 95.8936L191.612 95.1864C190.452 94.0261 189.878 92.6463 189.878 91.02H188.878ZM190.905 95.8936C192.251 97.2399 193.885 97.92 195.778 97.92V96.92C194.152 96.92 192.772 96.3468 191.612 95.1864L190.905 95.8936ZM195.778 97.92C196.943 97.92 198.044 97.6388 199.077 97.0796L198.6 96.2004C197.713 96.6812 196.774 96.92 195.778 96.92V97.92ZM209.63 97.04L209.984 97.3936L209.987 97.3905L209.63 97.04ZM204.09 97.04L203.734 97.3905L203.737 97.3936L204.09 97.04ZM204.09 91.52L204.444 91.8736L204.447 91.8705L204.09 91.52ZM209.63 91.5L209.277 91.8536L209.277 91.8536L209.63 91.5ZM204.57 96.58L204.205 96.9217L204.209 96.9258L204.57 96.58ZM209.13 96.58L208.769 96.2342L208.765 96.2383L209.13 96.58ZM209.13 91.94L208.769 92.2856L208.773 92.2896L209.13 91.94ZM204.57 91.94L204.213 91.5903L204.209 91.5944L204.57 91.94ZM210.27 94.26C210.27 95.2083 209.942 96.0093 209.274 96.6895L209.987 97.3905C210.839 96.524 211.27 95.4717 211.27 94.26H210.27ZM209.277 96.6864C208.612 97.3509 207.814 97.68 206.85 97.68V98.68C208.074 98.68 209.128 98.2491 209.984 97.3936L209.277 96.6864ZM206.85 97.68C205.902 97.68 205.11 97.3522 204.444 96.6864L203.737 97.3936C204.591 98.2478 205.639 98.68 206.85 98.68V97.68ZM204.447 96.6895C203.777 96.008 203.45 95.2132 203.45 94.28H202.45C202.45 95.4802 202.884 96.5254 203.734 97.3905L204.447 96.6895ZM203.45 94.28C203.45 93.3319 203.778 92.5393 204.444 91.8736L203.737 91.1664C202.883 92.0207 202.45 93.0681 202.45 94.28H203.45ZM204.447 91.8705C205.113 91.1924 205.905 90.86 206.85 90.86V89.86C205.636 89.86 204.587 90.301 203.734 91.1695L204.447 91.8705ZM206.85 90.86C207.814 90.86 208.612 91.1891 209.277 91.8536L209.984 91.1464C209.128 90.2909 208.074 89.86 206.85 89.86V90.86ZM209.277 91.8536C209.943 92.5193 210.27 93.3119 210.27 94.26H211.27C211.27 93.0481 210.838 92.0007 209.984 91.1464L209.277 91.8536ZM203.19 94.26C203.19 95.2969 203.525 96.1954 204.205 96.9217L204.935 96.2383C204.442 95.7113 204.19 95.0631 204.19 94.26H203.19ZM204.209 96.9258C204.91 97.6574 205.803 98.02 206.85 98.02V97.02C206.058 97.02 205.431 96.7559 204.932 96.2342L204.209 96.9258ZM206.85 98.02C207.909 98.02 208.805 97.6588 209.495 96.9217L208.765 96.2383C208.282 96.7546 207.659 97.02 206.85 97.02V98.02ZM209.492 96.9258C210.186 96.2 210.53 95.3003 210.53 94.26H209.53C209.53 95.0597 209.274 95.7066 208.769 96.2342L209.492 96.9258ZM210.53 94.26C210.53 93.2086 210.188 92.3058 209.488 91.5904L208.773 92.2896C209.273 92.8009 209.53 93.4448 209.53 94.26H210.53ZM209.492 91.5944C208.801 90.8721 207.905 90.52 206.85 90.52V91.52C207.662 91.52 208.287 91.7813 208.769 92.2856L209.492 91.5944ZM206.85 90.52C205.807 90.52 204.914 90.8734 204.213 91.5904L204.928 92.2896C205.427 91.7799 206.054 91.52 206.85 91.52V90.52ZM204.209 91.5944C203.524 92.3104 203.19 93.2119 203.19 94.26H204.19C204.19 93.4414 204.443 92.7962 204.932 92.2856L204.209 91.5944ZM221.443 98V98.5H221.943V98H221.443ZM220.703 98H220.203V98.5H220.703V98ZM220.703 92.6H221.203V92.5849L221.202 92.5698L220.703 92.6ZM220.203 91.5L220.548 91.1387L220.548 91.1387L220.203 91.5ZM218.863 91.02L218.886 90.5205L218.874 90.52H218.863V91.02ZM216.583 91.82L216.263 91.4359L216.263 91.4359L216.583 91.82ZM215.623 98V98.5H216.123V98H215.623ZM214.883 98H214.383V98.5H214.883V98ZM214.883 90.52V90.02H214.383V90.52H214.883ZM215.543 90.52L216.042 90.5L216.023 90.02H215.543V90.52ZM215.623 92.52L215.123 92.54L216.082 92.717L215.623 92.52ZM216.883 90.96L216.603 90.5454L216.599 90.5486L216.883 90.96ZM218.863 90.38V90.8801L218.872 90.8799L218.863 90.38ZM220.703 90.98L220.371 91.3543L220.371 91.3543L220.703 90.98ZM221.443 92.6H221.943V92.59L221.942 92.58L221.443 92.6ZM221.443 97.5H220.703V98.5H221.443V97.5ZM221.203 98V92.6H220.203V98H221.203ZM221.202 92.5698C221.168 92.0094 220.95 91.5227 220.548 91.1387L219.857 91.8613C220.069 92.0639 220.184 92.3106 220.204 92.6302L221.202 92.5698ZM220.548 91.1387C220.126 90.7345 219.547 90.5506 218.886 90.5205L218.84 91.5195C219.352 91.5428 219.666 91.6789 219.857 91.8613L220.548 91.1387ZM218.863 90.52C217.873 90.52 216.998 90.8232 216.263 91.4359L216.903 92.2041C217.448 91.7501 218.093 91.52 218.863 91.52V90.52ZM216.263 91.4359C215.514 92.0597 215.123 92.8647 215.123 93.82H216.123C216.123 93.1753 216.371 92.647 216.903 92.2041L216.263 91.4359ZM215.123 93.82V98H216.123V93.82H215.123ZM215.623 97.5H214.883V98.5H215.623V97.5ZM215.383 98V90.52H214.383V98H215.383ZM214.883 91.02H215.543V90.02H214.883V91.02ZM215.043 90.54L215.123 92.54L216.122 92.5L216.042 90.5L215.043 90.54ZM216.082 92.717C216.327 92.1462 216.688 91.7021 217.167 91.3714L216.599 90.5486C215.958 90.9912 215.479 91.5872 215.163 92.323L216.082 92.717ZM217.162 91.3745C217.646 91.0481 218.207 90.88 218.863 90.88V89.88C218.025 89.88 217.266 90.0986 216.603 90.5455L217.162 91.3745ZM218.872 90.8799C219.535 90.8683 220.018 91.0413 220.371 91.3543L221.034 90.6057C220.454 90.092 219.71 89.8651 218.854 89.8801L218.872 90.8799ZM220.371 91.3543C220.728 91.6705 220.922 92.0787 220.943 92.62L221.942 92.58C221.911 91.7879 221.611 91.1162 221.034 90.6057L220.371 91.3543ZM220.943 92.6V98H221.943V92.6H220.943ZM227.157 98V98.5H227.657V98H227.157ZM226.417 98H225.917V98.5H226.417V98ZM226.417 91.16H226.917V90.66H226.417V91.16ZM225.117 91.16H224.617V91.66H225.117V91.16ZM225.117 90.5V90H224.617V90.5H225.117ZM226.417 90.5V91H226.917V90.5H226.417ZM226.417 85.62V85.12H225.917V85.62H226.417ZM227.157 85.62H227.657V85.12H227.157V85.62ZM227.157 90.5H226.657V91H227.157V90.5ZM229.457 90.5H229.957V90H229.457V90.5ZM229.457 91.16V91.66H229.957V91.16H229.457ZM227.157 91.16V90.66H226.657V91.16H227.157ZM227.157 97.5H226.417V98.5H227.157V97.5ZM226.917 98V91.16H225.917V98H226.917ZM226.417 90.66H225.117V91.66H226.417V90.66ZM225.617 91.16V90.5H224.617V91.16H225.617ZM225.117 91H226.417V90H225.117V91ZM226.917 90.5V85.62H225.917V90.5H226.917ZM226.417 86.12H227.157V85.12H226.417V86.12ZM226.657 85.62V90.5H227.657V85.62H226.657ZM227.157 91H229.457V90H227.157V91ZM228.957 90.5V91.16H229.957V90.5H228.957ZM229.457 90.66H227.157V91.66H229.457V90.66ZM226.657 91.16V98H227.657V91.16H226.657ZM233.004 90.52V90.02H232.504V90.52H233.004ZM233.664 90.52L234.164 90.5L234.144 90.02H233.664V90.52ZM233.744 92.52L233.244 92.54L234.202 92.7204L233.744 92.52ZM234.984 90.98L235.273 91.3882L235.273 91.3882L234.984 90.98ZM236.884 90.36L237.384 90.3751L237.4 89.8405L236.865 89.8603L236.884 90.36ZM236.864 91.02L236.88 91.5197L237.349 91.5046L237.364 91.0351L236.864 91.02ZM234.764 91.84L234.428 91.4696L234.428 91.4696L234.764 91.84ZM233.744 93.82L233.248 93.7539L233.244 93.7868V93.82H233.744ZM233.744 98V98.5H234.244V98H233.744ZM233.004 98H232.504V98.5H233.004V98ZM233.004 91.02H233.664V90.02H233.004V91.02ZM233.164 90.54L233.244 92.54L234.244 92.5L234.164 90.5L233.164 90.54ZM234.202 92.7204C234.447 92.16 234.804 91.72 235.273 91.3882L234.695 90.5718C234.071 91.0133 233.601 91.6 233.286 92.3196L234.202 92.7204ZM235.273 91.3882C235.734 91.0619 236.272 90.883 236.902 90.8597L236.865 89.8603C236.056 89.8903 235.327 90.1247 234.695 90.5718L235.273 91.3882ZM236.384 90.3449L236.364 91.0049L237.364 91.0351L237.384 90.3751L236.384 90.3449ZM236.848 90.5203C235.911 90.5505 235.096 90.8642 234.428 91.4696L235.1 92.2104C235.579 91.7758 236.163 91.5429 236.88 91.5197L236.848 90.5203ZM234.428 91.4696C233.763 92.0726 233.37 92.8422 233.248 93.7539L234.24 93.8861C234.331 93.1978 234.618 92.6474 235.1 92.2104L234.428 91.4696ZM233.244 93.82V98H234.244V93.82H233.244ZM233.744 97.5H233.004V98.5H233.744V97.5ZM233.504 98V90.52H232.504V98H233.504ZM246.088 97.04L246.441 97.3936L246.444 97.3905L246.088 97.04ZM240.548 97.04L240.191 97.3905L240.194 97.3936L240.548 97.04ZM240.548 91.52L240.901 91.8736L240.904 91.8705L240.548 91.52ZM246.088 91.5L245.734 91.8536L245.734 91.8536L246.088 91.5ZM241.028 96.58L240.662 96.9217L240.666 96.9258L241.028 96.58ZM245.588 96.58L245.226 96.2342L245.222 96.2383L245.588 96.58ZM245.588 91.94L245.226 92.2856L245.23 92.2896L245.588 91.94ZM241.028 91.94L240.67 91.5903L240.666 91.5944L241.028 91.94ZM246.728 94.26C246.728 95.2083 246.399 96.0093 245.731 96.6895L246.444 97.3905C247.296 96.524 247.728 95.4717 247.728 94.26H246.728ZM245.734 96.6864C245.07 97.3509 244.271 97.68 243.308 97.68V98.68C244.531 98.68 245.585 98.2491 246.441 97.3936L245.734 96.6864ZM243.308 97.68C242.359 97.68 241.567 97.3522 240.901 96.6864L240.194 97.3936C241.048 98.2478 242.096 98.68 243.308 98.68V97.68ZM240.904 96.6895C240.234 96.008 239.908 95.2132 239.908 94.28H238.908C238.908 95.4802 239.341 96.5254 240.191 97.3905L240.904 96.6895ZM239.908 94.28C239.908 93.3319 240.235 92.5393 240.901 91.8736L240.194 91.1664C239.34 92.0207 238.908 93.0681 238.908 94.28H239.908ZM240.904 91.8705C241.571 91.1924 242.362 90.86 243.308 90.86V89.86C242.093 89.86 241.044 90.301 240.191 91.1695L240.904 91.8705ZM243.308 90.86C244.271 90.86 245.07 91.1891 245.734 91.8536L246.441 91.1464C245.585 90.2909 244.531 89.86 243.308 89.86V90.86ZM245.734 91.8536C246.4 92.5193 246.728 93.3119 246.728 94.26H247.728C247.728 93.0481 247.295 92.0007 246.441 91.1464L245.734 91.8536ZM239.648 94.26C239.648 95.2969 239.983 96.1954 240.662 96.9217L241.393 96.2383C240.899 95.7113 240.648 95.0631 240.648 94.26H239.648ZM240.666 96.9258C241.367 97.6574 242.26 98.02 243.308 98.02V97.02C242.515 97.02 241.888 96.7559 241.389 96.2342L240.666 96.9258ZM243.308 98.02C244.366 98.02 245.262 97.6588 245.953 96.9217L245.222 96.2383C244.739 96.7546 244.116 97.02 243.308 97.02V98.02ZM245.949 96.9258C246.644 96.2 246.988 95.3003 246.988 94.26H245.988C245.988 95.0597 245.731 95.7066 245.226 96.2342L245.949 96.9258ZM246.988 94.26C246.988 93.2086 246.645 92.3058 245.945 91.5904L245.23 92.2896C245.73 92.8009 245.988 93.4448 245.988 94.26H246.988ZM245.949 91.5944C245.258 90.8721 244.362 90.52 243.308 90.52V91.52C244.119 91.52 244.744 91.7813 245.226 92.2856L245.949 91.5944ZM243.308 90.52C242.264 90.52 241.371 90.8734 240.67 91.5904L241.385 92.2896C241.884 91.7799 242.511 91.52 243.308 91.52V90.52ZM240.666 91.5944C239.981 92.3104 239.648 93.2119 239.648 94.26H240.648C240.648 93.4414 240.9 92.7962 241.389 92.2856L240.666 91.5944ZM251.56 98V98.5H252.06V98H251.56ZM250.84 98H250.34V98.5H250.84V98ZM250.84 83V82.5H250.34V83H250.84ZM251.56 83H252.06V82.5H251.56V83ZM251.56 97.5H250.84V98.5H251.56V97.5ZM251.34 98V83H250.34V98H251.34ZM250.84 83.5H251.56V82.5H250.84V83.5ZM251.06 83V98H252.06V83H251.06Z" fill="black" fill-opacity="0.8"/>
<line x1="80" y1="76.5" x2="208" y2="76.5" stroke="black" stroke-opacity="0.9"/>
</svg>
