<svg width="577" height="106" viewBox="0 0 577 106" fill="none" xmlns="http://www.w3.org/2000/svg">
<line x1="132" y1="82.2837" x2="506" y2="82.2837" stroke="black" stroke-opacity="0.85"/>
<path d="M364.275 33.0554C361.057 13.3467 348.034 1.29533 335.573 0.126907C325.575 -0.8099 320.254 3.69242 318.659 5.3476L318.081 5.2977C318.081 5.2977 318.362 98.9478 318.362 102.892C324.919 102.892 328.942 93.3354 332.244 81.0727C332.728 78.331 333.17 75.719 333.568 73.2369L337.834 87.3959C337.86 87.4816 337.909 87.5616 337.976 87.63C338.042 87.6985 338.126 87.7538 338.222 87.792C338.317 87.8303 338.421 87.8505 338.526 87.8514C338.632 87.8522 338.736 87.8336 338.832 87.797L344.809 95.3705C344.921 95.5161 345.043 95.6561 345.175 95.7899L353.28 103.959C353.159 104.117 353.092 104.3 353.085 104.488C353.078 104.676 353.132 104.862 353.24 105.026C353.348 105.191 353.507 105.328 353.701 105.423C353.894 105.519 354.114 105.568 354.338 105.568C355.03 105.568 356.532 105.303 356.532 104.723C356.532 104.395 356.055 104.037 355.514 103.787L347.122 95.2133C347.034 95.1248 346.949 95.033 346.87 94.9388L339.691 87.1911L339.761 87.1384C339.988 86.9673 340.158 86.749 340.253 86.5054C340.349 86.2617 340.365 86.0014 340.302 85.7506L334.951 63.9225C335.628 58.9052 336.098 54.4899 336.378 50.5836L341.862 59.5529C342.185 60.1178 342.585 60.8753 343.419 60.9704L354.832 69.0933C354.969 69.1931 355.924 70.0348 356.49 70.4693L356.05 70.5941C355.975 70.716 356.686 70.8808 357.19 70.741C357.569 70.6364 357.92 70.2024 357.861 69.9962C357.817 69.8512 357.584 69.6097 357.322 69.774L357.228 69.9152C356.649 69.4934 356.034 69.1082 355.387 68.7628C355.295 68.7096 355.207 68.6506 355.125 68.5863L344.701 60.4351C344.71 60.3991 344.712 60.362 344.707 60.3254C344.592 59.9375 344.404 59.5673 344.151 59.2286L336.629 46.0003C336.982 36.3851 335.978 30.2813 334.027 25.6801C333.623 24.605 333.137 23.5531 332.57 22.5312L333.545 21.4729C333.604 21.3971 333.632 21.3072 333.625 21.2168C333.618 21.1264 333.575 21.0404 333.505 20.972C333.526 20.9476 333.545 20.9212 333.561 20.8934L335.946 15.1667L339.169 8.1665L339.118 8.1632L339.738 7.66279C339.971 7.47482 340.157 7.2496 340.284 7.00043L340.497 6.58428C340.756 6.50519 341.115 6.70385 341.306 6.56027C341.504 6.35785 341.607 6.14365 341.148 5.7807C340.617 5.36125 339.853 4.89756 339.408 4.99124C339.264 5.01172 339.131 5.06641 339.023 5.1488C338.915 5.23118 338.838 5.33778 338.801 5.45588C338.874 5.62394 339.429 5.62205 339.5 5.83954L337.891 8.29925C337.821 8.35345 337.765 8.41856 337.726 8.49085L334.672 14.2873C334.538 14.5418 334.412 14.7996 334.295 15.0607L332.081 20.377C332.053 20.4444 332.034 20.5144 332.025 20.5855C331.966 20.6249 331.916 20.6728 331.878 20.7268L331.642 21.0817C331.117 20.3332 330.475 19.4873 329.589 18.2887C330.604 13.9766 326.947 11.5258 325.837 10.7373C324.726 9.94878 321.544 5.59522 321.544 5.59522L321.182 5.56415C323.7 3.73903 326.431 1.73313 334.77 2.1747C345.94 2.76691 359.865 17.0403 362.432 35.3198C364.61 48.3494 360.487 73.4342 358.683 83.2791C358.675 83.3312 358.69 83.3842 358.726 83.4271C358.762 83.4701 358.817 83.4997 358.878 83.51C358.94 83.5202 359.004 83.5103 359.057 83.4822C359.11 83.4542 359.148 83.4101 359.164 83.3591C361.794 74.4557 366.893 51.1316 364.272 33.0545" fill="#A47D44"/>
<path d="M272.725 33.0554C275.943 13.3467 288.966 1.29533 301.427 0.126907C311.425 -0.8099 316.746 3.69242 318.341 5.3476L318.919 5.2977C318.919 5.2977 318.638 98.9478 318.638 102.892C312.081 102.892 308.058 93.3354 304.756 81.0727C304.272 78.331 303.83 75.719 303.432 73.2369L299.166 87.3959C299.14 87.4816 299.091 87.5616 299.024 87.63C298.958 87.6985 298.874 87.7538 298.778 87.792C298.683 87.8303 298.579 87.8505 298.474 87.8514C298.368 87.8522 298.264 87.8336 298.168 87.797L292.191 95.3705C292.079 95.5161 291.957 95.6561 291.825 95.7899L283.72 103.959C283.841 104.117 283.908 104.3 283.915 104.488C283.922 104.676 283.868 104.862 283.76 105.026C283.652 105.191 283.493 105.328 283.299 105.423C283.106 105.519 282.886 105.568 282.662 105.568C281.97 105.568 280.468 105.303 280.468 104.723C280.468 104.395 280.945 104.037 281.486 103.787L289.878 95.2133C289.966 95.1248 290.051 95.033 290.13 94.9388L297.309 87.1911L297.239 87.1384C297.012 86.9673 296.842 86.749 296.747 86.5054C296.651 86.2617 296.635 86.0014 296.698 85.7506L302.049 63.9225C301.372 58.9052 300.902 54.4899 300.622 50.5836L295.138 59.5529C294.815 60.1178 294.415 60.8753 293.581 60.9704L282.168 69.0933C282.031 69.1931 281.076 70.0348 280.51 70.4693L280.95 70.5941C281.025 70.716 280.314 70.8808 279.81 70.741C279.431 70.6364 279.08 70.2024 279.139 69.9962C279.183 69.8512 279.416 69.6097 279.678 69.774L279.772 69.9152C280.351 69.4934 280.966 69.1082 281.613 68.7628C281.705 68.7096 281.793 68.6506 281.875 68.5863L292.299 60.4351C292.29 60.3991 292.288 60.362 292.293 60.3254C292.408 59.9375 292.596 59.5673 292.849 59.2286L300.371 46.0003C300.018 36.3851 301.022 30.2813 302.973 25.6801C303.377 24.605 303.863 23.5531 304.43 22.5312L303.455 21.4729C303.396 21.3971 303.368 21.3072 303.375 21.2168C303.382 21.1264 303.425 21.0404 303.495 20.972C303.474 20.9476 303.455 20.9212 303.439 20.8934L301.054 15.1667L297.831 8.1665L297.882 8.1632L297.262 7.66279C297.029 7.47482 296.843 7.2496 296.716 7.00043L296.503 6.58428C296.244 6.50519 295.885 6.70385 295.694 6.56027C295.496 6.35785 295.393 6.14365 295.852 5.7807C296.383 5.36125 297.147 4.89756 297.592 4.99124C297.736 5.01172 297.869 5.06641 297.977 5.1488C298.085 5.23118 298.162 5.33778 298.199 5.45588C298.126 5.62394 297.571 5.62205 297.5 5.83954L299.109 8.29925C299.179 8.35345 299.235 8.41856 299.274 8.49085L302.328 14.2873C302.462 14.5418 302.588 14.7996 302.705 15.0607L304.919 20.377C304.947 20.4444 304.966 20.5144 304.975 20.5855C305.034 20.6249 305.084 20.6728 305.122 20.7268L305.358 21.0817C305.883 20.3332 306.525 19.4873 307.411 18.2887C306.396 13.9766 310.053 11.5258 311.163 10.7373C312.274 9.94878 315.456 5.59522 315.456 5.59522L315.818 5.56415C313.3 3.73903 310.569 1.73313 302.23 2.1747C291.06 2.76691 277.135 17.0403 274.568 35.3198C272.39 48.3494 276.513 73.4342 278.317 83.2791C278.325 83.3312 278.31 83.3842 278.274 83.4271C278.238 83.4701 278.183 83.4997 278.122 83.51C278.06 83.5202 277.996 83.5103 277.943 83.4822C277.89 83.4542 277.852 83.4101 277.836 83.3591C275.206 74.4557 270.107 51.1316 272.728 33.0545" fill="#A47D44"/>
<path d="M45.184 58.7038C45.184 60.5811 44.6293 62.0744 43.52 63.1838C42.4107 64.2504 40.7893 64.7838 38.656 64.7838C38.1013 64.7838 37.5467 64.7198 36.992 64.5918C36.4373 64.4638 35.84 64.2291 35.2 63.8878C34.6027 63.5464 34.0693 63.2264 33.6 62.9278C33.1307 62.6291 32.5333 62.1811 31.808 61.5838C31.1253 60.9438 30.5707 60.4531 30.144 60.1118C29.76 59.7278 29.1413 59.1304 28.288 58.3198C27.4347 57.5091 26.816 56.9118 26.432 56.5278L14.72 45.4558V59.3438C14.72 61.4344 14.3147 62.8638 13.504 63.6318C12.736 64.3998 11.4987 64.7838 9.792 64.7838C7.91467 64.7838 6.528 64.3571 5.632 63.5038C4.736 62.6504 4.288 61.2211 4.288 59.2158V28.3037C4.288 25.8717 4.90667 24.0371 6.144 22.7998C7.38133 21.5624 9.152 20.9437 11.456 20.9437C13.0347 20.9437 14.2933 21.1997 15.232 21.7118C16.2133 22.1811 17.3653 23.0557 18.688 24.3358L34.88 40.4638V26.5117C34.88 24.6771 35.328 23.3117 36.224 22.4157C37.1627 21.4771 38.4213 21.0078 40 21.0078C41.8347 21.0078 43.1573 21.4344 43.968 22.2878C44.7787 23.1411 45.184 24.5277 45.184 26.4478V58.7038ZM65.274 65.1678C60.0687 65.1678 55.7593 63.8238 52.346 61.1358C48.9753 58.4478 47.29 54.7784 47.29 50.1278C47.29 45.0931 48.954 41.1251 52.282 38.2238C55.6527 35.2798 59.9833 33.8078 65.274 33.8078C70.266 33.8078 73.914 34.7038 76.218 36.4958C78.5647 38.2451 79.738 40.6558 79.738 43.7278C79.738 44.3251 79.6527 44.9011 79.482 45.4558C79.354 46.0104 79.1193 46.5651 78.778 47.1198C78.4793 47.6318 78.0527 48.1224 77.498 48.5918C76.986 49.0184 76.3887 49.4238 75.706 49.8078C75.0233 50.1491 74.2127 50.4264 73.274 50.6398C72.3353 50.8104 71.3327 50.8958 70.266 50.8958L61.242 50.9598C61.6687 52.3251 62.4367 53.4131 63.546 54.2238C64.6553 54.9918 66.0633 55.3758 67.77 55.3758C69.6047 55.3758 71.482 55.1411 73.402 54.6718C74.2127 54.4584 75.0873 54.1171 76.026 53.6478C77.0073 53.1784 77.7113 52.9438 78.138 52.9438C78.8633 52.9438 79.418 53.1571 79.802 53.5838C80.2287 54.0104 80.442 54.5438 80.442 55.1838C80.442 55.9518 80.1007 56.8904 79.418 57.9998C78.7353 59.0664 77.7753 60.1544 76.538 61.2638C75.3433 62.3304 73.7433 63.2478 71.738 64.0158C69.7327 64.7838 67.578 65.1678 65.274 65.1678ZM60.922 46.8638C63.866 46.8211 65.466 46.7998 65.722 46.7998C66.362 46.7998 66.8313 46.4158 67.13 45.6478C67.3433 45.0931 67.45 44.3251 67.45 43.3438C67.45 40.6558 66.6393 39.3118 65.018 39.3118C64.4207 39.3118 63.8233 39.6318 63.226 40.2718C62.6713 40.9118 62.1807 41.8291 61.754 43.0238C61.3273 44.1758 61.05 45.4558 60.922 46.8638ZM117.033 55.1838C118.142 55.1838 118.825 54.9278 119.081 54.4158C119.379 53.8611 119.528 52.8584 119.528 51.4078L119.593 39.9518C119.593 37.9891 120.147 36.5598 121.257 35.6638C122.366 34.7251 124.243 34.2558 126.889 34.2558C128.041 34.2558 128.979 34.3838 129.705 34.6398C130.43 34.8958 131.049 35.3224 131.561 35.9198C132.115 36.4744 132.521 37.3491 132.777 38.5438C133.075 39.6958 133.289 41.1038 133.417 42.7678C133.545 44.3891 133.609 46.4798 133.609 49.0398C133.609 51.3011 133.246 53.3704 132.521 55.2478C131.838 57.0824 130.942 58.5758 129.833 59.7278C128.766 60.8798 127.507 61.8611 126.056 62.6718C124.606 63.4398 123.155 63.9944 121.705 64.3358C120.254 64.6344 118.803 64.7838 117.353 64.7838C113.896 64.7838 110.718 63.6958 107.816 61.5198C104.958 63.6958 101.8 64.7838 98.3445 64.7838C96.8938 64.7838 95.4432 64.6344 93.9925 64.3358C92.5845 63.9944 91.1338 63.4398 89.6405 62.6718C88.1898 61.8611 86.9098 60.8798 85.8005 59.7278C84.6912 58.5758 83.7738 57.0824 83.0485 55.2478C82.3658 53.3704 82.0245 51.3011 82.0245 49.0398C82.0245 44.8158 82.2165 41.7011 82.6005 39.6958C82.9845 37.6478 83.6245 36.2398 84.5205 35.4718C85.4165 34.6611 86.8245 34.2558 88.7445 34.2558C90.5365 34.2558 91.9658 34.4691 93.0325 34.8958C94.0992 35.3224 94.8458 35.9411 95.2725 36.7518C95.7418 37.5624 95.9765 38.6291 95.9765 39.9518L96.0405 51.3438C96.0405 51.9838 96.0405 52.4531 96.0405 52.7518C96.0832 53.0078 96.1472 53.3491 96.2325 53.7758C96.3178 54.1598 96.4458 54.4371 96.6165 54.6078C96.7872 54.7358 97.0218 54.8638 97.3205 54.9918C97.6192 55.1198 98.0032 55.1838 98.4725 55.1838C100.179 55.1838 101.182 54.6931 101.48 53.7118C101.097 51.1518 100.905 48.3998 100.905 45.4558C100.905 42.9811 100.99 41.0611 101.16 39.6958C101.331 38.2878 101.694 37.1571 102.249 36.3038C102.846 35.4504 103.571 34.8958 104.424 34.6398C105.278 34.3838 106.494 34.2558 108.073 34.2558C109.48 34.2558 110.59 34.3838 111.401 34.6398C112.211 34.8958 112.873 35.4504 113.385 36.3038C113.897 37.1571 114.238 38.2878 114.409 39.6958C114.579 41.0611 114.665 42.9811 114.665 45.4558C114.665 48.4424 114.494 51.2158 114.153 53.7758C114.451 54.7144 115.411 55.1838 117.033 55.1838ZM165.62 55.1838C165.62 58.5118 165.001 60.9438 163.764 62.4798C162.527 64.0158 160.649 64.7838 158.132 64.7838C155.657 64.7838 153.823 64.1224 152.628 62.7998C151.476 61.4771 150.9 59.1091 150.9 55.6958V28.6238C150.9 23.5037 153.311 20.9437 158.132 20.9437C160.607 20.9437 162.463 21.4131 163.7 22.3517C164.98 23.2904 165.62 25.1891 165.62 28.0478V55.1838ZM188.804 47.5678C188.804 45.1784 187.866 43.9838 185.988 43.9838C185.092 43.9838 184.346 44.3678 183.748 45.1358C183.194 45.8611 182.874 46.8424 182.788 48.0798V57.9358C182.788 60.5384 182.255 62.3304 181.188 63.3118C180.122 64.2931 178.244 64.7838 175.556 64.7838C173.039 64.7838 171.311 64.2078 170.372 63.0558C169.476 61.8611 169.028 59.9198 169.028 57.2318V41.4878C169.028 39.3118 169.604 37.5624 170.756 36.2398C171.951 34.9171 173.53 34.2558 175.492 34.2558C177.114 34.2558 178.479 34.4904 179.588 34.9598C180.698 35.4291 181.53 36.2398 182.084 37.3918C185.412 35.2158 189.466 34.1278 194.244 34.1278C197.274 34.1278 199.45 35.3224 200.772 37.7118C202.138 40.1011 202.82 44.0264 202.82 49.4878C202.82 52.1758 202.756 54.3731 202.628 56.0798C202.5 57.7438 202.287 59.1944 201.988 60.4318C201.732 61.6264 201.306 62.5224 200.708 63.1198C200.111 63.7171 199.407 64.1438 198.596 64.3998C197.828 64.6558 196.826 64.7838 195.588 64.7838C193.199 64.7838 191.471 64.3358 190.404 63.4398C189.38 62.5438 188.868 61.2211 188.868 59.4718L188.804 47.5678ZM239.186 55.1838C239.186 58.6398 238.61 61.1144 237.458 62.6078C236.306 64.0584 234.535 64.7838 232.146 64.7838C229.415 64.7838 227.538 63.9304 226.514 62.2238C223.741 64.2291 220.391 65.2318 216.466 65.2318C213.138 65.2318 210.365 63.8664 208.146 61.1358C205.927 58.3624 204.818 54.5864 204.818 49.8078C204.818 44.9438 205.906 41.0824 208.082 38.2238C210.258 35.3224 213.053 33.8718 216.466 33.8718C219.538 33.8718 222.418 34.8531 225.106 36.8158V28.6238C225.106 26.0211 225.746 24.1011 227.026 22.8638C228.306 21.5837 230.013 20.9437 232.146 20.9437C234.493 20.9437 236.242 21.4131 237.394 22.3517C238.589 23.2904 239.186 25.1891 239.186 28.0478V55.1838ZM225.234 55.5678L225.17 43.5998C224.445 42.4051 223.506 41.8078 222.354 41.8078C221.629 41.8078 220.967 42.2131 220.37 43.0238C219.815 43.8344 219.389 44.8371 219.09 46.0318C218.791 47.2264 218.642 48.4851 218.642 49.8078C218.642 51.7704 218.962 53.5198 219.602 55.0558C220.242 56.5918 221.138 57.3598 222.29 57.3598C222.503 57.3598 222.717 57.3384 222.93 57.2958C223.143 57.2531 223.335 57.2104 223.506 57.1678C223.677 57.0824 223.847 56.9971 224.018 56.9118C224.189 56.7838 224.338 56.6558 224.466 56.5278C224.594 56.3998 224.722 56.2504 224.85 56.0798C224.978 55.9091 225.106 55.7384 225.234 55.5678ZM241.362 25.3597C241.362 23.9517 241.959 22.7998 243.154 21.9038C244.391 20.9651 246.119 20.4958 248.338 20.4958C252.989 20.4958 255.314 22.1171 255.314 25.3597C255.314 27.1518 254.717 28.4104 253.522 29.1357C252.37 29.8611 250.642 30.2238 248.338 30.2238C246.333 30.2238 244.669 29.8398 243.346 29.0718C242.023 28.3038 241.362 27.0664 241.362 25.3597ZM255.25 57.9358C255.25 60.4958 254.717 62.2878 253.65 63.3118C252.583 64.2931 250.706 64.7838 248.018 64.7838C245.501 64.7838 243.773 64.2078 242.834 63.0558C241.938 61.8611 241.49 59.9198 241.49 57.2318V41.4878C241.49 39.3118 242.066 37.5624 243.218 36.2398C244.413 34.9171 245.991 34.2558 247.954 34.2558C250.258 34.2558 252.05 34.7678 253.33 35.7918C254.61 36.7731 255.25 38.6078 255.25 41.2958V57.9358ZM268.99 65.1678C265.619 65.1678 262.825 63.8024 260.606 61.0718C258.387 58.2984 257.278 54.5224 257.278 49.7438C257.278 44.8798 258.366 41.0184 260.542 38.1598C262.761 35.2584 265.577 33.8078 268.99 33.8078C272.446 33.8078 275.646 35.0238 278.59 37.4558C279.742 35.3224 281.598 34.2558 284.158 34.2558C286.462 34.2558 288.254 34.7678 289.534 35.7918C290.814 36.7731 291.454 38.6078 291.454 41.2958V57.9358C291.454 60.4958 290.921 62.2878 289.854 63.3118C288.787 64.2931 286.91 64.7838 284.222 64.7838C281.406 64.7838 279.55 63.9944 278.654 62.4158C275.923 64.2504 272.702 65.1678 268.99 65.1678ZM277.694 43.5998C276.969 42.3624 276.03 41.7438 274.878 41.7438C273.769 41.7438 272.873 42.5544 272.19 44.1758C271.507 45.7971 271.166 47.6531 271.166 49.7438C271.166 51.7064 271.486 53.4558 272.126 54.9918C272.766 56.5278 273.662 57.2958 274.814 57.2958C276.009 57.2958 276.969 56.7198 277.694 55.5678V43.5998Z" fill="#FF8000"/>
<path d="M346.8 64.7838V31.1838H353.712C357.104 31.1838 359.824 32.4158 361.872 34.8798C363.024 36.2558 363.6 37.9038 363.6 39.8238C363.6 42.6078 362.736 44.8158 361.008 46.4478C359.28 48.0478 356.848 48.8478 353.712 48.8478H348.576V64.7838H346.8ZM348.576 47.2638H353.472C357.664 47.2638 360.304 45.6318 361.392 42.3678C361.68 41.5678 361.824 40.7198 361.824 39.8238C361.824 37.9358 361.008 36.2878 359.376 34.8798C357.776 33.4718 355.824 32.7677 353.52 32.7677H348.576V47.2638ZM383.378 52.9758L368.018 58.9278C368.594 60.3678 369.49 61.5198 370.706 62.3838C371.954 63.2478 373.506 63.6798 375.362 63.6798C377.218 63.6798 378.85 63.0238 380.258 61.7118L381.458 62.6718C379.666 64.3998 377.506 65.2638 374.978 65.2638C372.45 65.2638 370.274 64.3518 368.45 62.5278C366.626 60.6718 365.714 58.4638 365.714 55.9038C365.714 53.3118 366.626 51.1038 368.45 49.2798C370.274 47.4238 372.482 46.4958 375.074 46.4958C377.122 46.4958 378.85 47.0878 380.258 48.2718C381.698 49.4558 382.738 51.0238 383.378 52.9758ZM367.49 55.8558C367.49 56.2078 367.522 56.7038 367.586 57.3438L381.314 52.0158C380.002 49.3918 377.922 48.0798 375.074 48.0798C372.866 48.0798 371.042 48.8158 369.602 50.2878C368.194 51.7598 367.49 53.6158 367.49 55.8558ZM399.429 48.6078L398.517 49.8558C398.197 49.4718 397.637 49.0878 396.837 48.7038C396.069 48.3198 395.285 48.1278 394.485 48.1278C393.685 48.1278 392.949 48.3838 392.277 48.8958C391.637 49.4078 391.317 50.1438 391.317 51.1038C391.317 52.0638 391.541 52.7678 391.989 53.2158C392.469 53.6318 393.157 53.9998 394.053 54.3198C394.949 54.6078 395.669 54.8798 396.213 55.1358C396.757 55.3598 397.365 55.6958 398.037 56.1438C399.445 57.0078 400.149 58.1758 400.149 59.6478C400.149 61.1198 399.653 62.4158 398.661 63.5358C397.701 64.6238 396.309 65.1678 394.485 65.1678C391.989 65.1678 390.149 64.4158 388.965 62.9118L390.021 61.6158C390.469 62.2238 391.157 62.7198 392.085 63.1038C393.045 63.4878 393.925 63.6478 394.725 63.5838C395.557 63.5198 396.373 63.1838 397.173 62.5758C397.973 61.9678 398.373 61.0878 398.373 59.9358C398.373 58.3998 397.493 57.2958 395.733 56.6238C395.349 56.4638 394.981 56.3358 394.629 56.2398L393.477 55.8558C393.061 55.6958 392.789 55.5998 392.661 55.5678C392.565 55.5358 392.325 55.4398 391.941 55.2798C391.589 55.0878 391.333 54.9438 391.173 54.8478C391.045 54.7198 390.853 54.5438 390.597 54.3198C390.341 54.0638 390.165 53.8078 390.069 53.5518C389.749 52.8478 389.589 52.1598 389.589 51.4878C389.589 49.9518 390.085 48.7518 391.077 47.8878C392.101 46.9918 393.269 46.5438 394.581 46.5438C396.597 46.5438 398.213 47.2318 399.429 48.6078ZM411.156 64.7838H409.38V48.3678H406.26V46.7838H409.38V35.0718H411.156V46.7838H416.676V48.3678H411.156V64.7838ZM463.478 61.5198L464.822 62.8158C462.134 64.3838 459.238 65.1678 456.134 65.1678C451.398 65.1678 447.35 63.5038 443.99 60.1758C440.662 56.8158 438.998 52.7678 438.998 48.0318C438.998 43.2638 440.662 39.1998 443.99 35.8398C447.35 32.4798 451.398 30.7998 456.134 30.7998C459.27 30.7998 462.15 31.5678 464.774 33.1038L463.526 34.4958C461.158 33.2158 458.694 32.5758 456.134 32.5758C451.91 32.5758 448.294 34.0958 445.286 37.1358C442.278 40.1758 440.774 43.8078 440.774 48.0318C440.774 52.2558 442.278 55.8718 445.286 58.8798C448.294 61.8878 451.91 63.3918 456.134 63.3918C458.726 63.3918 461.174 62.7678 463.478 61.5198ZM489.235 55.8078C489.235 58.3998 488.323 60.6238 486.499 62.4798C484.675 64.3038 482.451 65.2158 479.827 65.2158C477.235 65.2158 475.027 64.3038 473.203 62.4798C471.379 60.6238 470.467 58.4158 470.467 55.8558C470.467 53.2638 471.379 51.0558 473.203 49.2318C475.027 47.3758 477.235 46.4478 479.827 46.4478C482.451 46.4478 484.675 47.3598 486.499 49.1838C488.323 51.0078 489.235 53.2158 489.235 55.8078ZM472.243 55.8078C472.243 58.0158 472.947 59.8718 474.355 61.3758C475.795 62.8798 477.619 63.6318 479.827 63.6318C482.067 63.6318 483.891 62.8798 485.299 61.3758C486.739 59.8718 487.459 58.0158 487.459 55.8078C487.459 53.5678 486.739 51.7118 485.299 50.2398C483.891 48.7678 482.067 48.0318 479.827 48.0318C477.619 48.0318 475.795 48.7678 474.355 50.2398C472.947 51.7118 472.243 53.5678 472.243 55.8078ZM511.968 64.7838H510.192V51.8238C510.128 50.7678 509.728 49.8878 508.992 49.1838C508.256 48.4798 507.184 48.0958 505.776 48.0318C503.664 48.0318 501.84 48.6718 500.304 49.9518C498.768 51.2318 498 52.8318 498 54.7518V64.7838H496.224V46.8318H497.808L498 51.6318C498.672 50.0638 499.68 48.8158 501.024 47.8878C502.4 46.9598 503.984 46.4958 505.776 46.4958C507.6 46.4638 509.072 46.9438 510.192 47.9358C511.312 48.9278 511.904 50.2238 511.968 51.8238V64.7838ZM522.803 64.7838H521.027V48.3678H517.907V46.7838H521.027V35.0718H522.803V46.7838H528.323V48.3678H522.803V64.7838ZM533.955 46.8318H535.539L535.731 51.6318C536.403 50.0958 537.395 48.8638 538.707 47.9358C540.019 47.0078 541.539 46.5118 543.267 46.4478L543.219 48.0318C541.235 48.0958 539.555 48.7518 538.179 49.9998C536.803 51.2478 535.987 52.8318 535.731 54.7518V64.7838H533.955V46.8318ZM565.212 55.8078C565.212 58.3998 564.3 60.6238 562.476 62.4798C560.652 64.3038 558.428 65.2158 555.804 65.2158C553.212 65.2158 551.004 64.3038 549.18 62.4798C547.356 60.6238 546.444 58.4158 546.444 55.8558C546.444 53.2638 547.356 51.0558 549.18 49.2318C551.004 47.3758 553.212 46.4478 555.804 46.4478C558.428 46.4478 560.652 47.3598 562.476 49.1838C564.3 51.0078 565.212 53.2158 565.212 55.8078ZM548.22 55.8078C548.22 58.0158 548.924 59.8718 550.332 61.3758C551.772 62.8798 553.596 63.6318 555.804 63.6318C558.044 63.6318 559.868 62.8798 561.276 61.3758C562.716 59.8718 563.436 58.0158 563.436 55.8078C563.436 53.5678 562.716 51.7118 561.276 50.2398C559.868 48.7678 558.044 48.0318 555.804 48.0318C553.596 48.0318 551.772 48.7678 550.332 50.2398C548.924 51.7118 548.22 53.5678 548.22 55.8078ZM572.729 64.7838H571.001V28.7837H572.729V64.7838Z" fill="#359704"/>
<path d="M346.8 64.7838H345.8V65.7838H346.8V64.7838ZM346.8 31.1838V30.1838H345.8V31.1838H346.8ZM361.872 34.8798L361.103 35.519L361.105 35.5217L361.872 34.8798ZM361.008 46.4478L361.687 47.1815L361.695 47.1748L361.008 46.4478ZM348.576 48.8478V47.8478H347.576V48.8478H348.576ZM348.576 64.7838V65.7838H349.576V64.7838H348.576ZM348.576 47.2638H347.576V48.2638H348.576V47.2638ZM361.392 42.3678L360.451 42.029L360.447 42.0402L360.443 42.0515L361.392 42.3678ZM359.376 34.8798L358.715 35.6305L358.723 35.6369L359.376 34.8798ZM348.576 32.7677V31.7677H347.576V32.7677H348.576ZM347.8 64.7838V31.1838H345.8V64.7838H347.8ZM346.8 32.1838H353.712V30.1838H346.8V32.1838ZM353.712 32.1838C356.827 32.1838 359.257 33.2985 361.103 35.519L362.641 34.2405C360.391 31.533 357.381 30.1838 353.712 30.1838V32.1838ZM361.105 35.5217C362.096 36.7046 362.6 38.1208 362.6 39.8238H364.6C364.6 37.6867 363.952 35.8069 362.639 34.2378L361.105 35.5217ZM362.6 39.8238C362.6 42.3839 361.815 44.3102 360.321 45.7207L361.695 47.1748C363.657 45.3213 364.6 42.8316 364.6 39.8238H362.6ZM360.329 45.714C358.84 47.0925 356.681 47.8478 353.712 47.8478V49.8478C357.015 49.8478 359.72 49.003 361.687 47.1815L360.329 45.714ZM353.712 47.8478H348.576V49.8478H353.712V47.8478ZM347.576 48.8478V64.7838H349.576V48.8478H347.576ZM348.576 63.7838H346.8V65.7838H348.576V63.7838ZM348.576 48.2638H353.472V46.2638H348.576V48.2638ZM353.472 48.2638C355.691 48.2638 357.598 47.8326 359.122 46.8903C360.663 45.9377 361.731 44.5124 362.341 42.684L360.443 42.0515C359.965 43.4871 359.169 44.5098 358.07 45.1892C356.954 45.8789 355.445 46.2638 353.472 46.2638V48.2638ZM362.333 42.7065C362.662 41.7921 362.824 40.829 362.824 39.8238H360.824C360.824 40.6105 360.698 41.3434 360.451 42.029L362.333 42.7065ZM362.824 39.8238C362.824 37.602 361.847 35.6906 360.029 34.1226L358.723 35.6369C360.169 36.8849 360.824 38.2695 360.824 39.8238H362.824ZM360.037 34.129C358.239 32.5468 356.046 31.7677 353.52 31.7677V33.7677C355.602 33.7677 357.313 34.3967 358.715 35.6305L360.037 34.129ZM353.52 31.7677H348.576V33.7677H353.52V31.7677ZM347.576 32.7677V47.2638H349.576V32.7677H347.576ZM383.378 52.9758L383.739 53.9082L384.624 53.5655L384.328 52.6642L383.378 52.9758ZM368.018 58.9278L367.657 57.9953L366.714 58.3606L367.089 59.2991L368.018 58.9278ZM370.706 62.3838L370.127 63.199L370.137 63.2059L370.706 62.3838ZM380.258 61.7118L380.883 60.9309L380.208 60.3913L379.576 60.9801L380.258 61.7118ZM381.458 62.6718L382.152 63.3916L382.971 62.6017L382.083 61.8909L381.458 62.6718ZM368.45 62.5278L367.737 63.2287L367.743 63.2349L368.45 62.5278ZM368.45 49.2798L369.157 49.9869L369.163 49.9807L368.45 49.2798ZM380.258 48.2718L379.614 49.0372L379.623 49.0442L380.258 48.2718ZM367.586 57.3438L366.591 57.4433L366.722 58.7518L367.948 58.276L367.586 57.3438ZM381.314 52.0158L381.676 52.948L382.699 52.5507L382.208 51.5685L381.314 52.0158ZM369.602 50.2878L368.887 49.5884L368.879 49.5965L369.602 50.2878ZM383.017 52.0433L367.657 57.9953L368.379 59.8602L383.739 53.9082L383.017 52.0433ZM367.089 59.2991C367.734 60.9101 368.748 62.2191 370.127 63.1989L371.285 61.5686C370.232 60.8204 369.454 59.8254 368.946 58.5564L367.089 59.2991ZM370.137 63.2059C371.586 64.2094 373.348 64.6798 375.362 64.6798V62.6798C373.663 62.6798 372.322 62.2861 371.275 61.5616L370.137 63.2059ZM375.362 64.6798C377.481 64.6798 379.354 63.9208 380.94 62.4434L379.576 60.9801C378.346 62.1267 376.955 62.6798 375.362 62.6798V64.6798ZM379.633 62.4926L380.833 63.4526L382.083 61.8909L380.883 60.9309L379.633 62.4926ZM380.764 61.9519C379.161 63.4971 377.251 64.2638 374.978 64.2638V66.2638C377.76 66.2638 380.17 65.3024 382.152 63.3916L380.764 61.9519ZM374.978 64.2638C372.721 64.2638 370.798 63.4614 369.157 61.8206L367.743 63.2349C369.75 65.2421 372.179 66.2638 374.978 66.2638V64.2638ZM369.163 61.8268C367.519 60.1544 366.714 58.1967 366.714 55.9038H364.714C364.714 58.7308 365.732 61.1891 367.737 63.2287L369.163 61.8268ZM366.714 55.9038C366.714 53.5755 367.522 51.6223 369.157 49.9869L367.743 48.5726C365.73 50.5852 364.714 53.048 364.714 55.9038H366.714ZM369.163 49.9807C370.8 48.3151 372.751 47.4958 375.074 47.4958V45.4958C372.212 45.4958 369.748 46.5324 367.737 48.5788L369.163 49.9807ZM375.074 47.4958C376.915 47.4958 378.407 48.022 379.614 49.0371L380.901 47.5064C379.293 46.1535 377.329 45.4958 375.074 45.4958V47.4958ZM379.623 49.0442C380.901 50.0955 381.841 51.4967 382.428 53.2873L384.328 52.6642C383.635 50.5508 382.494 48.816 380.893 47.4993L379.623 49.0442ZM366.49 55.8558C366.49 56.2576 366.526 56.7924 366.591 57.4433L368.581 57.2442C368.518 56.6151 368.49 56.1579 368.49 55.8558H366.49ZM367.948 58.276L381.676 52.948L380.952 51.0835L367.224 56.4115L367.948 58.276ZM382.208 51.5685C381.487 50.125 380.525 48.9887 379.303 48.218C378.08 47.4461 376.656 47.0798 375.074 47.0798V49.0798C376.34 49.0798 377.38 49.3694 378.236 49.9095C379.094 50.4508 379.829 51.2826 380.419 52.463L382.208 51.5685ZM375.074 47.0798C372.618 47.0798 370.53 47.9092 368.887 49.5885L370.317 50.987C371.554 49.7223 373.113 49.0798 375.074 49.0798V47.0798ZM368.879 49.5965C367.275 51.2739 366.49 53.3862 366.49 55.8558H368.49C368.49 53.8453 369.113 52.2456 370.325 50.979L368.879 49.5965ZM399.429 48.6078L400.236 49.1978L400.711 48.5483L400.178 47.9456L399.429 48.6078ZM398.517 49.8558L397.748 50.4959L398.568 51.4799L399.324 50.4458L398.517 49.8558ZM396.837 48.7038L396.389 49.5982L396.397 49.6018L396.404 49.6053L396.837 48.7038ZM392.277 48.8958L391.671 48.1003L391.661 48.1075L391.652 48.1149L392.277 48.8958ZM391.989 53.2158L391.282 53.9229L391.307 53.9481L391.334 53.9714L391.989 53.2158ZM394.053 54.3198L393.716 55.2615L393.731 55.2669L393.747 55.2718L394.053 54.3198ZM396.213 55.1358L395.787 56.0406L395.809 56.0511L395.832 56.0604L396.213 55.1358ZM398.037 56.1438L397.482 56.9758L397.498 56.9862L397.514 56.9961L398.037 56.1438ZM398.661 63.5358L397.912 62.8727L397.911 62.8741L398.661 63.5358ZM388.965 62.9118L388.189 62.2801L387.683 62.901L388.179 63.5303L388.965 62.9118ZM390.021 61.6158L390.826 61.0226L390.06 59.9839L389.245 60.9841L390.021 61.6158ZM392.085 63.1038L391.702 64.0278L391.713 64.0322L392.085 63.1038ZM394.725 63.5838L394.648 62.5867L394.645 62.5869L394.725 63.5838ZM397.173 62.5758L396.568 61.7796L397.173 62.5758ZM395.733 56.6238L395.348 57.5468L395.362 57.5526L395.376 57.558L395.733 56.6238ZM394.629 56.2398L394.312 57.1884L394.339 57.1972L394.366 57.2045L394.629 56.2398ZM393.477 55.8558L393.118 56.7891L393.139 56.7973L393.16 56.8044L393.477 55.8558ZM392.661 55.5678L392.344 56.5164L392.381 56.5286L392.418 56.5379L392.661 55.5678ZM391.941 55.2798L391.462 56.1576L391.508 56.1827L391.556 56.2028L391.941 55.2798ZM391.173 54.8478L390.466 55.5549L390.553 55.6419L390.658 55.7052L391.173 54.8478ZM390.597 54.3198L389.89 55.0269L389.913 55.0504L389.938 55.0723L390.597 54.3198ZM390.069 53.5518L391.005 53.2006L390.993 53.1688L390.979 53.1379L390.069 53.5518ZM391.077 47.8878L391.733 48.6418L391.735 48.6403L391.077 47.8878ZM398.621 48.0177L397.709 49.2657L399.324 50.4458L400.236 49.1978L398.621 48.0177ZM399.285 49.2156C398.827 48.6667 398.114 48.2075 397.269 47.8022L396.404 49.6053C397.16 49.9681 397.566 50.2768 397.748 50.4959L399.285 49.2156ZM397.284 47.8093C396.387 47.3611 395.451 47.1278 394.485 47.1278V49.1278C395.118 49.1278 395.75 49.2784 396.389 49.5982L397.284 47.8093ZM394.485 47.1278C393.453 47.1278 392.506 47.4636 391.671 48.1003L392.883 49.6912C393.391 49.3039 393.916 49.1278 394.485 49.1278V47.1278ZM391.652 48.1149C390.733 48.8503 390.317 49.8982 390.317 51.1038H392.317C392.317 50.3893 392.541 49.9652 392.901 49.6766L391.652 48.1149ZM390.317 51.1038C390.317 52.1945 390.569 53.2099 391.282 53.9229L392.696 52.5086C392.513 52.3256 392.317 51.933 392.317 51.1038H390.317ZM391.334 53.9714C391.942 54.4986 392.756 54.9185 393.716 55.2615L394.389 53.378C393.557 53.081 392.995 52.7649 392.644 52.4601L391.334 53.9714ZM393.747 55.2718C394.622 55.5531 395.297 55.8101 395.787 56.0406L396.638 54.2309C396.04 53.9494 395.275 53.6624 394.359 53.3677L393.747 55.2718ZM395.832 56.0604C396.297 56.252 396.846 56.5519 397.482 56.9758L398.591 55.3117C397.883 54.8396 397.216 54.4675 396.593 54.2111L395.832 56.0604ZM397.514 56.9961C398.668 57.7047 399.149 58.5713 399.149 59.6478H401.149C401.149 57.7802 400.221 56.3108 398.56 55.2914L397.514 56.9961ZM399.149 59.6478C399.149 60.8711 398.745 61.9323 397.912 62.8727L399.409 64.1988C400.56 62.8992 401.149 61.3684 401.149 59.6478H399.149ZM397.911 62.8741C397.187 63.6939 396.101 64.1678 394.485 64.1678V66.1678C396.516 66.1678 398.214 65.5536 399.41 64.1974L397.911 62.8741ZM394.485 64.1678C392.194 64.1678 390.69 63.4868 389.75 62.2932L388.179 63.5303C389.607 65.3447 391.783 66.1678 394.485 66.1678V64.1678ZM389.74 63.5434L390.796 62.2474L389.245 60.9841L388.189 62.2801L389.74 63.5434ZM389.216 62.209C389.802 63.0045 390.66 63.5964 391.702 64.0278L392.467 62.1797C391.653 61.8431 391.135 61.443 390.826 61.0226L389.216 62.209ZM391.713 64.0322C392.776 64.4575 393.813 64.6599 394.804 64.5806L394.645 62.5869C394.036 62.6356 393.313 62.518 392.456 62.1753L391.713 64.0322ZM394.801 64.5808C395.861 64.4993 396.856 64.0723 397.778 63.3719L396.568 61.7796C395.889 62.2952 395.252 62.5402 394.648 62.5867L394.801 64.5808ZM397.778 63.3719C398.865 62.5454 399.373 61.3482 399.373 59.9358H397.373C397.373 60.8273 397.08 61.3901 396.568 61.7796L397.778 63.3719ZM399.373 59.9358C399.373 58.9625 399.088 58.0775 398.495 57.3324C397.912 56.6014 397.082 56.0686 396.089 55.6895L395.376 57.558C396.143 57.8509 396.633 58.2061 396.931 58.5791C397.217 58.938 397.373 59.373 397.373 59.9358H399.373ZM396.117 55.7007C395.699 55.5264 395.29 55.3837 394.892 55.275L394.366 57.2045C394.671 57.2878 394.998 57.4011 395.348 57.5468L396.117 55.7007ZM394.945 55.2911L393.793 54.9071L393.16 56.8044L394.312 57.1884L394.945 55.2911ZM393.836 54.9224C393.434 54.768 393.102 54.6473 392.903 54.5976L392.418 56.5379C392.418 56.5378 392.419 56.5382 392.422 56.539C392.425 56.5398 392.429 56.5409 392.434 56.5425C392.445 56.5457 392.46 56.5502 392.479 56.5562C392.517 56.5683 392.566 56.5849 392.628 56.6067C392.752 56.6505 392.914 56.7109 393.118 56.7891L393.836 54.9224ZM392.977 54.6191C392.924 54.6013 392.722 54.5222 392.325 54.3567L391.556 56.2028C391.927 56.3573 392.206 56.4702 392.344 56.5164L392.977 54.6191ZM392.419 54.4019C392.069 54.2108 391.828 54.075 391.687 53.9903L390.658 55.7052C390.837 55.8125 391.108 55.9648 391.462 56.1576L392.419 54.4019ZM391.88 54.1406C391.728 53.9888 391.516 53.7955 391.255 53.5672L389.938 55.0723C390.189 55.292 390.361 55.4507 390.466 55.5549L391.88 54.1406ZM391.304 53.6126C391.118 53.4264 391.037 53.2871 391.005 53.2006L389.132 53.9029C389.292 54.3284 389.564 54.7011 389.89 55.0269L391.304 53.6126ZM390.979 53.1379C390.709 52.5444 390.589 51.997 390.589 51.4878H388.589C388.589 52.3225 388.788 53.1511 389.158 53.9656L390.979 53.1379ZM390.589 51.4878C390.589 50.1874 390.997 49.2834 391.733 48.6418L390.42 47.1337C389.172 48.2201 388.589 49.7161 388.589 51.4878H390.589ZM391.735 48.6403C392.584 47.8974 393.521 47.5438 394.581 47.5438V45.5438C393.017 45.5438 391.617 46.0861 390.418 47.1352L391.735 48.6403ZM394.581 47.5438C396.341 47.5438 397.673 48.1312 398.679 49.2699L400.178 47.9456C398.752 46.3323 396.852 45.5438 394.581 45.5438V47.5438ZM411.156 64.7838V65.7838H412.156V64.7838H411.156ZM409.38 64.7838H408.38V65.7838H409.38V64.7838ZM409.38 48.3678H410.38V47.3678H409.38V48.3678ZM406.26 48.3678H405.26V49.3678H406.26V48.3678ZM406.26 46.7838V45.7838H405.26V46.7838H406.26ZM409.38 46.7838V47.7838H410.38V46.7838H409.38ZM409.38 35.0718V34.0718H408.38V35.0718H409.38ZM411.156 35.0718H412.156V34.0718H411.156V35.0718ZM411.156 46.7838H410.156V47.7838H411.156V46.7838ZM416.676 46.7838H417.676V45.7838H416.676V46.7838ZM416.676 48.3678V49.3678H417.676V48.3678H416.676ZM411.156 48.3678V47.3678H410.156V48.3678H411.156ZM411.156 63.7838H409.38V65.7838H411.156V63.7838ZM410.38 64.7838V48.3678H408.38V64.7838H410.38ZM409.38 47.3678H406.26V49.3678H409.38V47.3678ZM407.26 48.3678V46.7838H405.26V48.3678H407.26ZM406.26 47.7838H409.38V45.7838H406.26V47.7838ZM410.38 46.7838V35.0718H408.38V46.7838H410.38ZM409.38 36.0718H411.156V34.0718H409.38V36.0718ZM410.156 35.0718V46.7838H412.156V35.0718H410.156ZM411.156 47.7838H416.676V45.7838H411.156V47.7838ZM415.676 46.7838V48.3678H417.676V46.7838H415.676ZM416.676 47.3678H411.156V49.3678H416.676V47.3678ZM410.156 48.3678V64.7838H412.156V48.3678H410.156ZM463.478 61.5198L464.172 60.7999L463.645 60.2919L463.002 60.6405L463.478 61.5198ZM464.822 62.8158L465.326 63.6795L466.468 63.0135L465.516 62.0959L464.822 62.8158ZM443.99 60.1758L443.279 60.8795L443.286 60.8862L443.99 60.1758ZM443.99 35.8398L443.283 35.1326L443.279 35.136L443.99 35.8398ZM464.774 33.1038L465.518 33.7713L466.336 32.8594L465.279 32.2407L464.774 33.1038ZM463.526 34.4958L463.05 35.3755L463.744 35.7504L464.27 35.1633L463.526 34.4958ZM445.286 37.1358L444.575 36.4324L445.286 37.1358ZM445.286 58.8798L444.579 59.5869L445.286 58.8798ZM462.784 62.2396L464.128 63.5356L465.516 62.0959L464.172 60.7999L462.784 62.2396ZM464.318 61.952C461.783 63.431 459.06 64.1678 456.134 64.1678V66.1678C459.415 66.1678 462.485 65.3365 465.326 63.6795L464.318 61.952ZM456.134 64.1678C451.661 64.1678 447.866 62.6075 444.694 59.4653L443.286 60.8862C446.834 64.4 451.135 66.1678 456.134 66.1678V64.1678ZM444.7 59.472C441.558 56.2996 439.998 52.5046 439.998 48.0318H437.998C437.998 53.0309 439.766 57.3319 443.279 60.8795L444.7 59.472ZM439.998 48.0318C439.998 43.5249 441.56 39.7145 444.7 36.5435L443.279 35.136C439.764 38.685 437.998 43.0026 437.998 48.0318H439.998ZM444.697 36.5469C447.87 33.3737 451.664 31.7998 456.134 31.7998V29.7998C451.132 29.7998 446.83 31.5858 443.283 35.1326L444.697 36.5469ZM456.134 31.7998C459.098 31.7998 461.803 32.5234 464.269 33.9668L465.279 32.2407C462.497 30.6121 459.442 29.7998 456.134 29.7998V31.7998ZM464.029 32.4362L462.781 33.8282L464.27 35.1633L465.518 33.7713L464.029 32.4362ZM464.001 33.616C461.495 32.2613 458.869 31.5758 456.134 31.5758V33.5758C458.519 33.5758 460.821 34.1702 463.05 35.3755L464.001 33.616ZM456.134 31.5758C451.639 31.5758 447.768 33.2052 444.575 36.4324L445.997 37.8391C448.82 34.9863 452.181 33.5758 456.134 33.5758V31.5758ZM444.575 36.4324C441.384 39.657 439.774 43.5407 439.774 48.0318H441.774C441.774 44.0748 443.171 40.6945 445.997 37.8391L444.575 36.4324ZM439.774 48.0318C439.774 52.5231 441.385 56.3928 444.579 59.5869L445.993 58.1726C443.171 55.3507 441.774 51.9884 441.774 48.0318H439.774ZM444.579 59.5869C447.773 62.7809 451.643 64.3918 456.134 64.3918V62.3918C452.177 62.3918 448.815 60.9946 445.993 58.1726L444.579 59.5869ZM456.134 64.3918C458.894 64.3918 461.506 63.7254 463.954 62.399L463.002 60.6405C460.842 61.8101 458.558 62.3918 456.134 62.3918V64.3918ZM486.499 62.4798L487.206 63.1869L487.212 63.1807L486.499 62.4798ZM473.203 62.4798L472.489 63.1807L472.496 63.1869L473.203 62.4798ZM473.203 49.2318L473.91 49.9389L473.916 49.9327L473.203 49.2318ZM486.499 49.1838L485.792 49.8909L486.499 49.1838ZM474.355 61.3758L473.625 62.0592L473.632 62.0673L474.355 61.3758ZM485.299 61.3758L484.576 60.6841L484.569 60.6923L485.299 61.3758ZM485.299 50.2398L484.576 50.931L484.584 50.939L485.299 50.2398ZM474.355 50.2398L473.64 49.5404L473.632 49.5485L474.355 50.2398ZM488.235 55.8078C488.235 58.1364 487.427 60.109 485.786 61.7788L487.212 63.1807C489.219 61.1385 490.235 58.6631 490.235 55.8078H488.235ZM485.792 61.7726C484.159 63.4055 482.191 64.2158 479.827 64.2158V66.2158C482.711 66.2158 485.191 65.202 487.206 63.1869L485.792 61.7726ZM479.827 64.2158C477.499 64.2158 475.545 63.4081 473.91 61.7726L472.496 63.1869C474.508 65.1994 476.971 66.2158 479.827 66.2158V64.2158ZM473.916 61.7788C472.272 60.1064 471.467 58.1487 471.467 55.8558H469.467C469.467 58.6828 470.485 61.1411 472.49 63.1807L473.916 61.7788ZM471.467 55.8558C471.467 53.5275 472.274 51.5743 473.91 49.9389L472.496 48.5246C470.483 50.5372 469.467 53 469.467 55.8558H471.467ZM473.916 49.9327C475.553 48.2671 477.504 47.4478 479.827 47.4478V45.4478C476.965 45.4478 474.501 46.4844 472.49 48.5308L473.916 49.9327ZM479.827 47.4478C482.191 47.4478 484.159 48.258 485.792 49.8909L487.206 48.4766C485.191 46.4615 482.711 45.4478 479.827 45.4478V47.4478ZM485.792 49.8909C487.427 51.5263 488.235 53.4795 488.235 55.8078H490.235C490.235 52.952 489.218 50.4892 487.206 48.4766L485.792 49.8909ZM471.243 55.8078C471.243 58.2496 472.03 60.3558 473.625 62.0592L475.085 60.6923C473.863 59.3877 473.243 57.7819 473.243 55.8078H471.243ZM473.632 62.0673C475.273 63.7813 477.364 64.6318 479.827 64.6318V62.6318C477.873 62.6318 476.316 61.9782 475.077 60.6842L473.632 62.0673ZM479.827 64.6318C482.317 64.6318 484.414 63.784 486.029 62.0592L484.569 60.6923C483.367 61.9755 481.817 62.6318 479.827 62.6318V64.6318ZM486.021 62.0673C487.651 60.3652 488.459 58.2563 488.459 55.8078H486.459C486.459 57.7752 485.827 59.3784 484.576 60.6842L486.021 62.0673ZM488.459 55.8078C488.459 53.3315 487.653 51.2166 486.014 49.5405L484.584 50.939C485.824 52.2069 486.459 53.804 486.459 55.8078H488.459ZM486.021 49.5485C484.405 47.8586 482.31 47.0318 479.827 47.0318V49.0318C481.824 49.0318 483.377 49.6769 484.576 50.931L486.021 49.5485ZM479.827 47.0318C477.371 47.0318 475.283 47.8612 473.64 49.5405L475.07 50.939C476.307 49.6743 477.866 49.0318 479.827 49.0318V47.0318ZM473.632 49.5485C472.028 51.2259 471.243 53.3382 471.243 55.8078H473.243C473.243 53.7973 473.866 52.1976 475.077 50.931L473.632 49.5485ZM511.968 64.7838V65.7838H512.968V64.7838H511.968ZM510.192 64.7838H509.192V65.7838H510.192V64.7838ZM510.192 51.8238H511.192V51.7935L511.191 51.7633L510.192 51.8238ZM508.992 49.1838L509.684 48.4611H509.684L508.992 49.1838ZM505.776 48.0318L505.822 47.0328L505.799 47.0318H505.776V48.0318ZM500.304 49.9518L499.664 49.1835L500.304 49.9518ZM498 64.7838V65.7838H499V64.7838H498ZM496.224 64.7838H495.224V65.7838H496.224V64.7838ZM496.224 46.8318V45.8318H495.224V46.8318H496.224ZM497.808 46.8318L498.808 46.7918L498.769 45.8318H497.808V46.8318ZM498 51.6318L497.001 51.6717L498.92 52.0257L498 51.6318ZM501.024 47.8878L500.465 47.0586L500.456 47.0649L501.024 47.8878ZM505.776 46.4958V47.4958H505.785L505.794 47.4956L505.776 46.4958ZM510.192 47.9358L509.529 48.6843L510.192 47.9358ZM511.968 51.8238H512.968V51.8038L512.968 51.7838L511.968 51.8238ZM511.968 63.7838H510.192V65.7838H511.968V63.7838ZM511.192 64.7838V51.8238H509.192V64.7838H511.192ZM511.191 51.7633C511.112 50.4665 510.609 49.3466 509.684 48.4611L508.301 49.9064C508.847 50.4289 509.145 51.069 509.194 51.8842L511.191 51.7633ZM509.684 48.4611C508.716 47.5354 507.379 47.1036 505.822 47.0328L505.731 49.0307C506.99 49.088 507.797 49.4241 508.301 49.9064L509.684 48.4611ZM505.776 47.0318C503.445 47.0318 501.391 47.7449 499.664 49.1835L500.945 50.72C502.29 49.5986 503.884 49.0318 505.776 49.0318V47.0318ZM499.664 49.1835C497.911 50.6445 497 52.5211 497 54.7518H499C499 53.1424 499.626 51.819 500.945 50.72L499.664 49.1835ZM497 54.7518V64.7838H499V54.7518H497ZM498 63.7838H496.224V65.7838H498V63.7838ZM497.224 64.7838V46.8318H495.224V64.7838H497.224ZM496.224 47.8318H497.808V45.8318H496.224V47.8318ZM496.809 46.8717L497.001 51.6717L499 51.5918L498.808 46.7918L496.809 46.8717ZM498.92 52.0257C499.521 50.6228 500.411 49.5267 501.593 48.7106L500.456 47.0649C498.95 48.1048 497.824 49.5047 497.081 51.2378L498.92 52.0257ZM501.584 48.7168C502.781 47.9092 504.167 47.4958 505.776 47.4958V45.4958C503.802 45.4958 502.02 46.0103 500.465 47.0587L501.584 48.7168ZM505.794 47.4956C507.425 47.467 508.636 47.893 509.529 48.6843L510.855 47.1872C509.509 45.9945 507.775 45.4605 505.759 45.4959L505.794 47.4956ZM509.529 48.6843C510.43 49.4821 510.915 50.5145 510.969 51.8637L512.968 51.7838C512.894 49.933 512.195 48.3734 510.855 47.1872L509.529 48.6843ZM510.968 51.8238V64.7838H512.968V51.8238H510.968ZM522.803 64.7838V65.7838H523.803V64.7838H522.803ZM521.027 64.7838H520.027V65.7838H521.027V64.7838ZM521.027 48.3678H522.027V47.3678H521.027V48.3678ZM517.907 48.3678H516.907V49.3678H517.907V48.3678ZM517.907 46.7838V45.7838H516.907V46.7838H517.907ZM521.027 46.7838V47.7838H522.027V46.7838H521.027ZM521.027 35.0718V34.0718H520.027V35.0718H521.027ZM522.803 35.0718H523.803V34.0718H522.803V35.0718ZM522.803 46.7838H521.803V47.7838H522.803V46.7838ZM528.323 46.7838H529.323V45.7838H528.323V46.7838ZM528.323 48.3678V49.3678H529.323V48.3678H528.323ZM522.803 48.3678V47.3678H521.803V48.3678H522.803ZM522.803 63.7838H521.027V65.7838H522.803V63.7838ZM522.027 64.7838V48.3678H520.027V64.7838H522.027ZM521.027 47.3678H517.907V49.3678H521.027V47.3678ZM518.907 48.3678V46.7838H516.907V48.3678H518.907ZM517.907 47.7838H521.027V45.7838H517.907V47.7838ZM522.027 46.7838V35.0718H520.027V46.7838H522.027ZM521.027 36.0718H522.803V34.0718H521.027V36.0718ZM521.803 35.0718V46.7838H523.803V35.0718H521.803ZM522.803 47.7838H528.323V45.7838H522.803V47.7838ZM527.323 46.7838V48.3678H529.323V46.7838H527.323ZM528.323 47.3678H522.803V49.3678H528.323V47.3678ZM521.803 48.3678V64.7838H523.803V48.3678H521.803ZM533.955 46.8318V45.8318H532.955V46.8318H533.955ZM535.539 46.8318L536.538 46.7918L536.5 45.8318H535.539V46.8318ZM535.731 51.6318L534.732 51.6717L536.647 52.0326L535.731 51.6318ZM538.707 47.9358L539.284 48.7522V48.7522L538.707 47.9358ZM543.267 46.4478L544.267 46.478L544.299 45.4088L543.23 45.4484L543.267 46.4478ZM543.219 48.0318L543.251 49.0312L544.19 49.0009L544.219 48.062L543.219 48.0318ZM538.179 49.9998L537.507 49.259L538.179 49.9998ZM535.731 54.7518L534.74 54.6196L534.731 54.6854V54.7518H535.731ZM535.731 64.7838V65.7838H536.731V64.7838H535.731ZM533.955 64.7838H532.955V65.7838H533.955V64.7838ZM533.955 47.8318H535.539V45.8318H533.955V47.8318ZM534.54 46.8717L534.732 51.6717L536.73 51.5918L536.538 46.7918L534.54 46.8717ZM536.647 52.0326C537.249 50.6558 538.128 49.5704 539.284 48.7522L538.13 47.1193C536.662 48.1571 535.557 49.5357 534.815 51.2309L536.647 52.0326ZM539.284 48.7522C540.426 47.9449 541.755 47.5044 543.304 47.4471L543.23 45.4484C541.323 45.5191 539.612 46.0706 538.13 47.1193L539.284 48.7522ZM542.267 46.4175L542.219 48.0015L544.219 48.062L544.267 46.478L542.267 46.4175ZM543.187 47.0323C540.983 47.1034 539.072 47.8402 537.507 49.259L538.851 50.7405C540.038 49.6633 541.487 49.0882 543.251 49.0312L543.187 47.0323ZM537.507 49.259C535.948 50.673 535.026 52.4762 534.74 54.6196L536.722 54.8839C536.948 53.1873 537.658 51.8225 538.851 50.7405L537.507 49.259ZM534.731 54.7518V64.7838H536.731V54.7518H534.731ZM535.731 63.7838H533.955V65.7838H535.731V63.7838ZM534.955 64.7838V46.8318H532.955V64.7838H534.955ZM562.476 62.4798L563.183 63.1869L563.189 63.1807L562.476 62.4798ZM549.18 62.4798L548.466 63.1807L548.473 63.1869L549.18 62.4798ZM549.18 49.2318L549.887 49.9389L549.893 49.9327L549.18 49.2318ZM562.476 49.1838L561.769 49.8909L562.476 49.1838ZM550.332 61.3758L549.602 62.0592L549.609 62.0673L550.332 61.3758ZM561.276 61.3758L560.553 60.6841L560.546 60.6923L561.276 61.3758ZM561.276 50.2398L560.553 50.931L560.561 50.939L561.276 50.2398ZM550.332 50.2398L549.617 49.5404L549.609 49.5485L550.332 50.2398ZM564.212 55.8078C564.212 58.1364 563.403 60.109 561.762 61.7788L563.189 63.1807C565.196 61.1385 566.212 58.6631 566.212 55.8078H564.212ZM561.769 61.7726C560.136 63.4055 558.168 64.2158 555.804 64.2158V66.2158C558.688 66.2158 561.168 65.202 563.183 63.1869L561.769 61.7726ZM555.804 64.2158C553.475 64.2158 551.522 63.4081 549.887 61.7726L548.473 63.1869C550.485 65.1994 552.948 66.2158 555.804 66.2158V64.2158ZM549.893 61.7788C548.249 60.1064 547.444 58.1487 547.444 55.8558H545.444C545.444 58.6828 546.462 61.1411 548.466 63.1807L549.893 61.7788ZM547.444 55.8558C547.444 53.5275 548.251 51.5743 549.887 49.9389L548.473 48.5246C546.46 50.5372 545.444 53 545.444 55.8558H547.444ZM549.893 49.9327C551.53 48.2671 553.481 47.4478 555.804 47.4478V45.4478C552.942 45.4478 550.478 46.4844 548.466 48.5308L549.893 49.9327ZM555.804 47.4478C558.168 47.4478 560.136 48.258 561.769 49.8909L563.183 48.4766C561.168 46.4615 558.688 45.4478 555.804 45.4478V47.4478ZM561.769 49.8909C563.404 51.5263 564.212 53.4795 564.212 55.8078H566.212C566.212 52.952 565.195 50.4892 563.183 48.4766L561.769 49.8909ZM547.22 55.8078C547.22 58.2496 548.007 60.3558 549.602 62.0592L551.062 60.6923C549.84 59.3877 549.22 57.7819 549.22 55.8078H547.22ZM549.609 62.0673C551.25 63.7813 553.341 64.6318 555.804 64.6318V62.6318C553.85 62.6318 552.293 61.9782 551.054 60.6842L549.609 62.0673ZM555.804 64.6318C558.293 64.6318 560.391 63.784 562.006 62.0592L560.546 60.6923C559.344 61.9755 557.794 62.6318 555.804 62.6318V64.6318ZM561.998 62.0673C563.628 60.3652 564.436 58.2563 564.436 55.8078H562.436C562.436 57.7752 561.804 59.3784 560.553 60.6842L561.998 62.0673ZM564.436 55.8078C564.436 53.3315 563.63 51.2166 561.99 49.5405L560.561 50.939C561.801 52.2069 562.436 53.804 562.436 55.8078H564.436ZM561.998 49.5485C560.382 47.8586 558.286 47.0318 555.804 47.0318V49.0318C557.801 49.0318 559.353 49.6769 560.553 50.931L561.998 49.5485ZM555.804 47.0318C553.348 47.0318 551.259 47.8612 549.617 49.5405L551.046 50.939C552.284 49.6743 553.843 49.0318 555.804 49.0318V47.0318ZM549.609 49.5485C548.005 51.2259 547.22 53.3382 547.22 55.8078H549.22C549.22 53.7973 549.843 52.1976 551.054 50.931L549.609 49.5485ZM572.729 64.7838V65.7838H573.729V64.7838H572.729ZM571.001 64.7838H570.001V65.7838H571.001V64.7838ZM571.001 28.7837V27.7837H570.001V28.7837H571.001ZM572.729 28.7837H573.729V27.7837H572.729V28.7837ZM572.729 63.7838H571.001V65.7838H572.729V63.7838ZM572.001 64.7838V28.7837H570.001V64.7838H572.001ZM571.001 29.7837H572.729V27.7837H571.001V29.7837ZM571.729 28.7837V64.7838H573.729V28.7837H571.729Z" fill="#359704"/>
</svg>
